%TF.GenerationSoftware,KiCad,Pcbnew,9.0.0*%
%TF.CreationDate,2025-06-14T01:05:19+10:00*%
%TF.ProjectId,28P-FPC-SPI-Debug,3238502d-4650-4432-9d53-50492d446562,rev?*%
%TF.SameCoordinates,Original*%
%TF.FileFunction,Paste,Top*%
%TF.FilePolarity,Positive*%
%FSLAX46Y46*%
G04 Gerber Fmt 4.6, Leading zero omitted, Abs format (unit mm)*
G04 Created by KiCad (PCBNEW 9.0.0) date 2025-06-14 01:05:19*
%MOMM*%
%LPD*%
G01*
G04 APERTURE LIST*
G04 Aperture macros list*
%AMRoundRect*
0 Rectangle with rounded corners*
0 $1 Rounding radius*
0 $2 $3 $4 $5 $6 $7 $8 $9 X,Y pos of 4 corners*
0 Add a 4 corners polygon primitive as box body*
4,1,4,$2,$3,$4,$5,$6,$7,$8,$9,$2,$3,0*
0 Add four circle primitives for the rounded corners*
1,1,$1+$1,$2,$3*
1,1,$1+$1,$4,$5*
1,1,$1+$1,$6,$7*
1,1,$1+$1,$8,$9*
0 Add four rect primitives between the rounded corners*
20,1,$1+$1,$2,$3,$4,$5,0*
20,1,$1+$1,$4,$5,$6,$7,0*
20,1,$1+$1,$6,$7,$8,$9,0*
20,1,$1+$1,$8,$9,$2,$3,0*%
G04 Aperture macros list end*
%ADD10C,0.010000*%
%ADD11R,1.150000X1.450000*%
%ADD12RoundRect,0.237500X-0.237500X0.250000X-0.237500X-0.250000X0.237500X-0.250000X0.237500X0.250000X0*%
%ADD13RoundRect,0.225000X-0.225000X-0.375000X0.225000X-0.375000X0.225000X0.375000X-0.225000X0.375000X0*%
%ADD14RoundRect,0.237500X0.237500X-0.250000X0.237500X0.250000X-0.237500X0.250000X-0.237500X-0.250000X0*%
%ADD15RoundRect,0.237500X0.250000X0.237500X-0.250000X0.237500X-0.250000X-0.237500X0.250000X-0.237500X0*%
%ADD16R,1.450000X1.150000*%
%ADD17RoundRect,0.225000X0.225000X0.375000X-0.225000X0.375000X-0.225000X-0.375000X0.225000X-0.375000X0*%
%ADD18RoundRect,0.040200X0.294800X-0.544800X0.294800X0.544800X-0.294800X0.544800X-0.294800X-0.544800X0*%
%ADD19R,0.930000X0.870000*%
%ADD20RoundRect,0.112500X-0.112500X-0.237500X0.112500X-0.237500X0.112500X0.237500X-0.112500X0.237500X0*%
%ADD21RoundRect,0.150000X0.587500X0.150000X-0.587500X0.150000X-0.587500X-0.150000X0.587500X-0.150000X0*%
%ADD22RoundRect,0.100000X-0.637500X-0.100000X0.637500X-0.100000X0.637500X0.100000X-0.637500X0.100000X0*%
%ADD23R,1.400000X0.300000*%
G04 APERTURE END LIST*
D10*
%TO.C,L1*%
X176050000Y-67430000D02*
X175470000Y-68025000D01*
X175470000Y-69175000D01*
X176050000Y-69770000D01*
X176050000Y-70545000D01*
X175160000Y-70545000D01*
X174600000Y-69995000D01*
X174600000Y-67205000D01*
X175160000Y-66655000D01*
X176050000Y-66655000D01*
X176050000Y-67430000D01*
G36*
X176050000Y-67430000D02*
G01*
X175470000Y-68025000D01*
X175470000Y-69175000D01*
X176050000Y-69770000D01*
X176050000Y-70545000D01*
X175160000Y-70545000D01*
X174600000Y-69995000D01*
X174600000Y-67205000D01*
X175160000Y-66655000D01*
X176050000Y-66655000D01*
X176050000Y-67430000D01*
G37*
X179000000Y-67205000D02*
X179000000Y-69995000D01*
X178440000Y-70545000D01*
X177550000Y-70545000D01*
X177550000Y-69770000D01*
X178130000Y-69175000D01*
X178130000Y-68025000D01*
X177550000Y-67430000D01*
X177550000Y-66655000D01*
X178440000Y-66655000D01*
X179000000Y-67205000D01*
G36*
X179000000Y-67205000D02*
G01*
X179000000Y-69995000D01*
X178440000Y-70545000D01*
X177550000Y-70545000D01*
X177550000Y-69770000D01*
X178130000Y-69175000D01*
X178130000Y-68025000D01*
X177550000Y-67430000D01*
X177550000Y-66655000D01*
X178440000Y-66655000D01*
X179000000Y-67205000D01*
G37*
%TO.C,J3*%
X146800000Y-51850000D02*
X147300000Y-51850000D01*
X147300000Y-53800000D01*
X145000000Y-53800000D01*
X145000000Y-52550000D01*
X145700000Y-52550000D01*
X145700000Y-51150000D01*
X146800000Y-51150000D01*
X146800000Y-51850000D01*
G36*
X146800000Y-51850000D02*
G01*
X147300000Y-51850000D01*
X147300000Y-53800000D01*
X145000000Y-53800000D01*
X145000000Y-52550000D01*
X145700000Y-52550000D01*
X145700000Y-51150000D01*
X146800000Y-51150000D01*
X146800000Y-51850000D01*
G37*
X147300000Y-68150000D02*
X146800000Y-68150000D01*
X146800000Y-68850000D01*
X145700000Y-68850000D01*
X145700000Y-67450000D01*
X145000000Y-67450000D01*
X145000000Y-66200000D01*
X147300000Y-66200000D01*
X147300000Y-68150000D01*
G36*
X147300000Y-68150000D02*
G01*
X146800000Y-68150000D01*
X146800000Y-68850000D01*
X145700000Y-68850000D01*
X145700000Y-67450000D01*
X145000000Y-67450000D01*
X145000000Y-66200000D01*
X147300000Y-66200000D01*
X147300000Y-68150000D01*
G37*
%TD*%
D11*
%TO.C,C7*%
X180900000Y-46600000D03*
X182700000Y-46600000D03*
%TD*%
D12*
%TO.C,R6*%
X188400000Y-71287500D03*
X188400000Y-73112500D03*
%TD*%
D13*
%TO.C,D2*%
X167950000Y-67400000D03*
X171250000Y-67400000D03*
%TD*%
D14*
%TO.C,R3*%
X163000000Y-70312500D03*
X163000000Y-68487500D03*
%TD*%
D15*
%TO.C,R11*%
X187112500Y-54400000D03*
X185287500Y-54400000D03*
%TD*%
D16*
%TO.C,C10*%
X150800000Y-70280000D03*
X150800000Y-68480000D03*
%TD*%
D17*
%TO.C,D1*%
X171250000Y-72200000D03*
X167950000Y-72200000D03*
%TD*%
D11*
%TO.C,C9*%
X180900000Y-51600000D03*
X182700000Y-51600000D03*
%TD*%
D14*
%TO.C,R10*%
X190662500Y-64362500D03*
X190662500Y-62537500D03*
%TD*%
D12*
%TO.C,R7*%
X190000000Y-71287500D03*
X190000000Y-73112500D03*
%TD*%
D16*
%TO.C,C12*%
X180600000Y-69900000D03*
X180600000Y-68100000D03*
%TD*%
D13*
%TO.C,D3*%
X167950000Y-69800000D03*
X171250000Y-69800000D03*
%TD*%
D18*
%TO.C,U1*%
X185260000Y-51820000D03*
X186200000Y-51820000D03*
X187140000Y-51820000D03*
X187140000Y-49380000D03*
X185260000Y-49380000D03*
%TD*%
D14*
%TO.C,R9*%
X193200000Y-73112500D03*
X193200000Y-71287500D03*
%TD*%
D19*
%TO.C,C14*%
X167000000Y-55780000D03*
X167000000Y-54220000D03*
%TD*%
D14*
%TO.C,R8*%
X191600000Y-73112500D03*
X191600000Y-71287500D03*
%TD*%
D19*
%TO.C,C6*%
X154400000Y-70180000D03*
X154400000Y-68620000D03*
%TD*%
D12*
%TO.C,R1*%
X172400000Y-63087500D03*
X172400000Y-64912500D03*
%TD*%
D16*
%TO.C,C5*%
X156600000Y-70280000D03*
X156600000Y-68480000D03*
%TD*%
D12*
%TO.C,R2*%
X178600000Y-63087500D03*
X178600000Y-64912500D03*
%TD*%
D16*
%TO.C,C3*%
X161000000Y-70280000D03*
X161000000Y-68480000D03*
%TD*%
%TO.C,C4*%
X158600000Y-70280000D03*
X158600000Y-68480000D03*
%TD*%
D11*
%TO.C,C13*%
X180900000Y-49100000D03*
X182700000Y-49100000D03*
%TD*%
D20*
%TO.C,Q1*%
X174800000Y-65000000D03*
X176100000Y-65000000D03*
X175450000Y-63000000D03*
%TD*%
D21*
%TO.C,Q2*%
X188000000Y-64400000D03*
X188000000Y-62500000D03*
X186125000Y-63450000D03*
%TD*%
D19*
%TO.C,C8*%
X152800000Y-70180000D03*
X152800000Y-68620000D03*
%TD*%
D11*
%TO.C,C11*%
X173500000Y-72200000D03*
X175300000Y-72200000D03*
%TD*%
D22*
%TO.C,U2*%
X169459145Y-55389551D03*
X169459145Y-56039551D03*
X169459145Y-56689551D03*
X169459145Y-57339551D03*
X169459145Y-57989551D03*
X169459145Y-58639551D03*
X169459145Y-59289551D03*
X169459145Y-59939551D03*
X169459145Y-60589551D03*
X169459145Y-61239551D03*
X175184145Y-61239551D03*
X175184145Y-60589551D03*
X175184145Y-59939551D03*
X175184145Y-59289551D03*
X175184145Y-58639551D03*
X175184145Y-57989551D03*
X175184145Y-57339551D03*
X175184145Y-56689551D03*
X175184145Y-56039551D03*
X175184145Y-55389551D03*
%TD*%
D16*
%TO.C,C1*%
X150000000Y-46800000D03*
X150000000Y-48600000D03*
%TD*%
%TO.C,C2*%
X152200000Y-46800000D03*
X152200000Y-48600000D03*
%TD*%
D23*
%TO.C,J3*%
X147400000Y-54250000D03*
X147400000Y-54750000D03*
X147400000Y-55250000D03*
X147400000Y-55750000D03*
X147400000Y-56250000D03*
X147400000Y-56750000D03*
X147400000Y-57250000D03*
X147400000Y-57750000D03*
X147400000Y-58250000D03*
X147400000Y-58750000D03*
X147400000Y-59250000D03*
X147400000Y-59750000D03*
X147400000Y-60250000D03*
X147400000Y-60750000D03*
X147400000Y-61250000D03*
X147400000Y-61750000D03*
X147400000Y-62250000D03*
X147400000Y-62750000D03*
X147400000Y-63250000D03*
X147400000Y-63750000D03*
X147400000Y-64250000D03*
X147400000Y-64750000D03*
X147400000Y-65250000D03*
X147400000Y-65750000D03*
%TD*%
M02*
