%TF.GenerationSoftware,KiCad,Pcbnew,9.0.0*%
%TF.CreationDate,2025-06-14T01:05:19+10:00*%
%TF.ProjectId,28P-FPC-SPI-Debug,3238502d-4650-4432-9d53-50492d446562,rev?*%
%TF.SameCoordinates,Original*%
%TF.FileFunction,Soldermask,Top*%
%TF.FilePolarity,Negative*%
%FSLAX46Y46*%
G04 Gerber Fmt 4.6, Leading zero omitted, Abs format (unit mm)*
G04 Created by KiCad (PCBNEW 9.0.0) date 2025-06-14 01:05:19*
%MOMM*%
%LPD*%
G01*
G04 APERTURE LIST*
G04 Aperture macros list*
%AMRoundRect*
0 Rectangle with rounded corners*
0 $1 Rounding radius*
0 $2 $3 $4 $5 $6 $7 $8 $9 X,Y pos of 4 corners*
0 Add a 4 corners polygon primitive as box body*
4,1,4,$2,$3,$4,$5,$6,$7,$8,$9,$2,$3,0*
0 Add four circle primitives for the rounded corners*
1,1,$1+$1,$2,$3*
1,1,$1+$1,$4,$5*
1,1,$1+$1,$6,$7*
1,1,$1+$1,$8,$9*
0 Add four rect primitives between the rounded corners*
20,1,$1+$1,$2,$3,$4,$5,0*
20,1,$1+$1,$4,$5,$6,$7,0*
20,1,$1+$1,$6,$7,$8,$9,0*
20,1,$1+$1,$8,$9,$2,$3,0*%
G04 Aperture macros list end*
%ADD10C,0.010000*%
%ADD11RoundRect,0.102000X-0.575000X-0.725000X0.575000X-0.725000X0.575000X0.725000X-0.575000X0.725000X0*%
%ADD12RoundRect,0.237500X-0.237500X0.250000X-0.237500X-0.250000X0.237500X-0.250000X0.237500X0.250000X0*%
%ADD13RoundRect,0.225000X-0.225000X-0.375000X0.225000X-0.375000X0.225000X0.375000X-0.225000X0.375000X0*%
%ADD14RoundRect,0.237500X0.237500X-0.250000X0.237500X0.250000X-0.237500X0.250000X-0.237500X-0.250000X0*%
%ADD15RoundRect,0.237500X0.250000X0.237500X-0.250000X0.237500X-0.250000X-0.237500X0.250000X-0.237500X0*%
%ADD16RoundRect,0.102000X0.725000X-0.575000X0.725000X0.575000X-0.725000X0.575000X-0.725000X-0.575000X0*%
%ADD17RoundRect,0.225000X0.225000X0.375000X-0.225000X0.375000X-0.225000X-0.375000X0.225000X-0.375000X0*%
%ADD18RoundRect,0.052440X0.384560X-0.634560X0.384560X0.634560X-0.384560X0.634560X-0.384560X-0.634560X0*%
%ADD19RoundRect,0.102000X0.465000X-0.435000X0.465000X0.435000X-0.465000X0.435000X-0.465000X-0.435000X0*%
%ADD20RoundRect,0.250000X0.405000X-0.405000X0.405000X0.405000X-0.405000X0.405000X-0.405000X-0.405000X0*%
%ADD21C,1.310000*%
%ADD22R,1.700000X1.700000*%
%ADD23O,1.700000X1.700000*%
%ADD24RoundRect,0.112500X-0.112500X-0.237500X0.112500X-0.237500X0.112500X0.237500X-0.112500X0.237500X0*%
%ADD25RoundRect,0.150000X0.587500X0.150000X-0.587500X0.150000X-0.587500X-0.150000X0.587500X-0.150000X0*%
%ADD26R,1.050000X1.500000*%
%ADD27O,1.050000X1.500000*%
%ADD28RoundRect,0.100000X-0.637500X-0.100000X0.637500X-0.100000X0.637500X0.100000X-0.637500X0.100000X0*%
%ADD29RoundRect,0.102000X-0.725000X0.575000X-0.725000X-0.575000X0.725000X-0.575000X0.725000X0.575000X0*%
%ADD30RoundRect,0.102000X-0.700000X0.150000X-0.700000X-0.150000X0.700000X-0.150000X0.700000X0.150000X0*%
G04 APERTURE END LIST*
D10*
%TO.C,L1*%
X176150000Y-67470680D02*
X175570000Y-68065681D01*
X175570000Y-69134319D01*
X176150000Y-69729320D01*
X176150000Y-70645000D01*
X175119110Y-70645000D01*
X174500000Y-70036950D01*
X174500000Y-67163050D01*
X175119110Y-66555000D01*
X176150000Y-66555000D01*
X176150000Y-67470680D01*
G36*
X176150000Y-67470680D02*
G01*
X175570000Y-68065681D01*
X175570000Y-69134319D01*
X176150000Y-69729320D01*
X176150000Y-70645000D01*
X175119110Y-70645000D01*
X174500000Y-70036950D01*
X174500000Y-67163050D01*
X175119110Y-66555000D01*
X176150000Y-66555000D01*
X176150000Y-67470680D01*
G37*
X179100000Y-67163050D02*
X179100000Y-70036950D01*
X178480890Y-70645000D01*
X177450000Y-70645000D01*
X177450000Y-69729320D01*
X178030000Y-69134319D01*
X178030000Y-68065681D01*
X177450000Y-67470680D01*
X177450000Y-66555000D01*
X178480890Y-66555000D01*
X179100000Y-67163050D01*
G36*
X179100000Y-67163050D02*
G01*
X179100000Y-70036950D01*
X178480890Y-70645000D01*
X177450000Y-70645000D01*
X177450000Y-69729320D01*
X178030000Y-69134319D01*
X178030000Y-68065681D01*
X177450000Y-67470680D01*
X177450000Y-66555000D01*
X178480890Y-66555000D01*
X179100000Y-67163050D01*
G37*
%TO.C,J3*%
X146900000Y-51750000D02*
X147400000Y-51750000D01*
X147400000Y-53900000D01*
X144900000Y-53900000D01*
X144900000Y-52450000D01*
X145600000Y-52450000D01*
X145600000Y-51050000D01*
X146900000Y-51050000D01*
X146900000Y-51750000D01*
G36*
X146900000Y-51750000D02*
G01*
X147400000Y-51750000D01*
X147400000Y-53900000D01*
X144900000Y-53900000D01*
X144900000Y-52450000D01*
X145600000Y-52450000D01*
X145600000Y-51050000D01*
X146900000Y-51050000D01*
X146900000Y-51750000D01*
G37*
X147400000Y-68250000D02*
X146900000Y-68250000D01*
X146900000Y-68950000D01*
X145600000Y-68950000D01*
X145600000Y-67550000D01*
X144900000Y-67550000D01*
X144900000Y-66100000D01*
X147400000Y-66100000D01*
X147400000Y-68250000D01*
G36*
X147400000Y-68250000D02*
G01*
X146900000Y-68250000D01*
X146900000Y-68950000D01*
X145600000Y-68950000D01*
X145600000Y-67550000D01*
X144900000Y-67550000D01*
X144900000Y-66100000D01*
X147400000Y-66100000D01*
X147400000Y-68250000D01*
G37*
%TD*%
D11*
%TO.C,C7*%
X180900000Y-46600000D03*
X182700000Y-46600000D03*
%TD*%
D12*
%TO.C,R6*%
X188400000Y-71287500D03*
X188400000Y-73112500D03*
%TD*%
D13*
%TO.C,D2*%
X167950000Y-67400000D03*
X171250000Y-67400000D03*
%TD*%
D14*
%TO.C,R3*%
X163000000Y-70312500D03*
X163000000Y-68487500D03*
%TD*%
D15*
%TO.C,R11*%
X187112500Y-54400000D03*
X185287500Y-54400000D03*
%TD*%
D16*
%TO.C,C10*%
X150800000Y-70280000D03*
X150800000Y-68480000D03*
%TD*%
D17*
%TO.C,D1*%
X171250000Y-72200000D03*
X167950000Y-72200000D03*
%TD*%
D11*
%TO.C,C9*%
X180900000Y-51600000D03*
X182700000Y-51600000D03*
%TD*%
D14*
%TO.C,R10*%
X190662500Y-64362500D03*
X190662500Y-62537500D03*
%TD*%
D12*
%TO.C,R7*%
X190000000Y-71287500D03*
X190000000Y-73112500D03*
%TD*%
D16*
%TO.C,C12*%
X180600000Y-69900000D03*
X180600000Y-68100000D03*
%TD*%
D13*
%TO.C,D3*%
X167950000Y-69800000D03*
X171250000Y-69800000D03*
%TD*%
D18*
%TO.C,U1*%
X185260000Y-51820000D03*
X186200000Y-51820000D03*
X187140000Y-51820000D03*
X187140000Y-49380000D03*
X185260000Y-49380000D03*
%TD*%
D14*
%TO.C,R9*%
X193200000Y-73112500D03*
X193200000Y-71287500D03*
%TD*%
D19*
%TO.C,C14*%
X167000000Y-55780000D03*
X167000000Y-54220000D03*
%TD*%
D14*
%TO.C,R8*%
X191600000Y-73112500D03*
X191600000Y-71287500D03*
%TD*%
D19*
%TO.C,C6*%
X154400000Y-70180000D03*
X154400000Y-68620000D03*
%TD*%
D12*
%TO.C,R1*%
X172400000Y-63087500D03*
X172400000Y-64912500D03*
%TD*%
D20*
%TO.C,J1*%
X195000000Y-63800000D03*
D21*
X197540000Y-63800000D03*
X195000000Y-61260000D03*
X197540000Y-61260000D03*
X195000000Y-58720000D03*
X197540000Y-58720000D03*
X195000000Y-56180000D03*
X197540000Y-56180000D03*
%TD*%
D16*
%TO.C,C5*%
X156600000Y-70280000D03*
X156600000Y-68480000D03*
%TD*%
D22*
%TO.C,J2*%
X112925000Y-46025000D03*
D23*
X115465000Y-46025000D03*
X112925000Y-48565000D03*
X115465000Y-48565000D03*
X112925000Y-51105000D03*
X115465000Y-51105000D03*
X112925000Y-53645000D03*
X115465000Y-53645000D03*
X112925000Y-56185000D03*
X115465000Y-56185000D03*
X112925000Y-58725000D03*
X115465000Y-58725000D03*
X112925000Y-61265000D03*
X115465000Y-61265000D03*
X112925000Y-63805000D03*
X115465000Y-63805000D03*
X112925000Y-66345000D03*
X115465000Y-66345000D03*
X112925000Y-68885000D03*
X115465000Y-68885000D03*
X112925000Y-71425000D03*
X115465000Y-71425000D03*
X112925000Y-73965000D03*
X115465000Y-73965000D03*
%TD*%
D12*
%TO.C,R2*%
X178600000Y-63087500D03*
X178600000Y-64912500D03*
%TD*%
D16*
%TO.C,C3*%
X161000000Y-70280000D03*
X161000000Y-68480000D03*
%TD*%
%TO.C,C4*%
X158600000Y-70280000D03*
X158600000Y-68480000D03*
%TD*%
D11*
%TO.C,C13*%
X180900000Y-49100000D03*
X182700000Y-49100000D03*
%TD*%
D24*
%TO.C,Q1*%
X174800000Y-65000000D03*
X176100000Y-65000000D03*
X175450000Y-63000000D03*
%TD*%
D25*
%TO.C,Q2*%
X188000000Y-64400000D03*
X188000000Y-62500000D03*
X186125000Y-63450000D03*
%TD*%
D26*
%TO.C,Q3*%
X188730000Y-68360000D03*
D27*
X190000000Y-68360000D03*
X191270000Y-68360000D03*
%TD*%
D19*
%TO.C,C8*%
X152800000Y-70180000D03*
X152800000Y-68620000D03*
%TD*%
D11*
%TO.C,C11*%
X173500000Y-72200000D03*
X175300000Y-72200000D03*
%TD*%
D28*
%TO.C,U2*%
X169459145Y-55389551D03*
X169459145Y-56039551D03*
X169459145Y-56689551D03*
X169459145Y-57339551D03*
X169459145Y-57989551D03*
X169459145Y-58639551D03*
X169459145Y-59289551D03*
X169459145Y-59939551D03*
X169459145Y-60589551D03*
X169459145Y-61239551D03*
X175184145Y-61239551D03*
X175184145Y-60589551D03*
X175184145Y-59939551D03*
X175184145Y-59289551D03*
X175184145Y-58639551D03*
X175184145Y-57989551D03*
X175184145Y-57339551D03*
X175184145Y-56689551D03*
X175184145Y-56039551D03*
X175184145Y-55389551D03*
%TD*%
D29*
%TO.C,C1*%
X150000000Y-46800000D03*
X150000000Y-48600000D03*
%TD*%
%TO.C,C2*%
X152200000Y-46800000D03*
X152200000Y-48600000D03*
%TD*%
D30*
%TO.C,J3*%
X147400000Y-54250000D03*
X147400000Y-54750000D03*
X147400000Y-55250000D03*
X147400000Y-55750000D03*
X147400000Y-56250000D03*
X147400000Y-56750000D03*
X147400000Y-57250000D03*
X147400000Y-57750000D03*
X147400000Y-58250000D03*
X147400000Y-58750000D03*
X147400000Y-59250000D03*
X147400000Y-59750000D03*
X147400000Y-60250000D03*
X147400000Y-60750000D03*
X147400000Y-61250000D03*
X147400000Y-61750000D03*
X147400000Y-62250000D03*
X147400000Y-62750000D03*
X147400000Y-63250000D03*
X147400000Y-63750000D03*
X147400000Y-64250000D03*
X147400000Y-64750000D03*
X147400000Y-65250000D03*
X147400000Y-65750000D03*
%TD*%
M02*
