%TF.GenerationSoftware,KiCad,Pcbnew,9.0.0*%
%TF.CreationDate,2025-06-14T01:05:19+10:00*%
%TF.ProjectId,28P-FPC-SPI-Debug,3238502d-4650-4432-9d53-50492d446562,rev?*%
%TF.SameCoordinates,Original*%
%TF.FileFunction,Copper,L2,Bot*%
%TF.FilePolarity,Positive*%
%FSLAX46Y46*%
G04 Gerber Fmt 4.6, Leading zero omitted, Abs format (unit mm)*
G04 Created by KiCad (PCBNEW 9.0.0) date 2025-06-14 01:05:19*
%MOMM*%
%LPD*%
G01*
G04 APERTURE LIST*
G04 Aperture macros list*
%AMRoundRect*
0 Rectangle with rounded corners*
0 $1 Rounding radius*
0 $2 $3 $4 $5 $6 $7 $8 $9 X,Y pos of 4 corners*
0 Add a 4 corners polygon primitive as box body*
4,1,4,$2,$3,$4,$5,$6,$7,$8,$9,$2,$3,0*
0 Add four circle primitives for the rounded corners*
1,1,$1+$1,$2,$3*
1,1,$1+$1,$4,$5*
1,1,$1+$1,$6,$7*
1,1,$1+$1,$8,$9*
0 Add four rect primitives between the rounded corners*
20,1,$1+$1,$2,$3,$4,$5,0*
20,1,$1+$1,$4,$5,$6,$7,0*
20,1,$1+$1,$6,$7,$8,$9,0*
20,1,$1+$1,$8,$9,$2,$3,0*%
G04 Aperture macros list end*
%ADD10C,0.300000*%
%TA.AperFunction,NonConductor*%
%ADD11C,0.300000*%
%TD*%
%TA.AperFunction,ComponentPad*%
%ADD12RoundRect,0.250000X0.405000X-0.405000X0.405000X0.405000X-0.405000X0.405000X-0.405000X-0.405000X0*%
%TD*%
%TA.AperFunction,ComponentPad*%
%ADD13C,1.310000*%
%TD*%
%TA.AperFunction,ComponentPad*%
%ADD14R,1.700000X1.700000*%
%TD*%
%TA.AperFunction,ComponentPad*%
%ADD15O,1.700000X1.700000*%
%TD*%
%TA.AperFunction,ComponentPad*%
%ADD16R,1.050000X1.500000*%
%TD*%
%TA.AperFunction,ComponentPad*%
%ADD17O,1.050000X1.500000*%
%TD*%
%TA.AperFunction,ViaPad*%
%ADD18C,0.600000*%
%TD*%
%TA.AperFunction,Conductor*%
%ADD19C,0.200000*%
%TD*%
G04 APERTURE END LIST*
D10*
D11*
X106985912Y-50754510D02*
X107414484Y-51897368D01*
X107414484Y-51897368D02*
X107843055Y-50754510D01*
X107414484Y-52397368D02*
X107343055Y-52468796D01*
X107343055Y-52468796D02*
X107271626Y-52611653D01*
X107271626Y-52611653D02*
X107414484Y-52897368D01*
X107414484Y-52897368D02*
X107343055Y-53040225D01*
X107343055Y-53040225D02*
X107271626Y-53111653D01*
X106985912Y-54825940D02*
X107414484Y-53683082D01*
X107414484Y-53683082D02*
X107843055Y-54825940D01*
X110400828Y-51611653D02*
X109686542Y-51111653D01*
X110400828Y-50754510D02*
X108900828Y-50754510D01*
X108900828Y-50754510D02*
X108900828Y-51325939D01*
X108900828Y-51325939D02*
X108972257Y-51468796D01*
X108972257Y-51468796D02*
X109043685Y-51540225D01*
X109043685Y-51540225D02*
X109186542Y-51611653D01*
X109186542Y-51611653D02*
X109400828Y-51611653D01*
X109400828Y-51611653D02*
X109543685Y-51540225D01*
X109543685Y-51540225D02*
X109615114Y-51468796D01*
X109615114Y-51468796D02*
X109686542Y-51325939D01*
X109686542Y-51325939D02*
X109686542Y-50754510D01*
X110329400Y-52825939D02*
X110400828Y-52683082D01*
X110400828Y-52683082D02*
X110400828Y-52397368D01*
X110400828Y-52397368D02*
X110329400Y-52254510D01*
X110329400Y-52254510D02*
X110186542Y-52183082D01*
X110186542Y-52183082D02*
X109615114Y-52183082D01*
X109615114Y-52183082D02*
X109472257Y-52254510D01*
X109472257Y-52254510D02*
X109400828Y-52397368D01*
X109400828Y-52397368D02*
X109400828Y-52683082D01*
X109400828Y-52683082D02*
X109472257Y-52825939D01*
X109472257Y-52825939D02*
X109615114Y-52897368D01*
X109615114Y-52897368D02*
X109757971Y-52897368D01*
X109757971Y-52897368D02*
X109900828Y-52183082D01*
X109400828Y-53397367D02*
X110400828Y-53754510D01*
X110400828Y-53754510D02*
X109400828Y-54111653D01*
X108900828Y-54968796D02*
X108900828Y-55111653D01*
X108900828Y-55111653D02*
X108972257Y-55254510D01*
X108972257Y-55254510D02*
X109043685Y-55325939D01*
X109043685Y-55325939D02*
X109186542Y-55397367D01*
X109186542Y-55397367D02*
X109472257Y-55468796D01*
X109472257Y-55468796D02*
X109829400Y-55468796D01*
X109829400Y-55468796D02*
X110115114Y-55397367D01*
X110115114Y-55397367D02*
X110257971Y-55325939D01*
X110257971Y-55325939D02*
X110329400Y-55254510D01*
X110329400Y-55254510D02*
X110400828Y-55111653D01*
X110400828Y-55111653D02*
X110400828Y-54968796D01*
X110400828Y-54968796D02*
X110329400Y-54825939D01*
X110329400Y-54825939D02*
X110257971Y-54754510D01*
X110257971Y-54754510D02*
X110115114Y-54683081D01*
X110115114Y-54683081D02*
X109829400Y-54611653D01*
X109829400Y-54611653D02*
X109472257Y-54611653D01*
X109472257Y-54611653D02*
X109186542Y-54683081D01*
X109186542Y-54683081D02*
X109043685Y-54754510D01*
X109043685Y-54754510D02*
X108972257Y-54825939D01*
X108972257Y-54825939D02*
X108900828Y-54968796D01*
X110400828Y-57254509D02*
X108900828Y-57254509D01*
X108900828Y-57254509D02*
X108900828Y-57825938D01*
X108900828Y-57825938D02*
X108972257Y-57968795D01*
X108972257Y-57968795D02*
X109043685Y-58040224D01*
X109043685Y-58040224D02*
X109186542Y-58111652D01*
X109186542Y-58111652D02*
X109400828Y-58111652D01*
X109400828Y-58111652D02*
X109543685Y-58040224D01*
X109543685Y-58040224D02*
X109615114Y-57968795D01*
X109615114Y-57968795D02*
X109686542Y-57825938D01*
X109686542Y-57825938D02*
X109686542Y-57254509D01*
X110400828Y-59611652D02*
X109686542Y-59111652D01*
X110400828Y-58754509D02*
X108900828Y-58754509D01*
X108900828Y-58754509D02*
X108900828Y-59325938D01*
X108900828Y-59325938D02*
X108972257Y-59468795D01*
X108972257Y-59468795D02*
X109043685Y-59540224D01*
X109043685Y-59540224D02*
X109186542Y-59611652D01*
X109186542Y-59611652D02*
X109400828Y-59611652D01*
X109400828Y-59611652D02*
X109543685Y-59540224D01*
X109543685Y-59540224D02*
X109615114Y-59468795D01*
X109615114Y-59468795D02*
X109686542Y-59325938D01*
X109686542Y-59325938D02*
X109686542Y-58754509D01*
X108900828Y-60540224D02*
X108900828Y-60825938D01*
X108900828Y-60825938D02*
X108972257Y-60968795D01*
X108972257Y-60968795D02*
X109115114Y-61111652D01*
X109115114Y-61111652D02*
X109400828Y-61183081D01*
X109400828Y-61183081D02*
X109900828Y-61183081D01*
X109900828Y-61183081D02*
X110186542Y-61111652D01*
X110186542Y-61111652D02*
X110329400Y-60968795D01*
X110329400Y-60968795D02*
X110400828Y-60825938D01*
X110400828Y-60825938D02*
X110400828Y-60540224D01*
X110400828Y-60540224D02*
X110329400Y-60397367D01*
X110329400Y-60397367D02*
X110186542Y-60254509D01*
X110186542Y-60254509D02*
X109900828Y-60183081D01*
X109900828Y-60183081D02*
X109400828Y-60183081D01*
X109400828Y-60183081D02*
X109115114Y-60254509D01*
X109115114Y-60254509D02*
X108972257Y-60397367D01*
X108972257Y-60397367D02*
X108900828Y-60540224D01*
X108900828Y-61611653D02*
X108900828Y-62468796D01*
X110400828Y-62040224D02*
X108900828Y-62040224D01*
X108900828Y-63254510D02*
X108900828Y-63540224D01*
X108900828Y-63540224D02*
X108972257Y-63683081D01*
X108972257Y-63683081D02*
X109115114Y-63825938D01*
X109115114Y-63825938D02*
X109400828Y-63897367D01*
X109400828Y-63897367D02*
X109900828Y-63897367D01*
X109900828Y-63897367D02*
X110186542Y-63825938D01*
X110186542Y-63825938D02*
X110329400Y-63683081D01*
X110329400Y-63683081D02*
X110400828Y-63540224D01*
X110400828Y-63540224D02*
X110400828Y-63254510D01*
X110400828Y-63254510D02*
X110329400Y-63111653D01*
X110329400Y-63111653D02*
X110186542Y-62968795D01*
X110186542Y-62968795D02*
X109900828Y-62897367D01*
X109900828Y-62897367D02*
X109400828Y-62897367D01*
X109400828Y-62897367D02*
X109115114Y-62968795D01*
X109115114Y-62968795D02*
X108972257Y-63111653D01*
X108972257Y-63111653D02*
X108900828Y-63254510D01*
X108900828Y-64325939D02*
X108900828Y-65183082D01*
X110400828Y-64754510D02*
X108900828Y-64754510D01*
X109686542Y-65968796D02*
X110400828Y-65968796D01*
X108900828Y-65468796D02*
X109686542Y-65968796D01*
X109686542Y-65968796D02*
X108900828Y-66468796D01*
X110400828Y-66968795D02*
X108900828Y-66968795D01*
X108900828Y-66968795D02*
X108900828Y-67540224D01*
X108900828Y-67540224D02*
X108972257Y-67683081D01*
X108972257Y-67683081D02*
X109043685Y-67754510D01*
X109043685Y-67754510D02*
X109186542Y-67825938D01*
X109186542Y-67825938D02*
X109400828Y-67825938D01*
X109400828Y-67825938D02*
X109543685Y-67754510D01*
X109543685Y-67754510D02*
X109615114Y-67683081D01*
X109615114Y-67683081D02*
X109686542Y-67540224D01*
X109686542Y-67540224D02*
X109686542Y-66968795D01*
X109615114Y-68468795D02*
X109615114Y-68968795D01*
X110400828Y-69183081D02*
X110400828Y-68468795D01*
X110400828Y-68468795D02*
X108900828Y-68468795D01*
X108900828Y-68468795D02*
X108900828Y-69183081D01*
D12*
%TO.P,J1,1,Pin_1*%
%TO.N,/VCC_INT*%
X195000000Y-63800000D03*
D13*
%TO.P,J1,2,Pin_2*%
%TO.N,GND*%
X197540000Y-63800000D03*
%TO.P,J1,3,Pin_3*%
%TO.N,/SDI*%
X195000000Y-61260000D03*
%TO.P,J1,4,Pin_4*%
%TO.N,/SCLK*%
X197540000Y-61260000D03*
%TO.P,J1,5,Pin_5*%
%TO.N,/CS*%
X195000000Y-58720000D03*
%TO.P,J1,6,Pin_6*%
%TO.N,/D{slash}C*%
X197540000Y-58720000D03*
%TO.P,J1,7,Pin_7*%
%TO.N,/\u005CRST*%
X195000000Y-56180000D03*
%TO.P,J1,8,Pin_8*%
%TO.N,/BUSY*%
X197540000Y-56180000D03*
%TD*%
D14*
%TO.P,J2,1,Pin_1*%
%TO.N,/HLT_CTL*%
X112925000Y-46025000D03*
D15*
%TO.P,J2,2,Pin_2*%
%TO.N,/GDR*%
X115465000Y-46025000D03*
%TO.P,J2,3,Pin_3*%
%TO.N,/CURR_SENSE*%
X112925000Y-48565000D03*
%TO.P,J2,4,Pin_4*%
%TO.N,/VGL*%
X115465000Y-48565000D03*
%TO.P,J2,5,Pin_5*%
%TO.N,/VGH*%
X112925000Y-51105000D03*
%TO.P,J2,6,Pin_6*%
%TO.N,/TSCL*%
X115465000Y-51105000D03*
%TO.P,J2,7,Pin_7*%
%TO.N,/TSDA*%
X112925000Y-53645000D03*
%TO.P,J2,8,Pin_8*%
%TO.N,/BS*%
X115465000Y-53645000D03*
%TO.P,J2,9,Pin_9*%
%TO.N,/EPD_BUSY*%
X112925000Y-56185000D03*
%TO.P,J2,10,Pin_10*%
%TO.N,/\u005CEPD_RST*%
X115465000Y-56185000D03*
%TO.P,J2,11,Pin_11*%
%TO.N,/EPD_D{slash}C*%
X112925000Y-58725000D03*
%TO.P,J2,12,Pin_12*%
%TO.N,/EPD_CS*%
X115465000Y-58725000D03*
%TO.P,J2,13,Pin_13*%
%TO.N,/EPD_SCLK*%
X112925000Y-61265000D03*
%TO.P,J2,14,Pin_14*%
%TO.N,/EPD_SDI*%
X115465000Y-61265000D03*
%TO.P,J2,15,Pin_15*%
%TO.N,+3V3*%
X112925000Y-63805000D03*
%TO.P,J2,16,Pin_16*%
%TO.N,unconnected-(J2-Pin_16-Pad16)*%
X115465000Y-63805000D03*
%TO.P,J2,17,Pin_17*%
%TO.N,GND*%
X112925000Y-66345000D03*
%TO.P,J2,18,Pin_18*%
%TO.N,/VDD*%
X115465000Y-66345000D03*
%TO.P,J2,19,Pin_19*%
%TO.N,/VPP*%
X112925000Y-68885000D03*
%TO.P,J2,20,Pin_20*%
%TO.N,/VSH1*%
X115465000Y-68885000D03*
%TO.P,J2,21,Pin_21*%
%TO.N,/PREVGH*%
X112925000Y-71425000D03*
%TO.P,J2,22,Pin_22*%
%TO.N,/VSL*%
X115465000Y-71425000D03*
%TO.P,J2,23,Pin_23*%
%TO.N,/PREVGL*%
X112925000Y-73965000D03*
%TO.P,J2,24,Pin_24*%
%TO.N,/VCOM*%
X115465000Y-73965000D03*
%TD*%
D16*
%TO.P,Q3,1,E*%
%TO.N,GND*%
X188730000Y-68360000D03*
D17*
%TO.P,Q3,2,B*%
%TO.N,Net-(Q3-B)*%
X190000000Y-68360000D03*
%TO.P,Q3,3,C*%
%TO.N,Net-(Q2-G)*%
X191270000Y-68360000D03*
%TD*%
D18*
%TO.N,/GDR*%
X159400000Y-65000000D03*
X149800000Y-54200000D03*
%TO.N,/D{slash}C*%
X191600000Y-58200000D03*
%TO.N,/BUSY*%
X197200000Y-53400000D03*
%TO.N,/PREVGH*%
X162400000Y-67400000D03*
X150200000Y-64400000D03*
%TO.N,/PREVGL*%
X150400000Y-72000000D03*
X150500707Y-66699294D03*
%TO.N,+3V3*%
X161000000Y-66800000D03*
X164600000Y-55400000D03*
X165400000Y-62000000D03*
X164600000Y-50200000D03*
X161200000Y-62200000D03*
X180600000Y-66200000D03*
X184800000Y-47400000D03*
X178600000Y-47400000D03*
%TO.N,GND*%
X197600000Y-66400000D03*
X178800000Y-52200000D03*
X149200000Y-68400000D03*
X149200000Y-62000000D03*
X182400000Y-61600000D03*
X178400000Y-61200000D03*
X182400000Y-68600000D03*
X148000000Y-47600000D03*
X182400000Y-64800000D03*
%TO.N,/SCLK*%
X188200000Y-59600000D03*
%TO.N,/Vcc*%
X182600000Y-53200000D03*
X184200000Y-62800000D03*
X182556058Y-55974695D03*
%TO.N,/\u005CRST*%
X183800000Y-70800000D03*
X182600000Y-57339551D03*
%TO.N,/VCC_EN*%
X187200000Y-56000000D03*
X187200000Y-72400000D03*
%TD*%
D19*
%TO.N,/GDR*%
X149800000Y-54200000D02*
X159000000Y-54200000D01*
X159400000Y-54600000D02*
X159400000Y-65000000D01*
X159000000Y-54200000D02*
X159400000Y-54600000D01*
%TO.N,/D{slash}C*%
X196584000Y-59716000D02*
X197540000Y-58760000D01*
X193116000Y-59716000D02*
X196584000Y-59716000D01*
X191600000Y-58200000D02*
X193116000Y-59716000D01*
%TO.N,/BUSY*%
X197200000Y-53400000D02*
X197600000Y-53800000D01*
X197600000Y-56160000D02*
X197540000Y-56220000D01*
X197600000Y-53800000D02*
X197600000Y-56160000D01*
%TO.N,/PREVGH*%
X150200000Y-64400000D02*
X150200000Y-64600000D01*
X153000000Y-67400000D02*
X162400000Y-67400000D01*
X150200000Y-64600000D02*
X153000000Y-67400000D01*
%TO.N,/PREVGL*%
X150400000Y-66800001D02*
X150500707Y-66699294D01*
X150400000Y-72000000D02*
X150400000Y-66800001D01*
%TO.N,+3V3*%
X184600000Y-47400000D02*
X184700000Y-47500000D01*
X180600000Y-49400000D02*
X178600000Y-47400000D01*
X180700000Y-66100000D02*
X180600000Y-66200000D01*
X178600000Y-47400000D02*
X184600000Y-47400000D01*
X164600000Y-61200000D02*
X164600000Y-55400000D01*
X165400000Y-62000000D02*
X164600000Y-61200000D01*
X161000000Y-62400000D02*
X161000000Y-66800000D01*
X161200000Y-62200000D02*
X161000000Y-62400000D01*
X164600000Y-50200000D02*
X164600000Y-55400000D01*
X180600000Y-66200000D02*
X180600000Y-49400000D01*
%TO.N,GND*%
X182400000Y-68600000D02*
X182400000Y-64800000D01*
X149200000Y-68400000D02*
X149200000Y-62000000D01*
X149200000Y-62000000D02*
X149000000Y-61800000D01*
X190465000Y-66400000D02*
X197600000Y-66400000D01*
X178800000Y-60800000D02*
X178400000Y-61200000D01*
X188730000Y-68360000D02*
X188730000Y-68135000D01*
X148000000Y-48800000D02*
X148000000Y-47600000D01*
X149000000Y-49800000D02*
X148000000Y-48800000D01*
X178800000Y-52200000D02*
X178800000Y-60800000D01*
X149000000Y-61800000D02*
X149000000Y-49800000D01*
X188730000Y-68135000D02*
X190465000Y-66400000D01*
X182400000Y-64800000D02*
X182400000Y-61600000D01*
%TO.N,/SCLK*%
X197540000Y-61260000D02*
X196397000Y-60117000D01*
X196397000Y-60117000D02*
X188717000Y-60117000D01*
X188717000Y-60117000D02*
X188200000Y-59600000D01*
%TO.N,/Vcc*%
X184200000Y-60000000D02*
X184200000Y-62800000D01*
X184200000Y-60000000D02*
X184200000Y-57600000D01*
X184200000Y-57600000D02*
X182600000Y-56000000D01*
X182600000Y-56000000D02*
X182600000Y-53200000D01*
%TO.N,/\u005CRST*%
X183200000Y-58000000D02*
X182600000Y-57400000D01*
X182600000Y-57400000D02*
X182600000Y-57339551D01*
X183200000Y-70200000D02*
X183200000Y-58000000D01*
X183800000Y-70800000D02*
X183200000Y-70200000D01*
%TO.N,/VCC_EN*%
X187200000Y-72400000D02*
X187200000Y-56000000D01*
%TD*%
M02*
