%TF.GenerationSoftware,KiCad,Pcbnew,9.0.0*%
%TF.CreationDate,2025-06-14T01:05:19+10:00*%
%TF.ProjectId,28P-FPC-SPI-Debug,3238502d-4650-4432-9d53-50492d446562,rev?*%
%TF.SameCoordinates,Original*%
%TF.FileFunction,Legend,Top*%
%TF.FilePolarity,Positive*%
%FSLAX46Y46*%
G04 Gerber Fmt 4.6, Leading zero omitted, Abs format (unit mm)*
G04 Created by KiCad (PCBNEW 9.0.0) date 2025-06-14 01:05:19*
%MOMM*%
%LPD*%
G01*
G04 APERTURE LIST*
G04 Aperture macros list*
%AMRoundRect*
0 Rectangle with rounded corners*
0 $1 Rounding radius*
0 $2 $3 $4 $5 $6 $7 $8 $9 X,Y pos of 4 corners*
0 Add a 4 corners polygon primitive as box body*
4,1,4,$2,$3,$4,$5,$6,$7,$8,$9,$2,$3,0*
0 Add four circle primitives for the rounded corners*
1,1,$1+$1,$2,$3*
1,1,$1+$1,$4,$5*
1,1,$1+$1,$6,$7*
1,1,$1+$1,$8,$9*
0 Add four rect primitives between the rounded corners*
20,1,$1+$1,$2,$3,$4,$5,0*
20,1,$1+$1,$4,$5,$6,$7,0*
20,1,$1+$1,$6,$7,$8,$9,0*
20,1,$1+$1,$8,$9,$2,$3,0*%
G04 Aperture macros list end*
%ADD10C,0.100000*%
%ADD11C,0.125000*%
%ADD12C,0.050000*%
%ADD13C,0.062500*%
%ADD14C,0.081250*%
%ADD15C,0.080000*%
%ADD16C,0.150000*%
%ADD17C,0.200000*%
%ADD18C,0.120000*%
%ADD19C,0.140000*%
%ADD20C,0.127000*%
%ADD21C,0.010000*%
%ADD22RoundRect,0.102000X-0.575000X-0.725000X0.575000X-0.725000X0.575000X0.725000X-0.575000X0.725000X0*%
%ADD23RoundRect,0.237500X-0.237500X0.250000X-0.237500X-0.250000X0.237500X-0.250000X0.237500X0.250000X0*%
%ADD24RoundRect,0.225000X-0.225000X-0.375000X0.225000X-0.375000X0.225000X0.375000X-0.225000X0.375000X0*%
%ADD25RoundRect,0.237500X0.237500X-0.250000X0.237500X0.250000X-0.237500X0.250000X-0.237500X-0.250000X0*%
%ADD26RoundRect,0.237500X0.250000X0.237500X-0.250000X0.237500X-0.250000X-0.237500X0.250000X-0.237500X0*%
%ADD27RoundRect,0.102000X0.725000X-0.575000X0.725000X0.575000X-0.725000X0.575000X-0.725000X-0.575000X0*%
%ADD28RoundRect,0.225000X0.225000X0.375000X-0.225000X0.375000X-0.225000X-0.375000X0.225000X-0.375000X0*%
%ADD29RoundRect,0.052440X0.384560X-0.634560X0.384560X0.634560X-0.384560X0.634560X-0.384560X-0.634560X0*%
%ADD30RoundRect,0.102000X0.465000X-0.435000X0.465000X0.435000X-0.465000X0.435000X-0.465000X-0.435000X0*%
%ADD31RoundRect,0.250000X0.405000X-0.405000X0.405000X0.405000X-0.405000X0.405000X-0.405000X-0.405000X0*%
%ADD32C,1.310000*%
%ADD33R,1.700000X1.700000*%
%ADD34O,1.700000X1.700000*%
%ADD35RoundRect,0.112500X-0.112500X-0.237500X0.112500X-0.237500X0.112500X0.237500X-0.112500X0.237500X0*%
%ADD36RoundRect,0.150000X0.587500X0.150000X-0.587500X0.150000X-0.587500X-0.150000X0.587500X-0.150000X0*%
%ADD37R,1.050000X1.500000*%
%ADD38O,1.050000X1.500000*%
%ADD39RoundRect,0.100000X-0.637500X-0.100000X0.637500X-0.100000X0.637500X0.100000X-0.637500X0.100000X0*%
%ADD40RoundRect,0.102000X-0.725000X0.575000X-0.725000X-0.575000X0.725000X-0.575000X0.725000X0.575000X0*%
%ADD41RoundRect,0.102000X-0.700000X0.150000X-0.700000X-0.150000X0.700000X-0.150000X0.700000X0.150000X0*%
G04 APERTURE END LIST*
D10*
X117570550Y-58177180D02*
X118427693Y-59462895D01*
X118570551Y-58748609D02*
X118903884Y-58748609D01*
X119046741Y-59272419D02*
X118570551Y-59272419D01*
X118570551Y-59272419D02*
X118570551Y-58272419D01*
X118570551Y-58272419D02*
X119046741Y-58272419D01*
X119475313Y-59272419D02*
X119475313Y-58272419D01*
X119475313Y-58272419D02*
X119856265Y-58272419D01*
X119856265Y-58272419D02*
X119951503Y-58320038D01*
X119951503Y-58320038D02*
X119999122Y-58367657D01*
X119999122Y-58367657D02*
X120046741Y-58462895D01*
X120046741Y-58462895D02*
X120046741Y-58605752D01*
X120046741Y-58605752D02*
X119999122Y-58700990D01*
X119999122Y-58700990D02*
X119951503Y-58748609D01*
X119951503Y-58748609D02*
X119856265Y-58796228D01*
X119856265Y-58796228D02*
X119475313Y-58796228D01*
X120475313Y-59272419D02*
X120475313Y-58272419D01*
X120475313Y-58272419D02*
X120713408Y-58272419D01*
X120713408Y-58272419D02*
X120856265Y-58320038D01*
X120856265Y-58320038D02*
X120951503Y-58415276D01*
X120951503Y-58415276D02*
X120999122Y-58510514D01*
X120999122Y-58510514D02*
X121046741Y-58700990D01*
X121046741Y-58700990D02*
X121046741Y-58843847D01*
X121046741Y-58843847D02*
X120999122Y-59034323D01*
X120999122Y-59034323D02*
X120951503Y-59129561D01*
X120951503Y-59129561D02*
X120856265Y-59224800D01*
X120856265Y-59224800D02*
X120713408Y-59272419D01*
X120713408Y-59272419D02*
X120475313Y-59272419D01*
X121237218Y-59367657D02*
X121999122Y-59367657D01*
X122808646Y-59177180D02*
X122761027Y-59224800D01*
X122761027Y-59224800D02*
X122618170Y-59272419D01*
X122618170Y-59272419D02*
X122522932Y-59272419D01*
X122522932Y-59272419D02*
X122380075Y-59224800D01*
X122380075Y-59224800D02*
X122284837Y-59129561D01*
X122284837Y-59129561D02*
X122237218Y-59034323D01*
X122237218Y-59034323D02*
X122189599Y-58843847D01*
X122189599Y-58843847D02*
X122189599Y-58700990D01*
X122189599Y-58700990D02*
X122237218Y-58510514D01*
X122237218Y-58510514D02*
X122284837Y-58415276D01*
X122284837Y-58415276D02*
X122380075Y-58320038D01*
X122380075Y-58320038D02*
X122522932Y-58272419D01*
X122522932Y-58272419D02*
X122618170Y-58272419D01*
X122618170Y-58272419D02*
X122761027Y-58320038D01*
X122761027Y-58320038D02*
X122808646Y-58367657D01*
X123189599Y-59224800D02*
X123332456Y-59272419D01*
X123332456Y-59272419D02*
X123570551Y-59272419D01*
X123570551Y-59272419D02*
X123665789Y-59224800D01*
X123665789Y-59224800D02*
X123713408Y-59177180D01*
X123713408Y-59177180D02*
X123761027Y-59081942D01*
X123761027Y-59081942D02*
X123761027Y-58986704D01*
X123761027Y-58986704D02*
X123713408Y-58891466D01*
X123713408Y-58891466D02*
X123665789Y-58843847D01*
X123665789Y-58843847D02*
X123570551Y-58796228D01*
X123570551Y-58796228D02*
X123380075Y-58748609D01*
X123380075Y-58748609D02*
X123284837Y-58700990D01*
X123284837Y-58700990D02*
X123237218Y-58653371D01*
X123237218Y-58653371D02*
X123189599Y-58558133D01*
X123189599Y-58558133D02*
X123189599Y-58462895D01*
X123189599Y-58462895D02*
X123237218Y-58367657D01*
X123237218Y-58367657D02*
X123284837Y-58320038D01*
X123284837Y-58320038D02*
X123380075Y-58272419D01*
X123380075Y-58272419D02*
X123618170Y-58272419D01*
X123618170Y-58272419D02*
X123761027Y-58320038D01*
X105703884Y-74472419D02*
X105703884Y-73472419D01*
X105703884Y-73472419D02*
X106084836Y-73472419D01*
X106084836Y-73472419D02*
X106180074Y-73520038D01*
X106180074Y-73520038D02*
X106227693Y-73567657D01*
X106227693Y-73567657D02*
X106275312Y-73662895D01*
X106275312Y-73662895D02*
X106275312Y-73805752D01*
X106275312Y-73805752D02*
X106227693Y-73900990D01*
X106227693Y-73900990D02*
X106180074Y-73948609D01*
X106180074Y-73948609D02*
X106084836Y-73996228D01*
X106084836Y-73996228D02*
X105703884Y-73996228D01*
X107275312Y-74472419D02*
X106941979Y-73996228D01*
X106703884Y-74472419D02*
X106703884Y-73472419D01*
X106703884Y-73472419D02*
X107084836Y-73472419D01*
X107084836Y-73472419D02*
X107180074Y-73520038D01*
X107180074Y-73520038D02*
X107227693Y-73567657D01*
X107227693Y-73567657D02*
X107275312Y-73662895D01*
X107275312Y-73662895D02*
X107275312Y-73805752D01*
X107275312Y-73805752D02*
X107227693Y-73900990D01*
X107227693Y-73900990D02*
X107180074Y-73948609D01*
X107180074Y-73948609D02*
X107084836Y-73996228D01*
X107084836Y-73996228D02*
X106703884Y-73996228D01*
X107703884Y-73948609D02*
X108037217Y-73948609D01*
X108180074Y-74472419D02*
X107703884Y-74472419D01*
X107703884Y-74472419D02*
X107703884Y-73472419D01*
X107703884Y-73472419D02*
X108180074Y-73472419D01*
X108465789Y-73472419D02*
X108799122Y-74472419D01*
X108799122Y-74472419D02*
X109132455Y-73472419D01*
X109989598Y-73520038D02*
X109894360Y-73472419D01*
X109894360Y-73472419D02*
X109751503Y-73472419D01*
X109751503Y-73472419D02*
X109608646Y-73520038D01*
X109608646Y-73520038D02*
X109513408Y-73615276D01*
X109513408Y-73615276D02*
X109465789Y-73710514D01*
X109465789Y-73710514D02*
X109418170Y-73900990D01*
X109418170Y-73900990D02*
X109418170Y-74043847D01*
X109418170Y-74043847D02*
X109465789Y-74234323D01*
X109465789Y-74234323D02*
X109513408Y-74329561D01*
X109513408Y-74329561D02*
X109608646Y-74424800D01*
X109608646Y-74424800D02*
X109751503Y-74472419D01*
X109751503Y-74472419D02*
X109846741Y-74472419D01*
X109846741Y-74472419D02*
X109989598Y-74424800D01*
X109989598Y-74424800D02*
X110037217Y-74377180D01*
X110037217Y-74377180D02*
X110037217Y-74043847D01*
X110037217Y-74043847D02*
X109846741Y-74043847D01*
X110941979Y-74472419D02*
X110465789Y-74472419D01*
X110465789Y-74472419D02*
X110465789Y-73472419D01*
X105503884Y-71872419D02*
X105503884Y-70872419D01*
X105503884Y-70872419D02*
X105884836Y-70872419D01*
X105884836Y-70872419D02*
X105980074Y-70920038D01*
X105980074Y-70920038D02*
X106027693Y-70967657D01*
X106027693Y-70967657D02*
X106075312Y-71062895D01*
X106075312Y-71062895D02*
X106075312Y-71205752D01*
X106075312Y-71205752D02*
X106027693Y-71300990D01*
X106027693Y-71300990D02*
X105980074Y-71348609D01*
X105980074Y-71348609D02*
X105884836Y-71396228D01*
X105884836Y-71396228D02*
X105503884Y-71396228D01*
X107075312Y-71872419D02*
X106741979Y-71396228D01*
X106503884Y-71872419D02*
X106503884Y-70872419D01*
X106503884Y-70872419D02*
X106884836Y-70872419D01*
X106884836Y-70872419D02*
X106980074Y-70920038D01*
X106980074Y-70920038D02*
X107027693Y-70967657D01*
X107027693Y-70967657D02*
X107075312Y-71062895D01*
X107075312Y-71062895D02*
X107075312Y-71205752D01*
X107075312Y-71205752D02*
X107027693Y-71300990D01*
X107027693Y-71300990D02*
X106980074Y-71348609D01*
X106980074Y-71348609D02*
X106884836Y-71396228D01*
X106884836Y-71396228D02*
X106503884Y-71396228D01*
X107503884Y-71348609D02*
X107837217Y-71348609D01*
X107980074Y-71872419D02*
X107503884Y-71872419D01*
X107503884Y-71872419D02*
X107503884Y-70872419D01*
X107503884Y-70872419D02*
X107980074Y-70872419D01*
X108265789Y-70872419D02*
X108599122Y-71872419D01*
X108599122Y-71872419D02*
X108932455Y-70872419D01*
X109789598Y-70920038D02*
X109694360Y-70872419D01*
X109694360Y-70872419D02*
X109551503Y-70872419D01*
X109551503Y-70872419D02*
X109408646Y-70920038D01*
X109408646Y-70920038D02*
X109313408Y-71015276D01*
X109313408Y-71015276D02*
X109265789Y-71110514D01*
X109265789Y-71110514D02*
X109218170Y-71300990D01*
X109218170Y-71300990D02*
X109218170Y-71443847D01*
X109218170Y-71443847D02*
X109265789Y-71634323D01*
X109265789Y-71634323D02*
X109313408Y-71729561D01*
X109313408Y-71729561D02*
X109408646Y-71824800D01*
X109408646Y-71824800D02*
X109551503Y-71872419D01*
X109551503Y-71872419D02*
X109646741Y-71872419D01*
X109646741Y-71872419D02*
X109789598Y-71824800D01*
X109789598Y-71824800D02*
X109837217Y-71777180D01*
X109837217Y-71777180D02*
X109837217Y-71443847D01*
X109837217Y-71443847D02*
X109646741Y-71443847D01*
X110265789Y-71872419D02*
X110265789Y-70872419D01*
X110265789Y-71348609D02*
X110837217Y-71348609D01*
X110837217Y-71872419D02*
X110837217Y-70872419D01*
X106103884Y-49072419D02*
X106103884Y-48072419D01*
X106341979Y-49167657D02*
X107103883Y-49167657D01*
X107294360Y-49024800D02*
X107437217Y-49072419D01*
X107437217Y-49072419D02*
X107675312Y-49072419D01*
X107675312Y-49072419D02*
X107770550Y-49024800D01*
X107770550Y-49024800D02*
X107818169Y-48977180D01*
X107818169Y-48977180D02*
X107865788Y-48881942D01*
X107865788Y-48881942D02*
X107865788Y-48786704D01*
X107865788Y-48786704D02*
X107818169Y-48691466D01*
X107818169Y-48691466D02*
X107770550Y-48643847D01*
X107770550Y-48643847D02*
X107675312Y-48596228D01*
X107675312Y-48596228D02*
X107484836Y-48548609D01*
X107484836Y-48548609D02*
X107389598Y-48500990D01*
X107389598Y-48500990D02*
X107341979Y-48453371D01*
X107341979Y-48453371D02*
X107294360Y-48358133D01*
X107294360Y-48358133D02*
X107294360Y-48262895D01*
X107294360Y-48262895D02*
X107341979Y-48167657D01*
X107341979Y-48167657D02*
X107389598Y-48120038D01*
X107389598Y-48120038D02*
X107484836Y-48072419D01*
X107484836Y-48072419D02*
X107722931Y-48072419D01*
X107722931Y-48072419D02*
X107865788Y-48120038D01*
X108294360Y-48548609D02*
X108627693Y-48548609D01*
X108770550Y-49072419D02*
X108294360Y-49072419D01*
X108294360Y-49072419D02*
X108294360Y-48072419D01*
X108294360Y-48072419D02*
X108770550Y-48072419D01*
X109199122Y-49072419D02*
X109199122Y-48072419D01*
X109199122Y-48072419D02*
X109770550Y-49072419D01*
X109770550Y-49072419D02*
X109770550Y-48072419D01*
X110199122Y-49024800D02*
X110341979Y-49072419D01*
X110341979Y-49072419D02*
X110580074Y-49072419D01*
X110580074Y-49072419D02*
X110675312Y-49024800D01*
X110675312Y-49024800D02*
X110722931Y-48977180D01*
X110722931Y-48977180D02*
X110770550Y-48881942D01*
X110770550Y-48881942D02*
X110770550Y-48786704D01*
X110770550Y-48786704D02*
X110722931Y-48691466D01*
X110722931Y-48691466D02*
X110675312Y-48643847D01*
X110675312Y-48643847D02*
X110580074Y-48596228D01*
X110580074Y-48596228D02*
X110389598Y-48548609D01*
X110389598Y-48548609D02*
X110294360Y-48500990D01*
X110294360Y-48500990D02*
X110246741Y-48453371D01*
X110246741Y-48453371D02*
X110199122Y-48358133D01*
X110199122Y-48358133D02*
X110199122Y-48262895D01*
X110199122Y-48262895D02*
X110246741Y-48167657D01*
X110246741Y-48167657D02*
X110294360Y-48120038D01*
X110294360Y-48120038D02*
X110389598Y-48072419D01*
X110389598Y-48072419D02*
X110627693Y-48072419D01*
X110627693Y-48072419D02*
X110770550Y-48120038D01*
X117570550Y-60577180D02*
X118427693Y-61862895D01*
X118570551Y-61148609D02*
X118903884Y-61148609D01*
X119046741Y-61672419D02*
X118570551Y-61672419D01*
X118570551Y-61672419D02*
X118570551Y-60672419D01*
X118570551Y-60672419D02*
X119046741Y-60672419D01*
X119475313Y-61672419D02*
X119475313Y-60672419D01*
X119475313Y-60672419D02*
X119856265Y-60672419D01*
X119856265Y-60672419D02*
X119951503Y-60720038D01*
X119951503Y-60720038D02*
X119999122Y-60767657D01*
X119999122Y-60767657D02*
X120046741Y-60862895D01*
X120046741Y-60862895D02*
X120046741Y-61005752D01*
X120046741Y-61005752D02*
X119999122Y-61100990D01*
X119999122Y-61100990D02*
X119951503Y-61148609D01*
X119951503Y-61148609D02*
X119856265Y-61196228D01*
X119856265Y-61196228D02*
X119475313Y-61196228D01*
X120475313Y-61672419D02*
X120475313Y-60672419D01*
X120475313Y-60672419D02*
X120713408Y-60672419D01*
X120713408Y-60672419D02*
X120856265Y-60720038D01*
X120856265Y-60720038D02*
X120951503Y-60815276D01*
X120951503Y-60815276D02*
X120999122Y-60910514D01*
X120999122Y-60910514D02*
X121046741Y-61100990D01*
X121046741Y-61100990D02*
X121046741Y-61243847D01*
X121046741Y-61243847D02*
X120999122Y-61434323D01*
X120999122Y-61434323D02*
X120951503Y-61529561D01*
X120951503Y-61529561D02*
X120856265Y-61624800D01*
X120856265Y-61624800D02*
X120713408Y-61672419D01*
X120713408Y-61672419D02*
X120475313Y-61672419D01*
X121237218Y-61767657D02*
X121999122Y-61767657D01*
X122189599Y-61624800D02*
X122332456Y-61672419D01*
X122332456Y-61672419D02*
X122570551Y-61672419D01*
X122570551Y-61672419D02*
X122665789Y-61624800D01*
X122665789Y-61624800D02*
X122713408Y-61577180D01*
X122713408Y-61577180D02*
X122761027Y-61481942D01*
X122761027Y-61481942D02*
X122761027Y-61386704D01*
X122761027Y-61386704D02*
X122713408Y-61291466D01*
X122713408Y-61291466D02*
X122665789Y-61243847D01*
X122665789Y-61243847D02*
X122570551Y-61196228D01*
X122570551Y-61196228D02*
X122380075Y-61148609D01*
X122380075Y-61148609D02*
X122284837Y-61100990D01*
X122284837Y-61100990D02*
X122237218Y-61053371D01*
X122237218Y-61053371D02*
X122189599Y-60958133D01*
X122189599Y-60958133D02*
X122189599Y-60862895D01*
X122189599Y-60862895D02*
X122237218Y-60767657D01*
X122237218Y-60767657D02*
X122284837Y-60720038D01*
X122284837Y-60720038D02*
X122380075Y-60672419D01*
X122380075Y-60672419D02*
X122618170Y-60672419D01*
X122618170Y-60672419D02*
X122761027Y-60720038D01*
X123189599Y-61672419D02*
X123189599Y-60672419D01*
X123189599Y-60672419D02*
X123427694Y-60672419D01*
X123427694Y-60672419D02*
X123570551Y-60720038D01*
X123570551Y-60720038D02*
X123665789Y-60815276D01*
X123665789Y-60815276D02*
X123713408Y-60910514D01*
X123713408Y-60910514D02*
X123761027Y-61100990D01*
X123761027Y-61100990D02*
X123761027Y-61243847D01*
X123761027Y-61243847D02*
X123713408Y-61434323D01*
X123713408Y-61434323D02*
X123665789Y-61529561D01*
X123665789Y-61529561D02*
X123570551Y-61624800D01*
X123570551Y-61624800D02*
X123427694Y-61672419D01*
X123427694Y-61672419D02*
X123189599Y-61672419D01*
X124189599Y-61672419D02*
X124189599Y-60672419D01*
D11*
X107377474Y-53071119D02*
X107948902Y-53071119D01*
X107663188Y-54071119D02*
X107663188Y-53071119D01*
X108234617Y-54023500D02*
X108377474Y-54071119D01*
X108377474Y-54071119D02*
X108615569Y-54071119D01*
X108615569Y-54071119D02*
X108710807Y-54023500D01*
X108710807Y-54023500D02*
X108758426Y-53975880D01*
X108758426Y-53975880D02*
X108806045Y-53880642D01*
X108806045Y-53880642D02*
X108806045Y-53785404D01*
X108806045Y-53785404D02*
X108758426Y-53690166D01*
X108758426Y-53690166D02*
X108710807Y-53642547D01*
X108710807Y-53642547D02*
X108615569Y-53594928D01*
X108615569Y-53594928D02*
X108425093Y-53547309D01*
X108425093Y-53547309D02*
X108329855Y-53499690D01*
X108329855Y-53499690D02*
X108282236Y-53452071D01*
X108282236Y-53452071D02*
X108234617Y-53356833D01*
X108234617Y-53356833D02*
X108234617Y-53261595D01*
X108234617Y-53261595D02*
X108282236Y-53166357D01*
X108282236Y-53166357D02*
X108329855Y-53118738D01*
X108329855Y-53118738D02*
X108425093Y-53071119D01*
X108425093Y-53071119D02*
X108663188Y-53071119D01*
X108663188Y-53071119D02*
X108806045Y-53118738D01*
X109234617Y-54071119D02*
X109234617Y-53071119D01*
X109234617Y-53071119D02*
X109472712Y-53071119D01*
X109472712Y-53071119D02*
X109615569Y-53118738D01*
X109615569Y-53118738D02*
X109710807Y-53213976D01*
X109710807Y-53213976D02*
X109758426Y-53309214D01*
X109758426Y-53309214D02*
X109806045Y-53499690D01*
X109806045Y-53499690D02*
X109806045Y-53642547D01*
X109806045Y-53642547D02*
X109758426Y-53833023D01*
X109758426Y-53833023D02*
X109710807Y-53928261D01*
X109710807Y-53928261D02*
X109615569Y-54023500D01*
X109615569Y-54023500D02*
X109472712Y-54071119D01*
X109472712Y-54071119D02*
X109234617Y-54071119D01*
X110186998Y-53785404D02*
X110663188Y-53785404D01*
X110091760Y-54071119D02*
X110425093Y-53071119D01*
X110425093Y-53071119D02*
X110758426Y-54071119D01*
D10*
X117561027Y-48072419D02*
X117894360Y-49072419D01*
X117894360Y-49072419D02*
X118227693Y-48072419D01*
X119084836Y-48120038D02*
X118989598Y-48072419D01*
X118989598Y-48072419D02*
X118846741Y-48072419D01*
X118846741Y-48072419D02*
X118703884Y-48120038D01*
X118703884Y-48120038D02*
X118608646Y-48215276D01*
X118608646Y-48215276D02*
X118561027Y-48310514D01*
X118561027Y-48310514D02*
X118513408Y-48500990D01*
X118513408Y-48500990D02*
X118513408Y-48643847D01*
X118513408Y-48643847D02*
X118561027Y-48834323D01*
X118561027Y-48834323D02*
X118608646Y-48929561D01*
X118608646Y-48929561D02*
X118703884Y-49024800D01*
X118703884Y-49024800D02*
X118846741Y-49072419D01*
X118846741Y-49072419D02*
X118941979Y-49072419D01*
X118941979Y-49072419D02*
X119084836Y-49024800D01*
X119084836Y-49024800D02*
X119132455Y-48977180D01*
X119132455Y-48977180D02*
X119132455Y-48643847D01*
X119132455Y-48643847D02*
X118941979Y-48643847D01*
X120037217Y-49072419D02*
X119561027Y-49072419D01*
X119561027Y-49072419D02*
X119561027Y-48072419D01*
X108408646Y-63272419D02*
X109027693Y-63272419D01*
X109027693Y-63272419D02*
X108694360Y-63653371D01*
X108694360Y-63653371D02*
X108837217Y-63653371D01*
X108837217Y-63653371D02*
X108932455Y-63700990D01*
X108932455Y-63700990D02*
X108980074Y-63748609D01*
X108980074Y-63748609D02*
X109027693Y-63843847D01*
X109027693Y-63843847D02*
X109027693Y-64081942D01*
X109027693Y-64081942D02*
X108980074Y-64177180D01*
X108980074Y-64177180D02*
X108932455Y-64224800D01*
X108932455Y-64224800D02*
X108837217Y-64272419D01*
X108837217Y-64272419D02*
X108551503Y-64272419D01*
X108551503Y-64272419D02*
X108456265Y-64224800D01*
X108456265Y-64224800D02*
X108408646Y-64177180D01*
X109313408Y-63272419D02*
X109646741Y-64272419D01*
X109646741Y-64272419D02*
X109980074Y-63272419D01*
X110218170Y-63272419D02*
X110837217Y-63272419D01*
X110837217Y-63272419D02*
X110503884Y-63653371D01*
X110503884Y-63653371D02*
X110646741Y-63653371D01*
X110646741Y-63653371D02*
X110741979Y-63700990D01*
X110741979Y-63700990D02*
X110789598Y-63748609D01*
X110789598Y-63748609D02*
X110837217Y-63843847D01*
X110837217Y-63843847D02*
X110837217Y-64081942D01*
X110837217Y-64081942D02*
X110789598Y-64177180D01*
X110789598Y-64177180D02*
X110741979Y-64224800D01*
X110741979Y-64224800D02*
X110646741Y-64272419D01*
X110646741Y-64272419D02*
X110361027Y-64272419D01*
X110361027Y-64272419D02*
X110265789Y-64224800D01*
X110265789Y-64224800D02*
X110218170Y-64177180D01*
X104703884Y-58748609D02*
X105037217Y-58748609D01*
X105180074Y-59272419D02*
X104703884Y-59272419D01*
X104703884Y-59272419D02*
X104703884Y-58272419D01*
X104703884Y-58272419D02*
X105180074Y-58272419D01*
X105608646Y-59272419D02*
X105608646Y-58272419D01*
X105608646Y-58272419D02*
X105989598Y-58272419D01*
X105989598Y-58272419D02*
X106084836Y-58320038D01*
X106084836Y-58320038D02*
X106132455Y-58367657D01*
X106132455Y-58367657D02*
X106180074Y-58462895D01*
X106180074Y-58462895D02*
X106180074Y-58605752D01*
X106180074Y-58605752D02*
X106132455Y-58700990D01*
X106132455Y-58700990D02*
X106084836Y-58748609D01*
X106084836Y-58748609D02*
X105989598Y-58796228D01*
X105989598Y-58796228D02*
X105608646Y-58796228D01*
X106608646Y-59272419D02*
X106608646Y-58272419D01*
X106608646Y-58272419D02*
X106846741Y-58272419D01*
X106846741Y-58272419D02*
X106989598Y-58320038D01*
X106989598Y-58320038D02*
X107084836Y-58415276D01*
X107084836Y-58415276D02*
X107132455Y-58510514D01*
X107132455Y-58510514D02*
X107180074Y-58700990D01*
X107180074Y-58700990D02*
X107180074Y-58843847D01*
X107180074Y-58843847D02*
X107132455Y-59034323D01*
X107132455Y-59034323D02*
X107084836Y-59129561D01*
X107084836Y-59129561D02*
X106989598Y-59224800D01*
X106989598Y-59224800D02*
X106846741Y-59272419D01*
X106846741Y-59272419D02*
X106608646Y-59272419D01*
X107370551Y-59367657D02*
X108132455Y-59367657D01*
X108370551Y-59272419D02*
X108370551Y-58272419D01*
X108370551Y-58272419D02*
X108608646Y-58272419D01*
X108608646Y-58272419D02*
X108751503Y-58320038D01*
X108751503Y-58320038D02*
X108846741Y-58415276D01*
X108846741Y-58415276D02*
X108894360Y-58510514D01*
X108894360Y-58510514D02*
X108941979Y-58700990D01*
X108941979Y-58700990D02*
X108941979Y-58843847D01*
X108941979Y-58843847D02*
X108894360Y-59034323D01*
X108894360Y-59034323D02*
X108846741Y-59129561D01*
X108846741Y-59129561D02*
X108751503Y-59224800D01*
X108751503Y-59224800D02*
X108608646Y-59272419D01*
X108608646Y-59272419D02*
X108370551Y-59272419D01*
X110084836Y-58224800D02*
X109227694Y-59510514D01*
X110989598Y-59177180D02*
X110941979Y-59224800D01*
X110941979Y-59224800D02*
X110799122Y-59272419D01*
X110799122Y-59272419D02*
X110703884Y-59272419D01*
X110703884Y-59272419D02*
X110561027Y-59224800D01*
X110561027Y-59224800D02*
X110465789Y-59129561D01*
X110465789Y-59129561D02*
X110418170Y-59034323D01*
X110418170Y-59034323D02*
X110370551Y-58843847D01*
X110370551Y-58843847D02*
X110370551Y-58700990D01*
X110370551Y-58700990D02*
X110418170Y-58510514D01*
X110418170Y-58510514D02*
X110465789Y-58415276D01*
X110465789Y-58415276D02*
X110561027Y-58320038D01*
X110561027Y-58320038D02*
X110703884Y-58272419D01*
X110703884Y-58272419D02*
X110799122Y-58272419D01*
X110799122Y-58272419D02*
X110941979Y-58320038D01*
X110941979Y-58320038D02*
X110989598Y-58367657D01*
X117561027Y-73472419D02*
X117894360Y-74472419D01*
X117894360Y-74472419D02*
X118227693Y-73472419D01*
X119132455Y-74377180D02*
X119084836Y-74424800D01*
X119084836Y-74424800D02*
X118941979Y-74472419D01*
X118941979Y-74472419D02*
X118846741Y-74472419D01*
X118846741Y-74472419D02*
X118703884Y-74424800D01*
X118703884Y-74424800D02*
X118608646Y-74329561D01*
X118608646Y-74329561D02*
X118561027Y-74234323D01*
X118561027Y-74234323D02*
X118513408Y-74043847D01*
X118513408Y-74043847D02*
X118513408Y-73900990D01*
X118513408Y-73900990D02*
X118561027Y-73710514D01*
X118561027Y-73710514D02*
X118608646Y-73615276D01*
X118608646Y-73615276D02*
X118703884Y-73520038D01*
X118703884Y-73520038D02*
X118846741Y-73472419D01*
X118846741Y-73472419D02*
X118941979Y-73472419D01*
X118941979Y-73472419D02*
X119084836Y-73520038D01*
X119084836Y-73520038D02*
X119132455Y-73567657D01*
X119751503Y-73472419D02*
X119941979Y-73472419D01*
X119941979Y-73472419D02*
X120037217Y-73520038D01*
X120037217Y-73520038D02*
X120132455Y-73615276D01*
X120132455Y-73615276D02*
X120180074Y-73805752D01*
X120180074Y-73805752D02*
X120180074Y-74139085D01*
X120180074Y-74139085D02*
X120132455Y-74329561D01*
X120132455Y-74329561D02*
X120037217Y-74424800D01*
X120037217Y-74424800D02*
X119941979Y-74472419D01*
X119941979Y-74472419D02*
X119751503Y-74472419D01*
X119751503Y-74472419D02*
X119656265Y-74424800D01*
X119656265Y-74424800D02*
X119561027Y-74329561D01*
X119561027Y-74329561D02*
X119513408Y-74139085D01*
X119513408Y-74139085D02*
X119513408Y-73805752D01*
X119513408Y-73805752D02*
X119561027Y-73615276D01*
X119561027Y-73615276D02*
X119656265Y-73520038D01*
X119656265Y-73520038D02*
X119751503Y-73472419D01*
X120608646Y-74472419D02*
X120608646Y-73472419D01*
X120608646Y-73472419D02*
X120941979Y-74186704D01*
X120941979Y-74186704D02*
X121275312Y-73472419D01*
X121275312Y-73472419D02*
X121275312Y-74472419D01*
X103903884Y-61148609D02*
X104237217Y-61148609D01*
X104380074Y-61672419D02*
X103903884Y-61672419D01*
X103903884Y-61672419D02*
X103903884Y-60672419D01*
X103903884Y-60672419D02*
X104380074Y-60672419D01*
X104808646Y-61672419D02*
X104808646Y-60672419D01*
X104808646Y-60672419D02*
X105189598Y-60672419D01*
X105189598Y-60672419D02*
X105284836Y-60720038D01*
X105284836Y-60720038D02*
X105332455Y-60767657D01*
X105332455Y-60767657D02*
X105380074Y-60862895D01*
X105380074Y-60862895D02*
X105380074Y-61005752D01*
X105380074Y-61005752D02*
X105332455Y-61100990D01*
X105332455Y-61100990D02*
X105284836Y-61148609D01*
X105284836Y-61148609D02*
X105189598Y-61196228D01*
X105189598Y-61196228D02*
X104808646Y-61196228D01*
X105808646Y-61672419D02*
X105808646Y-60672419D01*
X105808646Y-60672419D02*
X106046741Y-60672419D01*
X106046741Y-60672419D02*
X106189598Y-60720038D01*
X106189598Y-60720038D02*
X106284836Y-60815276D01*
X106284836Y-60815276D02*
X106332455Y-60910514D01*
X106332455Y-60910514D02*
X106380074Y-61100990D01*
X106380074Y-61100990D02*
X106380074Y-61243847D01*
X106380074Y-61243847D02*
X106332455Y-61434323D01*
X106332455Y-61434323D02*
X106284836Y-61529561D01*
X106284836Y-61529561D02*
X106189598Y-61624800D01*
X106189598Y-61624800D02*
X106046741Y-61672419D01*
X106046741Y-61672419D02*
X105808646Y-61672419D01*
X106570551Y-61767657D02*
X107332455Y-61767657D01*
X107522932Y-61624800D02*
X107665789Y-61672419D01*
X107665789Y-61672419D02*
X107903884Y-61672419D01*
X107903884Y-61672419D02*
X107999122Y-61624800D01*
X107999122Y-61624800D02*
X108046741Y-61577180D01*
X108046741Y-61577180D02*
X108094360Y-61481942D01*
X108094360Y-61481942D02*
X108094360Y-61386704D01*
X108094360Y-61386704D02*
X108046741Y-61291466D01*
X108046741Y-61291466D02*
X107999122Y-61243847D01*
X107999122Y-61243847D02*
X107903884Y-61196228D01*
X107903884Y-61196228D02*
X107713408Y-61148609D01*
X107713408Y-61148609D02*
X107618170Y-61100990D01*
X107618170Y-61100990D02*
X107570551Y-61053371D01*
X107570551Y-61053371D02*
X107522932Y-60958133D01*
X107522932Y-60958133D02*
X107522932Y-60862895D01*
X107522932Y-60862895D02*
X107570551Y-60767657D01*
X107570551Y-60767657D02*
X107618170Y-60720038D01*
X107618170Y-60720038D02*
X107713408Y-60672419D01*
X107713408Y-60672419D02*
X107951503Y-60672419D01*
X107951503Y-60672419D02*
X108094360Y-60720038D01*
X109094360Y-61577180D02*
X109046741Y-61624800D01*
X109046741Y-61624800D02*
X108903884Y-61672419D01*
X108903884Y-61672419D02*
X108808646Y-61672419D01*
X108808646Y-61672419D02*
X108665789Y-61624800D01*
X108665789Y-61624800D02*
X108570551Y-61529561D01*
X108570551Y-61529561D02*
X108522932Y-61434323D01*
X108522932Y-61434323D02*
X108475313Y-61243847D01*
X108475313Y-61243847D02*
X108475313Y-61100990D01*
X108475313Y-61100990D02*
X108522932Y-60910514D01*
X108522932Y-60910514D02*
X108570551Y-60815276D01*
X108570551Y-60815276D02*
X108665789Y-60720038D01*
X108665789Y-60720038D02*
X108808646Y-60672419D01*
X108808646Y-60672419D02*
X108903884Y-60672419D01*
X108903884Y-60672419D02*
X109046741Y-60720038D01*
X109046741Y-60720038D02*
X109094360Y-60767657D01*
X109999122Y-61672419D02*
X109522932Y-61672419D01*
X109522932Y-61672419D02*
X109522932Y-60672419D01*
X110332456Y-61672419D02*
X110332456Y-60672419D01*
X110903884Y-61672419D02*
X110475313Y-61100990D01*
X110903884Y-60672419D02*
X110332456Y-61243847D01*
X117561027Y-70872419D02*
X117894360Y-71872419D01*
X117894360Y-71872419D02*
X118227693Y-70872419D01*
X118513408Y-71824800D02*
X118656265Y-71872419D01*
X118656265Y-71872419D02*
X118894360Y-71872419D01*
X118894360Y-71872419D02*
X118989598Y-71824800D01*
X118989598Y-71824800D02*
X119037217Y-71777180D01*
X119037217Y-71777180D02*
X119084836Y-71681942D01*
X119084836Y-71681942D02*
X119084836Y-71586704D01*
X119084836Y-71586704D02*
X119037217Y-71491466D01*
X119037217Y-71491466D02*
X118989598Y-71443847D01*
X118989598Y-71443847D02*
X118894360Y-71396228D01*
X118894360Y-71396228D02*
X118703884Y-71348609D01*
X118703884Y-71348609D02*
X118608646Y-71300990D01*
X118608646Y-71300990D02*
X118561027Y-71253371D01*
X118561027Y-71253371D02*
X118513408Y-71158133D01*
X118513408Y-71158133D02*
X118513408Y-71062895D01*
X118513408Y-71062895D02*
X118561027Y-70967657D01*
X118561027Y-70967657D02*
X118608646Y-70920038D01*
X118608646Y-70920038D02*
X118703884Y-70872419D01*
X118703884Y-70872419D02*
X118941979Y-70872419D01*
X118941979Y-70872419D02*
X119084836Y-70920038D01*
X119989598Y-71872419D02*
X119513408Y-71872419D01*
X119513408Y-71872419D02*
X119513408Y-70872419D01*
X117561027Y-68472419D02*
X117894360Y-69472419D01*
X117894360Y-69472419D02*
X118227693Y-68472419D01*
X118513408Y-69424800D02*
X118656265Y-69472419D01*
X118656265Y-69472419D02*
X118894360Y-69472419D01*
X118894360Y-69472419D02*
X118989598Y-69424800D01*
X118989598Y-69424800D02*
X119037217Y-69377180D01*
X119037217Y-69377180D02*
X119084836Y-69281942D01*
X119084836Y-69281942D02*
X119084836Y-69186704D01*
X119084836Y-69186704D02*
X119037217Y-69091466D01*
X119037217Y-69091466D02*
X118989598Y-69043847D01*
X118989598Y-69043847D02*
X118894360Y-68996228D01*
X118894360Y-68996228D02*
X118703884Y-68948609D01*
X118703884Y-68948609D02*
X118608646Y-68900990D01*
X118608646Y-68900990D02*
X118561027Y-68853371D01*
X118561027Y-68853371D02*
X118513408Y-68758133D01*
X118513408Y-68758133D02*
X118513408Y-68662895D01*
X118513408Y-68662895D02*
X118561027Y-68567657D01*
X118561027Y-68567657D02*
X118608646Y-68520038D01*
X118608646Y-68520038D02*
X118703884Y-68472419D01*
X118703884Y-68472419D02*
X118941979Y-68472419D01*
X118941979Y-68472419D02*
X119084836Y-68520038D01*
X119513408Y-69472419D02*
X119513408Y-68472419D01*
X119513408Y-68948609D02*
X120084836Y-68948609D01*
X120084836Y-69472419D02*
X120084836Y-68472419D01*
X121084836Y-69472419D02*
X120513408Y-69472419D01*
X120799122Y-69472419D02*
X120799122Y-68472419D01*
X120799122Y-68472419D02*
X120703884Y-68615276D01*
X120703884Y-68615276D02*
X120608646Y-68710514D01*
X120608646Y-68710514D02*
X120513408Y-68758133D01*
X103703884Y-56148609D02*
X104037217Y-56148609D01*
X104180074Y-56672419D02*
X103703884Y-56672419D01*
X103703884Y-56672419D02*
X103703884Y-55672419D01*
X103703884Y-55672419D02*
X104180074Y-55672419D01*
X104608646Y-56672419D02*
X104608646Y-55672419D01*
X104608646Y-55672419D02*
X104989598Y-55672419D01*
X104989598Y-55672419D02*
X105084836Y-55720038D01*
X105084836Y-55720038D02*
X105132455Y-55767657D01*
X105132455Y-55767657D02*
X105180074Y-55862895D01*
X105180074Y-55862895D02*
X105180074Y-56005752D01*
X105180074Y-56005752D02*
X105132455Y-56100990D01*
X105132455Y-56100990D02*
X105084836Y-56148609D01*
X105084836Y-56148609D02*
X104989598Y-56196228D01*
X104989598Y-56196228D02*
X104608646Y-56196228D01*
X105608646Y-56672419D02*
X105608646Y-55672419D01*
X105608646Y-55672419D02*
X105846741Y-55672419D01*
X105846741Y-55672419D02*
X105989598Y-55720038D01*
X105989598Y-55720038D02*
X106084836Y-55815276D01*
X106084836Y-55815276D02*
X106132455Y-55910514D01*
X106132455Y-55910514D02*
X106180074Y-56100990D01*
X106180074Y-56100990D02*
X106180074Y-56243847D01*
X106180074Y-56243847D02*
X106132455Y-56434323D01*
X106132455Y-56434323D02*
X106084836Y-56529561D01*
X106084836Y-56529561D02*
X105989598Y-56624800D01*
X105989598Y-56624800D02*
X105846741Y-56672419D01*
X105846741Y-56672419D02*
X105608646Y-56672419D01*
X106370551Y-56767657D02*
X107132455Y-56767657D01*
X107703884Y-56148609D02*
X107846741Y-56196228D01*
X107846741Y-56196228D02*
X107894360Y-56243847D01*
X107894360Y-56243847D02*
X107941979Y-56339085D01*
X107941979Y-56339085D02*
X107941979Y-56481942D01*
X107941979Y-56481942D02*
X107894360Y-56577180D01*
X107894360Y-56577180D02*
X107846741Y-56624800D01*
X107846741Y-56624800D02*
X107751503Y-56672419D01*
X107751503Y-56672419D02*
X107370551Y-56672419D01*
X107370551Y-56672419D02*
X107370551Y-55672419D01*
X107370551Y-55672419D02*
X107703884Y-55672419D01*
X107703884Y-55672419D02*
X107799122Y-55720038D01*
X107799122Y-55720038D02*
X107846741Y-55767657D01*
X107846741Y-55767657D02*
X107894360Y-55862895D01*
X107894360Y-55862895D02*
X107894360Y-55958133D01*
X107894360Y-55958133D02*
X107846741Y-56053371D01*
X107846741Y-56053371D02*
X107799122Y-56100990D01*
X107799122Y-56100990D02*
X107703884Y-56148609D01*
X107703884Y-56148609D02*
X107370551Y-56148609D01*
X108370551Y-55672419D02*
X108370551Y-56481942D01*
X108370551Y-56481942D02*
X108418170Y-56577180D01*
X108418170Y-56577180D02*
X108465789Y-56624800D01*
X108465789Y-56624800D02*
X108561027Y-56672419D01*
X108561027Y-56672419D02*
X108751503Y-56672419D01*
X108751503Y-56672419D02*
X108846741Y-56624800D01*
X108846741Y-56624800D02*
X108894360Y-56577180D01*
X108894360Y-56577180D02*
X108941979Y-56481942D01*
X108941979Y-56481942D02*
X108941979Y-55672419D01*
X109370551Y-56624800D02*
X109513408Y-56672419D01*
X109513408Y-56672419D02*
X109751503Y-56672419D01*
X109751503Y-56672419D02*
X109846741Y-56624800D01*
X109846741Y-56624800D02*
X109894360Y-56577180D01*
X109894360Y-56577180D02*
X109941979Y-56481942D01*
X109941979Y-56481942D02*
X109941979Y-56386704D01*
X109941979Y-56386704D02*
X109894360Y-56291466D01*
X109894360Y-56291466D02*
X109846741Y-56243847D01*
X109846741Y-56243847D02*
X109751503Y-56196228D01*
X109751503Y-56196228D02*
X109561027Y-56148609D01*
X109561027Y-56148609D02*
X109465789Y-56100990D01*
X109465789Y-56100990D02*
X109418170Y-56053371D01*
X109418170Y-56053371D02*
X109370551Y-55958133D01*
X109370551Y-55958133D02*
X109370551Y-55862895D01*
X109370551Y-55862895D02*
X109418170Y-55767657D01*
X109418170Y-55767657D02*
X109465789Y-55720038D01*
X109465789Y-55720038D02*
X109561027Y-55672419D01*
X109561027Y-55672419D02*
X109799122Y-55672419D01*
X109799122Y-55672419D02*
X109941979Y-55720038D01*
X110561027Y-56196228D02*
X110561027Y-56672419D01*
X110227694Y-55672419D02*
X110561027Y-56196228D01*
X110561027Y-56196228D02*
X110894360Y-55672419D01*
X117561027Y-50672419D02*
X118132455Y-50672419D01*
X117846741Y-51672419D02*
X117846741Y-50672419D01*
X118418170Y-51624800D02*
X118561027Y-51672419D01*
X118561027Y-51672419D02*
X118799122Y-51672419D01*
X118799122Y-51672419D02*
X118894360Y-51624800D01*
X118894360Y-51624800D02*
X118941979Y-51577180D01*
X118941979Y-51577180D02*
X118989598Y-51481942D01*
X118989598Y-51481942D02*
X118989598Y-51386704D01*
X118989598Y-51386704D02*
X118941979Y-51291466D01*
X118941979Y-51291466D02*
X118894360Y-51243847D01*
X118894360Y-51243847D02*
X118799122Y-51196228D01*
X118799122Y-51196228D02*
X118608646Y-51148609D01*
X118608646Y-51148609D02*
X118513408Y-51100990D01*
X118513408Y-51100990D02*
X118465789Y-51053371D01*
X118465789Y-51053371D02*
X118418170Y-50958133D01*
X118418170Y-50958133D02*
X118418170Y-50862895D01*
X118418170Y-50862895D02*
X118465789Y-50767657D01*
X118465789Y-50767657D02*
X118513408Y-50720038D01*
X118513408Y-50720038D02*
X118608646Y-50672419D01*
X118608646Y-50672419D02*
X118846741Y-50672419D01*
X118846741Y-50672419D02*
X118989598Y-50720038D01*
X119989598Y-51577180D02*
X119941979Y-51624800D01*
X119941979Y-51624800D02*
X119799122Y-51672419D01*
X119799122Y-51672419D02*
X119703884Y-51672419D01*
X119703884Y-51672419D02*
X119561027Y-51624800D01*
X119561027Y-51624800D02*
X119465789Y-51529561D01*
X119465789Y-51529561D02*
X119418170Y-51434323D01*
X119418170Y-51434323D02*
X119370551Y-51243847D01*
X119370551Y-51243847D02*
X119370551Y-51100990D01*
X119370551Y-51100990D02*
X119418170Y-50910514D01*
X119418170Y-50910514D02*
X119465789Y-50815276D01*
X119465789Y-50815276D02*
X119561027Y-50720038D01*
X119561027Y-50720038D02*
X119703884Y-50672419D01*
X119703884Y-50672419D02*
X119799122Y-50672419D01*
X119799122Y-50672419D02*
X119941979Y-50720038D01*
X119941979Y-50720038D02*
X119989598Y-50767657D01*
X120894360Y-51672419D02*
X120418170Y-51672419D01*
X120418170Y-51672419D02*
X120418170Y-50672419D01*
X117837217Y-53748609D02*
X117980074Y-53796228D01*
X117980074Y-53796228D02*
X118027693Y-53843847D01*
X118027693Y-53843847D02*
X118075312Y-53939085D01*
X118075312Y-53939085D02*
X118075312Y-54081942D01*
X118075312Y-54081942D02*
X118027693Y-54177180D01*
X118027693Y-54177180D02*
X117980074Y-54224800D01*
X117980074Y-54224800D02*
X117884836Y-54272419D01*
X117884836Y-54272419D02*
X117503884Y-54272419D01*
X117503884Y-54272419D02*
X117503884Y-53272419D01*
X117503884Y-53272419D02*
X117837217Y-53272419D01*
X117837217Y-53272419D02*
X117932455Y-53320038D01*
X117932455Y-53320038D02*
X117980074Y-53367657D01*
X117980074Y-53367657D02*
X118027693Y-53462895D01*
X118027693Y-53462895D02*
X118027693Y-53558133D01*
X118027693Y-53558133D02*
X117980074Y-53653371D01*
X117980074Y-53653371D02*
X117932455Y-53700990D01*
X117932455Y-53700990D02*
X117837217Y-53748609D01*
X117837217Y-53748609D02*
X117503884Y-53748609D01*
X118456265Y-54224800D02*
X118599122Y-54272419D01*
X118599122Y-54272419D02*
X118837217Y-54272419D01*
X118837217Y-54272419D02*
X118932455Y-54224800D01*
X118932455Y-54224800D02*
X118980074Y-54177180D01*
X118980074Y-54177180D02*
X119027693Y-54081942D01*
X119027693Y-54081942D02*
X119027693Y-53986704D01*
X119027693Y-53986704D02*
X118980074Y-53891466D01*
X118980074Y-53891466D02*
X118932455Y-53843847D01*
X118932455Y-53843847D02*
X118837217Y-53796228D01*
X118837217Y-53796228D02*
X118646741Y-53748609D01*
X118646741Y-53748609D02*
X118551503Y-53700990D01*
X118551503Y-53700990D02*
X118503884Y-53653371D01*
X118503884Y-53653371D02*
X118456265Y-53558133D01*
X118456265Y-53558133D02*
X118456265Y-53462895D01*
X118456265Y-53462895D02*
X118503884Y-53367657D01*
X118503884Y-53367657D02*
X118551503Y-53320038D01*
X118551503Y-53320038D02*
X118646741Y-53272419D01*
X118646741Y-53272419D02*
X118884836Y-53272419D01*
X118884836Y-53272419D02*
X119027693Y-53320038D01*
X105103884Y-46472419D02*
X105103884Y-45472419D01*
X105103884Y-45948609D02*
X105675312Y-45948609D01*
X105675312Y-46472419D02*
X105675312Y-45472419D01*
X106627693Y-46472419D02*
X106151503Y-46472419D01*
X106151503Y-46472419D02*
X106151503Y-45472419D01*
X106818170Y-45472419D02*
X107389598Y-45472419D01*
X107103884Y-46472419D02*
X107103884Y-45472419D01*
X107484837Y-46567657D02*
X108246741Y-46567657D01*
X109056265Y-46377180D02*
X109008646Y-46424800D01*
X109008646Y-46424800D02*
X108865789Y-46472419D01*
X108865789Y-46472419D02*
X108770551Y-46472419D01*
X108770551Y-46472419D02*
X108627694Y-46424800D01*
X108627694Y-46424800D02*
X108532456Y-46329561D01*
X108532456Y-46329561D02*
X108484837Y-46234323D01*
X108484837Y-46234323D02*
X108437218Y-46043847D01*
X108437218Y-46043847D02*
X108437218Y-45900990D01*
X108437218Y-45900990D02*
X108484837Y-45710514D01*
X108484837Y-45710514D02*
X108532456Y-45615276D01*
X108532456Y-45615276D02*
X108627694Y-45520038D01*
X108627694Y-45520038D02*
X108770551Y-45472419D01*
X108770551Y-45472419D02*
X108865789Y-45472419D01*
X108865789Y-45472419D02*
X109008646Y-45520038D01*
X109008646Y-45520038D02*
X109056265Y-45567657D01*
X109341980Y-45472419D02*
X109913408Y-45472419D01*
X109627694Y-46472419D02*
X109627694Y-45472419D01*
X110722932Y-46472419D02*
X110246742Y-46472419D01*
X110246742Y-46472419D02*
X110246742Y-45472419D01*
X108827693Y-65920038D02*
X108732455Y-65872419D01*
X108732455Y-65872419D02*
X108589598Y-65872419D01*
X108589598Y-65872419D02*
X108446741Y-65920038D01*
X108446741Y-65920038D02*
X108351503Y-66015276D01*
X108351503Y-66015276D02*
X108303884Y-66110514D01*
X108303884Y-66110514D02*
X108256265Y-66300990D01*
X108256265Y-66300990D02*
X108256265Y-66443847D01*
X108256265Y-66443847D02*
X108303884Y-66634323D01*
X108303884Y-66634323D02*
X108351503Y-66729561D01*
X108351503Y-66729561D02*
X108446741Y-66824800D01*
X108446741Y-66824800D02*
X108589598Y-66872419D01*
X108589598Y-66872419D02*
X108684836Y-66872419D01*
X108684836Y-66872419D02*
X108827693Y-66824800D01*
X108827693Y-66824800D02*
X108875312Y-66777180D01*
X108875312Y-66777180D02*
X108875312Y-66443847D01*
X108875312Y-66443847D02*
X108684836Y-66443847D01*
X109303884Y-66872419D02*
X109303884Y-65872419D01*
X109303884Y-65872419D02*
X109875312Y-66872419D01*
X109875312Y-66872419D02*
X109875312Y-65872419D01*
X110351503Y-66872419D02*
X110351503Y-65872419D01*
X110351503Y-65872419D02*
X110589598Y-65872419D01*
X110589598Y-65872419D02*
X110732455Y-65920038D01*
X110732455Y-65920038D02*
X110827693Y-66015276D01*
X110827693Y-66015276D02*
X110875312Y-66110514D01*
X110875312Y-66110514D02*
X110922931Y-66300990D01*
X110922931Y-66300990D02*
X110922931Y-66443847D01*
X110922931Y-66443847D02*
X110875312Y-66634323D01*
X110875312Y-66634323D02*
X110827693Y-66729561D01*
X110827693Y-66729561D02*
X110732455Y-66824800D01*
X110732455Y-66824800D02*
X110589598Y-66872419D01*
X110589598Y-66872419D02*
X110351503Y-66872419D01*
X108361027Y-68472419D02*
X108694360Y-69472419D01*
X108694360Y-69472419D02*
X109027693Y-68472419D01*
X109361027Y-69472419D02*
X109361027Y-68472419D01*
X109361027Y-68472419D02*
X109741979Y-68472419D01*
X109741979Y-68472419D02*
X109837217Y-68520038D01*
X109837217Y-68520038D02*
X109884836Y-68567657D01*
X109884836Y-68567657D02*
X109932455Y-68662895D01*
X109932455Y-68662895D02*
X109932455Y-68805752D01*
X109932455Y-68805752D02*
X109884836Y-68900990D01*
X109884836Y-68900990D02*
X109837217Y-68948609D01*
X109837217Y-68948609D02*
X109741979Y-68996228D01*
X109741979Y-68996228D02*
X109361027Y-68996228D01*
X110361027Y-69472419D02*
X110361027Y-68472419D01*
X110361027Y-68472419D02*
X110741979Y-68472419D01*
X110741979Y-68472419D02*
X110837217Y-68520038D01*
X110837217Y-68520038D02*
X110884836Y-68567657D01*
X110884836Y-68567657D02*
X110932455Y-68662895D01*
X110932455Y-68662895D02*
X110932455Y-68805752D01*
X110932455Y-68805752D02*
X110884836Y-68900990D01*
X110884836Y-68900990D02*
X110837217Y-68948609D01*
X110837217Y-68948609D02*
X110741979Y-68996228D01*
X110741979Y-68996228D02*
X110361027Y-68996228D01*
X118227693Y-45520038D02*
X118132455Y-45472419D01*
X118132455Y-45472419D02*
X117989598Y-45472419D01*
X117989598Y-45472419D02*
X117846741Y-45520038D01*
X117846741Y-45520038D02*
X117751503Y-45615276D01*
X117751503Y-45615276D02*
X117703884Y-45710514D01*
X117703884Y-45710514D02*
X117656265Y-45900990D01*
X117656265Y-45900990D02*
X117656265Y-46043847D01*
X117656265Y-46043847D02*
X117703884Y-46234323D01*
X117703884Y-46234323D02*
X117751503Y-46329561D01*
X117751503Y-46329561D02*
X117846741Y-46424800D01*
X117846741Y-46424800D02*
X117989598Y-46472419D01*
X117989598Y-46472419D02*
X118084836Y-46472419D01*
X118084836Y-46472419D02*
X118227693Y-46424800D01*
X118227693Y-46424800D02*
X118275312Y-46377180D01*
X118275312Y-46377180D02*
X118275312Y-46043847D01*
X118275312Y-46043847D02*
X118084836Y-46043847D01*
X118703884Y-46472419D02*
X118703884Y-45472419D01*
X118703884Y-45472419D02*
X118941979Y-45472419D01*
X118941979Y-45472419D02*
X119084836Y-45520038D01*
X119084836Y-45520038D02*
X119180074Y-45615276D01*
X119180074Y-45615276D02*
X119227693Y-45710514D01*
X119227693Y-45710514D02*
X119275312Y-45900990D01*
X119275312Y-45900990D02*
X119275312Y-46043847D01*
X119275312Y-46043847D02*
X119227693Y-46234323D01*
X119227693Y-46234323D02*
X119180074Y-46329561D01*
X119180074Y-46329561D02*
X119084836Y-46424800D01*
X119084836Y-46424800D02*
X118941979Y-46472419D01*
X118941979Y-46472419D02*
X118703884Y-46472419D01*
X120275312Y-46472419D02*
X119941979Y-45996228D01*
X119703884Y-46472419D02*
X119703884Y-45472419D01*
X119703884Y-45472419D02*
X120084836Y-45472419D01*
X120084836Y-45472419D02*
X120180074Y-45520038D01*
X120180074Y-45520038D02*
X120227693Y-45567657D01*
X120227693Y-45567657D02*
X120275312Y-45662895D01*
X120275312Y-45662895D02*
X120275312Y-45805752D01*
X120275312Y-45805752D02*
X120227693Y-45900990D01*
X120227693Y-45900990D02*
X120180074Y-45948609D01*
X120180074Y-45948609D02*
X120084836Y-45996228D01*
X120084836Y-45996228D02*
X119703884Y-45996228D01*
X117561027Y-65872419D02*
X117894360Y-66872419D01*
X117894360Y-66872419D02*
X118227693Y-65872419D01*
X118561027Y-66872419D02*
X118561027Y-65872419D01*
X118561027Y-65872419D02*
X118799122Y-65872419D01*
X118799122Y-65872419D02*
X118941979Y-65920038D01*
X118941979Y-65920038D02*
X119037217Y-66015276D01*
X119037217Y-66015276D02*
X119084836Y-66110514D01*
X119084836Y-66110514D02*
X119132455Y-66300990D01*
X119132455Y-66300990D02*
X119132455Y-66443847D01*
X119132455Y-66443847D02*
X119084836Y-66634323D01*
X119084836Y-66634323D02*
X119037217Y-66729561D01*
X119037217Y-66729561D02*
X118941979Y-66824800D01*
X118941979Y-66824800D02*
X118799122Y-66872419D01*
X118799122Y-66872419D02*
X118561027Y-66872419D01*
X119561027Y-66872419D02*
X119561027Y-65872419D01*
X119561027Y-65872419D02*
X119799122Y-65872419D01*
X119799122Y-65872419D02*
X119941979Y-65920038D01*
X119941979Y-65920038D02*
X120037217Y-66015276D01*
X120037217Y-66015276D02*
X120084836Y-66110514D01*
X120084836Y-66110514D02*
X120132455Y-66300990D01*
X120132455Y-66300990D02*
X120132455Y-66443847D01*
X120132455Y-66443847D02*
X120084836Y-66634323D01*
X120084836Y-66634323D02*
X120037217Y-66729561D01*
X120037217Y-66729561D02*
X119941979Y-66824800D01*
X119941979Y-66824800D02*
X119799122Y-66872419D01*
X119799122Y-66872419D02*
X119561027Y-66872419D01*
X108161027Y-50672419D02*
X108494360Y-51672419D01*
X108494360Y-51672419D02*
X108827693Y-50672419D01*
X109684836Y-50720038D02*
X109589598Y-50672419D01*
X109589598Y-50672419D02*
X109446741Y-50672419D01*
X109446741Y-50672419D02*
X109303884Y-50720038D01*
X109303884Y-50720038D02*
X109208646Y-50815276D01*
X109208646Y-50815276D02*
X109161027Y-50910514D01*
X109161027Y-50910514D02*
X109113408Y-51100990D01*
X109113408Y-51100990D02*
X109113408Y-51243847D01*
X109113408Y-51243847D02*
X109161027Y-51434323D01*
X109161027Y-51434323D02*
X109208646Y-51529561D01*
X109208646Y-51529561D02*
X109303884Y-51624800D01*
X109303884Y-51624800D02*
X109446741Y-51672419D01*
X109446741Y-51672419D02*
X109541979Y-51672419D01*
X109541979Y-51672419D02*
X109684836Y-51624800D01*
X109684836Y-51624800D02*
X109732455Y-51577180D01*
X109732455Y-51577180D02*
X109732455Y-51243847D01*
X109732455Y-51243847D02*
X109541979Y-51243847D01*
X110161027Y-51672419D02*
X110161027Y-50672419D01*
X110161027Y-51148609D02*
X110732455Y-51148609D01*
X110732455Y-51672419D02*
X110732455Y-50672419D01*
X117570550Y-55577180D02*
X118427693Y-56862895D01*
X118570551Y-56148609D02*
X118903884Y-56148609D01*
X119046741Y-56672419D02*
X118570551Y-56672419D01*
X118570551Y-56672419D02*
X118570551Y-55672419D01*
X118570551Y-55672419D02*
X119046741Y-55672419D01*
X119475313Y-56672419D02*
X119475313Y-55672419D01*
X119475313Y-55672419D02*
X119856265Y-55672419D01*
X119856265Y-55672419D02*
X119951503Y-55720038D01*
X119951503Y-55720038D02*
X119999122Y-55767657D01*
X119999122Y-55767657D02*
X120046741Y-55862895D01*
X120046741Y-55862895D02*
X120046741Y-56005752D01*
X120046741Y-56005752D02*
X119999122Y-56100990D01*
X119999122Y-56100990D02*
X119951503Y-56148609D01*
X119951503Y-56148609D02*
X119856265Y-56196228D01*
X119856265Y-56196228D02*
X119475313Y-56196228D01*
X120475313Y-56672419D02*
X120475313Y-55672419D01*
X120475313Y-55672419D02*
X120713408Y-55672419D01*
X120713408Y-55672419D02*
X120856265Y-55720038D01*
X120856265Y-55720038D02*
X120951503Y-55815276D01*
X120951503Y-55815276D02*
X120999122Y-55910514D01*
X120999122Y-55910514D02*
X121046741Y-56100990D01*
X121046741Y-56100990D02*
X121046741Y-56243847D01*
X121046741Y-56243847D02*
X120999122Y-56434323D01*
X120999122Y-56434323D02*
X120951503Y-56529561D01*
X120951503Y-56529561D02*
X120856265Y-56624800D01*
X120856265Y-56624800D02*
X120713408Y-56672419D01*
X120713408Y-56672419D02*
X120475313Y-56672419D01*
X121237218Y-56767657D02*
X121999122Y-56767657D01*
X122808646Y-56672419D02*
X122475313Y-56196228D01*
X122237218Y-56672419D02*
X122237218Y-55672419D01*
X122237218Y-55672419D02*
X122618170Y-55672419D01*
X122618170Y-55672419D02*
X122713408Y-55720038D01*
X122713408Y-55720038D02*
X122761027Y-55767657D01*
X122761027Y-55767657D02*
X122808646Y-55862895D01*
X122808646Y-55862895D02*
X122808646Y-56005752D01*
X122808646Y-56005752D02*
X122761027Y-56100990D01*
X122761027Y-56100990D02*
X122713408Y-56148609D01*
X122713408Y-56148609D02*
X122618170Y-56196228D01*
X122618170Y-56196228D02*
X122237218Y-56196228D01*
X123189599Y-56624800D02*
X123332456Y-56672419D01*
X123332456Y-56672419D02*
X123570551Y-56672419D01*
X123570551Y-56672419D02*
X123665789Y-56624800D01*
X123665789Y-56624800D02*
X123713408Y-56577180D01*
X123713408Y-56577180D02*
X123761027Y-56481942D01*
X123761027Y-56481942D02*
X123761027Y-56386704D01*
X123761027Y-56386704D02*
X123713408Y-56291466D01*
X123713408Y-56291466D02*
X123665789Y-56243847D01*
X123665789Y-56243847D02*
X123570551Y-56196228D01*
X123570551Y-56196228D02*
X123380075Y-56148609D01*
X123380075Y-56148609D02*
X123284837Y-56100990D01*
X123284837Y-56100990D02*
X123237218Y-56053371D01*
X123237218Y-56053371D02*
X123189599Y-55958133D01*
X123189599Y-55958133D02*
X123189599Y-55862895D01*
X123189599Y-55862895D02*
X123237218Y-55767657D01*
X123237218Y-55767657D02*
X123284837Y-55720038D01*
X123284837Y-55720038D02*
X123380075Y-55672419D01*
X123380075Y-55672419D02*
X123618170Y-55672419D01*
X123618170Y-55672419D02*
X123761027Y-55720038D01*
X124046742Y-55672419D02*
X124618170Y-55672419D01*
X124332456Y-56672419D02*
X124332456Y-55672419D01*
D12*
X179744352Y-46666666D02*
X179763400Y-46685714D01*
X179763400Y-46685714D02*
X179782447Y-46742856D01*
X179782447Y-46742856D02*
X179782447Y-46780952D01*
X179782447Y-46780952D02*
X179763400Y-46838095D01*
X179763400Y-46838095D02*
X179725304Y-46876190D01*
X179725304Y-46876190D02*
X179687209Y-46895237D01*
X179687209Y-46895237D02*
X179611019Y-46914285D01*
X179611019Y-46914285D02*
X179553876Y-46914285D01*
X179553876Y-46914285D02*
X179477685Y-46895237D01*
X179477685Y-46895237D02*
X179439590Y-46876190D01*
X179439590Y-46876190D02*
X179401495Y-46838095D01*
X179401495Y-46838095D02*
X179382447Y-46780952D01*
X179382447Y-46780952D02*
X179382447Y-46742856D01*
X179382447Y-46742856D02*
X179401495Y-46685714D01*
X179401495Y-46685714D02*
X179420542Y-46666666D01*
X179382447Y-46533333D02*
X179382447Y-46266666D01*
X179382447Y-46266666D02*
X179782447Y-46438095D01*
D13*
X188216666Y-74428059D02*
X188050000Y-74189964D01*
X187930952Y-74428059D02*
X187930952Y-73928059D01*
X187930952Y-73928059D02*
X188121428Y-73928059D01*
X188121428Y-73928059D02*
X188169047Y-73951869D01*
X188169047Y-73951869D02*
X188192857Y-73975678D01*
X188192857Y-73975678D02*
X188216666Y-74023297D01*
X188216666Y-74023297D02*
X188216666Y-74094726D01*
X188216666Y-74094726D02*
X188192857Y-74142345D01*
X188192857Y-74142345D02*
X188169047Y-74166154D01*
X188169047Y-74166154D02*
X188121428Y-74189964D01*
X188121428Y-74189964D02*
X187930952Y-74189964D01*
X188645238Y-73928059D02*
X188550000Y-73928059D01*
X188550000Y-73928059D02*
X188502381Y-73951869D01*
X188502381Y-73951869D02*
X188478571Y-73975678D01*
X188478571Y-73975678D02*
X188430952Y-74047107D01*
X188430952Y-74047107D02*
X188407143Y-74142345D01*
X188407143Y-74142345D02*
X188407143Y-74332821D01*
X188407143Y-74332821D02*
X188430952Y-74380440D01*
X188430952Y-74380440D02*
X188454762Y-74404250D01*
X188454762Y-74404250D02*
X188502381Y-74428059D01*
X188502381Y-74428059D02*
X188597619Y-74428059D01*
X188597619Y-74428059D02*
X188645238Y-74404250D01*
X188645238Y-74404250D02*
X188669047Y-74380440D01*
X188669047Y-74380440D02*
X188692857Y-74332821D01*
X188692857Y-74332821D02*
X188692857Y-74213773D01*
X188692857Y-74213773D02*
X188669047Y-74166154D01*
X188669047Y-74166154D02*
X188645238Y-74142345D01*
X188645238Y-74142345D02*
X188597619Y-74118535D01*
X188597619Y-74118535D02*
X188502381Y-74118535D01*
X188502381Y-74118535D02*
X188454762Y-74142345D01*
X188454762Y-74142345D02*
X188430952Y-74166154D01*
X188430952Y-74166154D02*
X188407143Y-74213773D01*
D14*
X167088375Y-68441080D02*
X166438375Y-68441080D01*
X166438375Y-68441080D02*
X166438375Y-68286318D01*
X166438375Y-68286318D02*
X166469327Y-68193461D01*
X166469327Y-68193461D02*
X166531232Y-68131556D01*
X166531232Y-68131556D02*
X166593137Y-68100603D01*
X166593137Y-68100603D02*
X166716946Y-68069651D01*
X166716946Y-68069651D02*
X166809803Y-68069651D01*
X166809803Y-68069651D02*
X166933613Y-68100603D01*
X166933613Y-68100603D02*
X166995518Y-68131556D01*
X166995518Y-68131556D02*
X167057423Y-68193461D01*
X167057423Y-68193461D02*
X167088375Y-68286318D01*
X167088375Y-68286318D02*
X167088375Y-68441080D01*
X166500280Y-67822032D02*
X166469327Y-67791080D01*
X166469327Y-67791080D02*
X166438375Y-67729175D01*
X166438375Y-67729175D02*
X166438375Y-67574413D01*
X166438375Y-67574413D02*
X166469327Y-67512508D01*
X166469327Y-67512508D02*
X166500280Y-67481556D01*
X166500280Y-67481556D02*
X166562184Y-67450603D01*
X166562184Y-67450603D02*
X166624089Y-67450603D01*
X166624089Y-67450603D02*
X166716946Y-67481556D01*
X166716946Y-67481556D02*
X167088375Y-67852984D01*
X167088375Y-67852984D02*
X167088375Y-67450603D01*
D13*
X163316666Y-67628059D02*
X163150000Y-67389964D01*
X163030952Y-67628059D02*
X163030952Y-67128059D01*
X163030952Y-67128059D02*
X163221428Y-67128059D01*
X163221428Y-67128059D02*
X163269047Y-67151869D01*
X163269047Y-67151869D02*
X163292857Y-67175678D01*
X163292857Y-67175678D02*
X163316666Y-67223297D01*
X163316666Y-67223297D02*
X163316666Y-67294726D01*
X163316666Y-67294726D02*
X163292857Y-67342345D01*
X163292857Y-67342345D02*
X163269047Y-67366154D01*
X163269047Y-67366154D02*
X163221428Y-67389964D01*
X163221428Y-67389964D02*
X163030952Y-67389964D01*
X163483333Y-67128059D02*
X163792857Y-67128059D01*
X163792857Y-67128059D02*
X163626190Y-67318535D01*
X163626190Y-67318535D02*
X163697619Y-67318535D01*
X163697619Y-67318535D02*
X163745238Y-67342345D01*
X163745238Y-67342345D02*
X163769047Y-67366154D01*
X163769047Y-67366154D02*
X163792857Y-67413773D01*
X163792857Y-67413773D02*
X163792857Y-67532821D01*
X163792857Y-67532821D02*
X163769047Y-67580440D01*
X163769047Y-67580440D02*
X163745238Y-67604250D01*
X163745238Y-67604250D02*
X163697619Y-67628059D01*
X163697619Y-67628059D02*
X163554762Y-67628059D01*
X163554762Y-67628059D02*
X163507143Y-67604250D01*
X163507143Y-67604250D02*
X163483333Y-67580440D01*
X185778571Y-55728059D02*
X185611905Y-55489964D01*
X185492857Y-55728059D02*
X185492857Y-55228059D01*
X185492857Y-55228059D02*
X185683333Y-55228059D01*
X185683333Y-55228059D02*
X185730952Y-55251869D01*
X185730952Y-55251869D02*
X185754762Y-55275678D01*
X185754762Y-55275678D02*
X185778571Y-55323297D01*
X185778571Y-55323297D02*
X185778571Y-55394726D01*
X185778571Y-55394726D02*
X185754762Y-55442345D01*
X185754762Y-55442345D02*
X185730952Y-55466154D01*
X185730952Y-55466154D02*
X185683333Y-55489964D01*
X185683333Y-55489964D02*
X185492857Y-55489964D01*
X186254762Y-55728059D02*
X185969048Y-55728059D01*
X186111905Y-55728059D02*
X186111905Y-55228059D01*
X186111905Y-55228059D02*
X186064286Y-55299488D01*
X186064286Y-55299488D02*
X186016667Y-55347107D01*
X186016667Y-55347107D02*
X185969048Y-55370916D01*
X186730952Y-55728059D02*
X186445238Y-55728059D01*
X186588095Y-55728059D02*
X186588095Y-55228059D01*
X186588095Y-55228059D02*
X186540476Y-55299488D01*
X186540476Y-55299488D02*
X186492857Y-55347107D01*
X186492857Y-55347107D02*
X186445238Y-55370916D01*
D15*
X150531150Y-67490907D02*
X150512102Y-67509955D01*
X150512102Y-67509955D02*
X150454960Y-67529002D01*
X150454960Y-67529002D02*
X150416864Y-67529002D01*
X150416864Y-67529002D02*
X150359721Y-67509955D01*
X150359721Y-67509955D02*
X150321626Y-67471859D01*
X150321626Y-67471859D02*
X150302579Y-67433764D01*
X150302579Y-67433764D02*
X150283531Y-67357574D01*
X150283531Y-67357574D02*
X150283531Y-67300431D01*
X150283531Y-67300431D02*
X150302579Y-67224240D01*
X150302579Y-67224240D02*
X150321626Y-67186145D01*
X150321626Y-67186145D02*
X150359721Y-67148050D01*
X150359721Y-67148050D02*
X150416864Y-67129002D01*
X150416864Y-67129002D02*
X150454960Y-67129002D01*
X150454960Y-67129002D02*
X150512102Y-67148050D01*
X150512102Y-67148050D02*
X150531150Y-67167097D01*
X150912102Y-67529002D02*
X150683531Y-67529002D01*
X150797817Y-67529002D02*
X150797817Y-67129002D01*
X150797817Y-67129002D02*
X150759721Y-67186145D01*
X150759721Y-67186145D02*
X150721626Y-67224240D01*
X150721626Y-67224240D02*
X150683531Y-67243288D01*
X151159721Y-67129002D02*
X151197816Y-67129002D01*
X151197816Y-67129002D02*
X151235912Y-67148050D01*
X151235912Y-67148050D02*
X151254959Y-67167097D01*
X151254959Y-67167097D02*
X151274007Y-67205193D01*
X151274007Y-67205193D02*
X151293054Y-67281383D01*
X151293054Y-67281383D02*
X151293054Y-67376621D01*
X151293054Y-67376621D02*
X151274007Y-67452812D01*
X151274007Y-67452812D02*
X151254959Y-67490907D01*
X151254959Y-67490907D02*
X151235912Y-67509955D01*
X151235912Y-67509955D02*
X151197816Y-67529002D01*
X151197816Y-67529002D02*
X151159721Y-67529002D01*
X151159721Y-67529002D02*
X151121626Y-67509955D01*
X151121626Y-67509955D02*
X151102578Y-67490907D01*
X151102578Y-67490907D02*
X151083531Y-67452812D01*
X151083531Y-67452812D02*
X151064483Y-67376621D01*
X151064483Y-67376621D02*
X151064483Y-67281383D01*
X151064483Y-67281383D02*
X151083531Y-67205193D01*
X151083531Y-67205193D02*
X151102578Y-67167097D01*
X151102578Y-67167097D02*
X151121626Y-67148050D01*
X151121626Y-67148050D02*
X151159721Y-67129002D01*
D14*
X167086834Y-73312897D02*
X166436834Y-73312897D01*
X166436834Y-73312897D02*
X166436834Y-73158135D01*
X166436834Y-73158135D02*
X166467786Y-73065278D01*
X166467786Y-73065278D02*
X166529691Y-73003373D01*
X166529691Y-73003373D02*
X166591596Y-72972420D01*
X166591596Y-72972420D02*
X166715405Y-72941468D01*
X166715405Y-72941468D02*
X166808262Y-72941468D01*
X166808262Y-72941468D02*
X166932072Y-72972420D01*
X166932072Y-72972420D02*
X166993977Y-73003373D01*
X166993977Y-73003373D02*
X167055882Y-73065278D01*
X167055882Y-73065278D02*
X167086834Y-73158135D01*
X167086834Y-73158135D02*
X167086834Y-73312897D01*
X167086834Y-72322420D02*
X167086834Y-72693849D01*
X167086834Y-72508135D02*
X166436834Y-72508135D01*
X166436834Y-72508135D02*
X166529691Y-72570039D01*
X166529691Y-72570039D02*
X166591596Y-72631944D01*
X166591596Y-72631944D02*
X166622548Y-72693849D01*
D12*
X179744352Y-51666666D02*
X179763400Y-51685714D01*
X179763400Y-51685714D02*
X179782447Y-51742856D01*
X179782447Y-51742856D02*
X179782447Y-51780952D01*
X179782447Y-51780952D02*
X179763400Y-51838095D01*
X179763400Y-51838095D02*
X179725304Y-51876190D01*
X179725304Y-51876190D02*
X179687209Y-51895237D01*
X179687209Y-51895237D02*
X179611019Y-51914285D01*
X179611019Y-51914285D02*
X179553876Y-51914285D01*
X179553876Y-51914285D02*
X179477685Y-51895237D01*
X179477685Y-51895237D02*
X179439590Y-51876190D01*
X179439590Y-51876190D02*
X179401495Y-51838095D01*
X179401495Y-51838095D02*
X179382447Y-51780952D01*
X179382447Y-51780952D02*
X179382447Y-51742856D01*
X179382447Y-51742856D02*
X179401495Y-51685714D01*
X179401495Y-51685714D02*
X179420542Y-51666666D01*
X179782447Y-51476190D02*
X179782447Y-51399999D01*
X179782447Y-51399999D02*
X179763400Y-51361904D01*
X179763400Y-51361904D02*
X179744352Y-51342856D01*
X179744352Y-51342856D02*
X179687209Y-51304761D01*
X179687209Y-51304761D02*
X179611019Y-51285714D01*
X179611019Y-51285714D02*
X179458638Y-51285714D01*
X179458638Y-51285714D02*
X179420542Y-51304761D01*
X179420542Y-51304761D02*
X179401495Y-51323809D01*
X179401495Y-51323809D02*
X179382447Y-51361904D01*
X179382447Y-51361904D02*
X179382447Y-51438095D01*
X179382447Y-51438095D02*
X179401495Y-51476190D01*
X179401495Y-51476190D02*
X179420542Y-51495237D01*
X179420542Y-51495237D02*
X179458638Y-51514285D01*
X179458638Y-51514285D02*
X179553876Y-51514285D01*
X179553876Y-51514285D02*
X179591971Y-51495237D01*
X179591971Y-51495237D02*
X179611019Y-51476190D01*
X179611019Y-51476190D02*
X179630066Y-51438095D01*
X179630066Y-51438095D02*
X179630066Y-51361904D01*
X179630066Y-51361904D02*
X179611019Y-51323809D01*
X179611019Y-51323809D02*
X179591971Y-51304761D01*
X179591971Y-51304761D02*
X179553876Y-51285714D01*
D13*
X192028059Y-63921428D02*
X191789964Y-64088094D01*
X192028059Y-64207142D02*
X191528059Y-64207142D01*
X191528059Y-64207142D02*
X191528059Y-64016666D01*
X191528059Y-64016666D02*
X191551869Y-63969047D01*
X191551869Y-63969047D02*
X191575678Y-63945237D01*
X191575678Y-63945237D02*
X191623297Y-63921428D01*
X191623297Y-63921428D02*
X191694726Y-63921428D01*
X191694726Y-63921428D02*
X191742345Y-63945237D01*
X191742345Y-63945237D02*
X191766154Y-63969047D01*
X191766154Y-63969047D02*
X191789964Y-64016666D01*
X191789964Y-64016666D02*
X191789964Y-64207142D01*
X192028059Y-63445237D02*
X192028059Y-63730951D01*
X192028059Y-63588094D02*
X191528059Y-63588094D01*
X191528059Y-63588094D02*
X191599488Y-63635713D01*
X191599488Y-63635713D02*
X191647107Y-63683332D01*
X191647107Y-63683332D02*
X191670916Y-63730951D01*
X191528059Y-63135714D02*
X191528059Y-63088095D01*
X191528059Y-63088095D02*
X191551869Y-63040476D01*
X191551869Y-63040476D02*
X191575678Y-63016666D01*
X191575678Y-63016666D02*
X191623297Y-62992857D01*
X191623297Y-62992857D02*
X191718535Y-62969047D01*
X191718535Y-62969047D02*
X191837583Y-62969047D01*
X191837583Y-62969047D02*
X191932821Y-62992857D01*
X191932821Y-62992857D02*
X191980440Y-63016666D01*
X191980440Y-63016666D02*
X192004250Y-63040476D01*
X192004250Y-63040476D02*
X192028059Y-63088095D01*
X192028059Y-63088095D02*
X192028059Y-63135714D01*
X192028059Y-63135714D02*
X192004250Y-63183333D01*
X192004250Y-63183333D02*
X191980440Y-63207142D01*
X191980440Y-63207142D02*
X191932821Y-63230952D01*
X191932821Y-63230952D02*
X191837583Y-63254761D01*
X191837583Y-63254761D02*
X191718535Y-63254761D01*
X191718535Y-63254761D02*
X191623297Y-63230952D01*
X191623297Y-63230952D02*
X191575678Y-63207142D01*
X191575678Y-63207142D02*
X191551869Y-63183333D01*
X191551869Y-63183333D02*
X191528059Y-63135714D01*
X189916666Y-74428059D02*
X189750000Y-74189964D01*
X189630952Y-74428059D02*
X189630952Y-73928059D01*
X189630952Y-73928059D02*
X189821428Y-73928059D01*
X189821428Y-73928059D02*
X189869047Y-73951869D01*
X189869047Y-73951869D02*
X189892857Y-73975678D01*
X189892857Y-73975678D02*
X189916666Y-74023297D01*
X189916666Y-74023297D02*
X189916666Y-74094726D01*
X189916666Y-74094726D02*
X189892857Y-74142345D01*
X189892857Y-74142345D02*
X189869047Y-74166154D01*
X189869047Y-74166154D02*
X189821428Y-74189964D01*
X189821428Y-74189964D02*
X189630952Y-74189964D01*
X190083333Y-73928059D02*
X190416666Y-73928059D01*
X190416666Y-73928059D02*
X190202381Y-74428059D01*
D12*
X180342857Y-67044352D02*
X180323809Y-67063400D01*
X180323809Y-67063400D02*
X180266667Y-67082447D01*
X180266667Y-67082447D02*
X180228571Y-67082447D01*
X180228571Y-67082447D02*
X180171428Y-67063400D01*
X180171428Y-67063400D02*
X180133333Y-67025304D01*
X180133333Y-67025304D02*
X180114286Y-66987209D01*
X180114286Y-66987209D02*
X180095238Y-66911019D01*
X180095238Y-66911019D02*
X180095238Y-66853876D01*
X180095238Y-66853876D02*
X180114286Y-66777685D01*
X180114286Y-66777685D02*
X180133333Y-66739590D01*
X180133333Y-66739590D02*
X180171428Y-66701495D01*
X180171428Y-66701495D02*
X180228571Y-66682447D01*
X180228571Y-66682447D02*
X180266667Y-66682447D01*
X180266667Y-66682447D02*
X180323809Y-66701495D01*
X180323809Y-66701495D02*
X180342857Y-66720542D01*
X180723809Y-67082447D02*
X180495238Y-67082447D01*
X180609524Y-67082447D02*
X180609524Y-66682447D01*
X180609524Y-66682447D02*
X180571428Y-66739590D01*
X180571428Y-66739590D02*
X180533333Y-66777685D01*
X180533333Y-66777685D02*
X180495238Y-66796733D01*
X180876190Y-66720542D02*
X180895238Y-66701495D01*
X180895238Y-66701495D02*
X180933333Y-66682447D01*
X180933333Y-66682447D02*
X181028571Y-66682447D01*
X181028571Y-66682447D02*
X181066666Y-66701495D01*
X181066666Y-66701495D02*
X181085714Y-66720542D01*
X181085714Y-66720542D02*
X181104761Y-66758638D01*
X181104761Y-66758638D02*
X181104761Y-66796733D01*
X181104761Y-66796733D02*
X181085714Y-66853876D01*
X181085714Y-66853876D02*
X180857142Y-67082447D01*
X180857142Y-67082447D02*
X181104761Y-67082447D01*
D14*
X167073863Y-70874328D02*
X166423863Y-70874328D01*
X166423863Y-70874328D02*
X166423863Y-70719566D01*
X166423863Y-70719566D02*
X166454815Y-70626709D01*
X166454815Y-70626709D02*
X166516720Y-70564804D01*
X166516720Y-70564804D02*
X166578625Y-70533851D01*
X166578625Y-70533851D02*
X166702434Y-70502899D01*
X166702434Y-70502899D02*
X166795291Y-70502899D01*
X166795291Y-70502899D02*
X166919101Y-70533851D01*
X166919101Y-70533851D02*
X166981006Y-70564804D01*
X166981006Y-70564804D02*
X167042911Y-70626709D01*
X167042911Y-70626709D02*
X167073863Y-70719566D01*
X167073863Y-70719566D02*
X167073863Y-70874328D01*
X166423863Y-70286232D02*
X166423863Y-69883851D01*
X166423863Y-69883851D02*
X166671482Y-70100518D01*
X166671482Y-70100518D02*
X166671482Y-70007661D01*
X166671482Y-70007661D02*
X166702434Y-69945756D01*
X166702434Y-69945756D02*
X166733387Y-69914804D01*
X166733387Y-69914804D02*
X166795291Y-69883851D01*
X166795291Y-69883851D02*
X166950053Y-69883851D01*
X166950053Y-69883851D02*
X167011958Y-69914804D01*
X167011958Y-69914804D02*
X167042911Y-69945756D01*
X167042911Y-69945756D02*
X167073863Y-70007661D01*
X167073863Y-70007661D02*
X167073863Y-70193375D01*
X167073863Y-70193375D02*
X167042911Y-70255280D01*
X167042911Y-70255280D02*
X167011958Y-70286232D01*
D13*
X185669047Y-47978059D02*
X185669047Y-48382821D01*
X185669047Y-48382821D02*
X185692857Y-48430440D01*
X185692857Y-48430440D02*
X185716666Y-48454250D01*
X185716666Y-48454250D02*
X185764285Y-48478059D01*
X185764285Y-48478059D02*
X185859523Y-48478059D01*
X185859523Y-48478059D02*
X185907142Y-48454250D01*
X185907142Y-48454250D02*
X185930952Y-48430440D01*
X185930952Y-48430440D02*
X185954761Y-48382821D01*
X185954761Y-48382821D02*
X185954761Y-47978059D01*
X186454762Y-48478059D02*
X186169048Y-48478059D01*
X186311905Y-48478059D02*
X186311905Y-47978059D01*
X186311905Y-47978059D02*
X186264286Y-48049488D01*
X186264286Y-48049488D02*
X186216667Y-48097107D01*
X186216667Y-48097107D02*
X186169048Y-48120916D01*
X193116666Y-74428059D02*
X192950000Y-74189964D01*
X192830952Y-74428059D02*
X192830952Y-73928059D01*
X192830952Y-73928059D02*
X193021428Y-73928059D01*
X193021428Y-73928059D02*
X193069047Y-73951869D01*
X193069047Y-73951869D02*
X193092857Y-73975678D01*
X193092857Y-73975678D02*
X193116666Y-74023297D01*
X193116666Y-74023297D02*
X193116666Y-74094726D01*
X193116666Y-74094726D02*
X193092857Y-74142345D01*
X193092857Y-74142345D02*
X193069047Y-74166154D01*
X193069047Y-74166154D02*
X193021428Y-74189964D01*
X193021428Y-74189964D02*
X192830952Y-74189964D01*
X193354762Y-74428059D02*
X193450000Y-74428059D01*
X193450000Y-74428059D02*
X193497619Y-74404250D01*
X193497619Y-74404250D02*
X193521428Y-74380440D01*
X193521428Y-74380440D02*
X193569047Y-74309011D01*
X193569047Y-74309011D02*
X193592857Y-74213773D01*
X193592857Y-74213773D02*
X193592857Y-74023297D01*
X193592857Y-74023297D02*
X193569047Y-73975678D01*
X193569047Y-73975678D02*
X193545238Y-73951869D01*
X193545238Y-73951869D02*
X193497619Y-73928059D01*
X193497619Y-73928059D02*
X193402381Y-73928059D01*
X193402381Y-73928059D02*
X193354762Y-73951869D01*
X193354762Y-73951869D02*
X193330952Y-73975678D01*
X193330952Y-73975678D02*
X193307143Y-74023297D01*
X193307143Y-74023297D02*
X193307143Y-74142345D01*
X193307143Y-74142345D02*
X193330952Y-74189964D01*
X193330952Y-74189964D02*
X193354762Y-74213773D01*
X193354762Y-74213773D02*
X193402381Y-74237583D01*
X193402381Y-74237583D02*
X193497619Y-74237583D01*
X193497619Y-74237583D02*
X193545238Y-74213773D01*
X193545238Y-74213773D02*
X193569047Y-74189964D01*
X193569047Y-74189964D02*
X193592857Y-74142345D01*
D12*
X166742857Y-53344352D02*
X166723809Y-53363400D01*
X166723809Y-53363400D02*
X166666667Y-53382447D01*
X166666667Y-53382447D02*
X166628571Y-53382447D01*
X166628571Y-53382447D02*
X166571428Y-53363400D01*
X166571428Y-53363400D02*
X166533333Y-53325304D01*
X166533333Y-53325304D02*
X166514286Y-53287209D01*
X166514286Y-53287209D02*
X166495238Y-53211019D01*
X166495238Y-53211019D02*
X166495238Y-53153876D01*
X166495238Y-53153876D02*
X166514286Y-53077685D01*
X166514286Y-53077685D02*
X166533333Y-53039590D01*
X166533333Y-53039590D02*
X166571428Y-53001495D01*
X166571428Y-53001495D02*
X166628571Y-52982447D01*
X166628571Y-52982447D02*
X166666667Y-52982447D01*
X166666667Y-52982447D02*
X166723809Y-53001495D01*
X166723809Y-53001495D02*
X166742857Y-53020542D01*
X167123809Y-53382447D02*
X166895238Y-53382447D01*
X167009524Y-53382447D02*
X167009524Y-52982447D01*
X167009524Y-52982447D02*
X166971428Y-53039590D01*
X166971428Y-53039590D02*
X166933333Y-53077685D01*
X166933333Y-53077685D02*
X166895238Y-53096733D01*
X167466666Y-53115780D02*
X167466666Y-53382447D01*
X167371428Y-52963400D02*
X167276190Y-53249114D01*
X167276190Y-53249114D02*
X167523809Y-53249114D01*
D14*
X191491666Y-74496477D02*
X191274999Y-74186953D01*
X191120237Y-74496477D02*
X191120237Y-73846477D01*
X191120237Y-73846477D02*
X191367856Y-73846477D01*
X191367856Y-73846477D02*
X191429761Y-73877429D01*
X191429761Y-73877429D02*
X191460714Y-73908382D01*
X191460714Y-73908382D02*
X191491666Y-73970286D01*
X191491666Y-73970286D02*
X191491666Y-74063144D01*
X191491666Y-74063144D02*
X191460714Y-74125048D01*
X191460714Y-74125048D02*
X191429761Y-74156001D01*
X191429761Y-74156001D02*
X191367856Y-74186953D01*
X191367856Y-74186953D02*
X191120237Y-74186953D01*
X191863095Y-74125048D02*
X191801190Y-74094096D01*
X191801190Y-74094096D02*
X191770237Y-74063144D01*
X191770237Y-74063144D02*
X191739285Y-74001239D01*
X191739285Y-74001239D02*
X191739285Y-73970286D01*
X191739285Y-73970286D02*
X191770237Y-73908382D01*
X191770237Y-73908382D02*
X191801190Y-73877429D01*
X191801190Y-73877429D02*
X191863095Y-73846477D01*
X191863095Y-73846477D02*
X191986904Y-73846477D01*
X191986904Y-73846477D02*
X192048809Y-73877429D01*
X192048809Y-73877429D02*
X192079761Y-73908382D01*
X192079761Y-73908382D02*
X192110714Y-73970286D01*
X192110714Y-73970286D02*
X192110714Y-74001239D01*
X192110714Y-74001239D02*
X192079761Y-74063144D01*
X192079761Y-74063144D02*
X192048809Y-74094096D01*
X192048809Y-74094096D02*
X191986904Y-74125048D01*
X191986904Y-74125048D02*
X191863095Y-74125048D01*
X191863095Y-74125048D02*
X191801190Y-74156001D01*
X191801190Y-74156001D02*
X191770237Y-74186953D01*
X191770237Y-74186953D02*
X191739285Y-74248858D01*
X191739285Y-74248858D02*
X191739285Y-74372667D01*
X191739285Y-74372667D02*
X191770237Y-74434572D01*
X191770237Y-74434572D02*
X191801190Y-74465525D01*
X191801190Y-74465525D02*
X191863095Y-74496477D01*
X191863095Y-74496477D02*
X191986904Y-74496477D01*
X191986904Y-74496477D02*
X192048809Y-74465525D01*
X192048809Y-74465525D02*
X192079761Y-74434572D01*
X192079761Y-74434572D02*
X192110714Y-74372667D01*
X192110714Y-74372667D02*
X192110714Y-74248858D01*
X192110714Y-74248858D02*
X192079761Y-74186953D01*
X192079761Y-74186953D02*
X192048809Y-74156001D01*
X192048809Y-74156001D02*
X191986904Y-74125048D01*
D12*
X154333333Y-67744352D02*
X154314285Y-67763400D01*
X154314285Y-67763400D02*
X154257143Y-67782447D01*
X154257143Y-67782447D02*
X154219047Y-67782447D01*
X154219047Y-67782447D02*
X154161904Y-67763400D01*
X154161904Y-67763400D02*
X154123809Y-67725304D01*
X154123809Y-67725304D02*
X154104762Y-67687209D01*
X154104762Y-67687209D02*
X154085714Y-67611019D01*
X154085714Y-67611019D02*
X154085714Y-67553876D01*
X154085714Y-67553876D02*
X154104762Y-67477685D01*
X154104762Y-67477685D02*
X154123809Y-67439590D01*
X154123809Y-67439590D02*
X154161904Y-67401495D01*
X154161904Y-67401495D02*
X154219047Y-67382447D01*
X154219047Y-67382447D02*
X154257143Y-67382447D01*
X154257143Y-67382447D02*
X154314285Y-67401495D01*
X154314285Y-67401495D02*
X154333333Y-67420542D01*
X154676190Y-67382447D02*
X154600000Y-67382447D01*
X154600000Y-67382447D02*
X154561904Y-67401495D01*
X154561904Y-67401495D02*
X154542857Y-67420542D01*
X154542857Y-67420542D02*
X154504762Y-67477685D01*
X154504762Y-67477685D02*
X154485714Y-67553876D01*
X154485714Y-67553876D02*
X154485714Y-67706257D01*
X154485714Y-67706257D02*
X154504762Y-67744352D01*
X154504762Y-67744352D02*
X154523809Y-67763400D01*
X154523809Y-67763400D02*
X154561904Y-67782447D01*
X154561904Y-67782447D02*
X154638095Y-67782447D01*
X154638095Y-67782447D02*
X154676190Y-67763400D01*
X154676190Y-67763400D02*
X154695238Y-67744352D01*
X154695238Y-67744352D02*
X154714285Y-67706257D01*
X154714285Y-67706257D02*
X154714285Y-67611019D01*
X154714285Y-67611019D02*
X154695238Y-67572923D01*
X154695238Y-67572923D02*
X154676190Y-67553876D01*
X154676190Y-67553876D02*
X154638095Y-67534828D01*
X154638095Y-67534828D02*
X154561904Y-67534828D01*
X154561904Y-67534828D02*
X154523809Y-67553876D01*
X154523809Y-67553876D02*
X154504762Y-67572923D01*
X154504762Y-67572923D02*
X154485714Y-67611019D01*
D13*
X171428059Y-64083333D02*
X171189964Y-64249999D01*
X171428059Y-64369047D02*
X170928059Y-64369047D01*
X170928059Y-64369047D02*
X170928059Y-64178571D01*
X170928059Y-64178571D02*
X170951869Y-64130952D01*
X170951869Y-64130952D02*
X170975678Y-64107142D01*
X170975678Y-64107142D02*
X171023297Y-64083333D01*
X171023297Y-64083333D02*
X171094726Y-64083333D01*
X171094726Y-64083333D02*
X171142345Y-64107142D01*
X171142345Y-64107142D02*
X171166154Y-64130952D01*
X171166154Y-64130952D02*
X171189964Y-64178571D01*
X171189964Y-64178571D02*
X171189964Y-64369047D01*
X171428059Y-63607142D02*
X171428059Y-63892856D01*
X171428059Y-63749999D02*
X170928059Y-63749999D01*
X170928059Y-63749999D02*
X170999488Y-63797618D01*
X170999488Y-63797618D02*
X171047107Y-63845237D01*
X171047107Y-63845237D02*
X171070916Y-63892856D01*
D12*
X192582447Y-60163333D02*
X192868161Y-60163333D01*
X192868161Y-60163333D02*
X192925304Y-60182380D01*
X192925304Y-60182380D02*
X192963400Y-60220476D01*
X192963400Y-60220476D02*
X192982447Y-60277618D01*
X192982447Y-60277618D02*
X192982447Y-60315714D01*
X192982447Y-59763333D02*
X192982447Y-59991904D01*
X192982447Y-59877618D02*
X192582447Y-59877618D01*
X192582447Y-59877618D02*
X192639590Y-59915714D01*
X192639590Y-59915714D02*
X192677685Y-59953809D01*
X192677685Y-59953809D02*
X192696733Y-59991904D01*
X156541330Y-67509762D02*
X156522282Y-67528810D01*
X156522282Y-67528810D02*
X156465140Y-67547857D01*
X156465140Y-67547857D02*
X156427044Y-67547857D01*
X156427044Y-67547857D02*
X156369901Y-67528810D01*
X156369901Y-67528810D02*
X156331806Y-67490714D01*
X156331806Y-67490714D02*
X156312759Y-67452619D01*
X156312759Y-67452619D02*
X156293711Y-67376429D01*
X156293711Y-67376429D02*
X156293711Y-67319286D01*
X156293711Y-67319286D02*
X156312759Y-67243095D01*
X156312759Y-67243095D02*
X156331806Y-67205000D01*
X156331806Y-67205000D02*
X156369901Y-67166905D01*
X156369901Y-67166905D02*
X156427044Y-67147857D01*
X156427044Y-67147857D02*
X156465140Y-67147857D01*
X156465140Y-67147857D02*
X156522282Y-67166905D01*
X156522282Y-67166905D02*
X156541330Y-67185952D01*
X156903235Y-67147857D02*
X156712759Y-67147857D01*
X156712759Y-67147857D02*
X156693711Y-67338333D01*
X156693711Y-67338333D02*
X156712759Y-67319286D01*
X156712759Y-67319286D02*
X156750854Y-67300238D01*
X156750854Y-67300238D02*
X156846092Y-67300238D01*
X156846092Y-67300238D02*
X156884187Y-67319286D01*
X156884187Y-67319286D02*
X156903235Y-67338333D01*
X156903235Y-67338333D02*
X156922282Y-67376429D01*
X156922282Y-67376429D02*
X156922282Y-67471667D01*
X156922282Y-67471667D02*
X156903235Y-67509762D01*
X156903235Y-67509762D02*
X156884187Y-67528810D01*
X156884187Y-67528810D02*
X156846092Y-67547857D01*
X156846092Y-67547857D02*
X156750854Y-67547857D01*
X156750854Y-67547857D02*
X156712759Y-67528810D01*
X156712759Y-67528810D02*
X156693711Y-67509762D01*
D16*
X113861666Y-43149819D02*
X113861666Y-43864104D01*
X113861666Y-43864104D02*
X113814047Y-44006961D01*
X113814047Y-44006961D02*
X113718809Y-44102200D01*
X113718809Y-44102200D02*
X113575952Y-44149819D01*
X113575952Y-44149819D02*
X113480714Y-44149819D01*
X114290238Y-43245057D02*
X114337857Y-43197438D01*
X114337857Y-43197438D02*
X114433095Y-43149819D01*
X114433095Y-43149819D02*
X114671190Y-43149819D01*
X114671190Y-43149819D02*
X114766428Y-43197438D01*
X114766428Y-43197438D02*
X114814047Y-43245057D01*
X114814047Y-43245057D02*
X114861666Y-43340295D01*
X114861666Y-43340295D02*
X114861666Y-43435533D01*
X114861666Y-43435533D02*
X114814047Y-43578390D01*
X114814047Y-43578390D02*
X114242619Y-44149819D01*
X114242619Y-44149819D02*
X114861666Y-44149819D01*
D13*
X180028059Y-63983333D02*
X179789964Y-64149999D01*
X180028059Y-64269047D02*
X179528059Y-64269047D01*
X179528059Y-64269047D02*
X179528059Y-64078571D01*
X179528059Y-64078571D02*
X179551869Y-64030952D01*
X179551869Y-64030952D02*
X179575678Y-64007142D01*
X179575678Y-64007142D02*
X179623297Y-63983333D01*
X179623297Y-63983333D02*
X179694726Y-63983333D01*
X179694726Y-63983333D02*
X179742345Y-64007142D01*
X179742345Y-64007142D02*
X179766154Y-64030952D01*
X179766154Y-64030952D02*
X179789964Y-64078571D01*
X179789964Y-64078571D02*
X179789964Y-64269047D01*
X179575678Y-63792856D02*
X179551869Y-63769047D01*
X179551869Y-63769047D02*
X179528059Y-63721428D01*
X179528059Y-63721428D02*
X179528059Y-63602380D01*
X179528059Y-63602380D02*
X179551869Y-63554761D01*
X179551869Y-63554761D02*
X179575678Y-63530952D01*
X179575678Y-63530952D02*
X179623297Y-63507142D01*
X179623297Y-63507142D02*
X179670916Y-63507142D01*
X179670916Y-63507142D02*
X179742345Y-63530952D01*
X179742345Y-63530952D02*
X180028059Y-63816666D01*
X180028059Y-63816666D02*
X180028059Y-63507142D01*
D12*
X160933333Y-67544352D02*
X160914285Y-67563400D01*
X160914285Y-67563400D02*
X160857143Y-67582447D01*
X160857143Y-67582447D02*
X160819047Y-67582447D01*
X160819047Y-67582447D02*
X160761904Y-67563400D01*
X160761904Y-67563400D02*
X160723809Y-67525304D01*
X160723809Y-67525304D02*
X160704762Y-67487209D01*
X160704762Y-67487209D02*
X160685714Y-67411019D01*
X160685714Y-67411019D02*
X160685714Y-67353876D01*
X160685714Y-67353876D02*
X160704762Y-67277685D01*
X160704762Y-67277685D02*
X160723809Y-67239590D01*
X160723809Y-67239590D02*
X160761904Y-67201495D01*
X160761904Y-67201495D02*
X160819047Y-67182447D01*
X160819047Y-67182447D02*
X160857143Y-67182447D01*
X160857143Y-67182447D02*
X160914285Y-67201495D01*
X160914285Y-67201495D02*
X160933333Y-67220542D01*
X161066666Y-67182447D02*
X161314285Y-67182447D01*
X161314285Y-67182447D02*
X161180952Y-67334828D01*
X161180952Y-67334828D02*
X161238095Y-67334828D01*
X161238095Y-67334828D02*
X161276190Y-67353876D01*
X161276190Y-67353876D02*
X161295238Y-67372923D01*
X161295238Y-67372923D02*
X161314285Y-67411019D01*
X161314285Y-67411019D02*
X161314285Y-67506257D01*
X161314285Y-67506257D02*
X161295238Y-67544352D01*
X161295238Y-67544352D02*
X161276190Y-67563400D01*
X161276190Y-67563400D02*
X161238095Y-67582447D01*
X161238095Y-67582447D02*
X161123809Y-67582447D01*
X161123809Y-67582447D02*
X161085714Y-67563400D01*
X161085714Y-67563400D02*
X161066666Y-67544352D01*
X158530233Y-67501114D02*
X158511185Y-67520162D01*
X158511185Y-67520162D02*
X158454043Y-67539209D01*
X158454043Y-67539209D02*
X158415947Y-67539209D01*
X158415947Y-67539209D02*
X158358804Y-67520162D01*
X158358804Y-67520162D02*
X158320709Y-67482066D01*
X158320709Y-67482066D02*
X158301662Y-67443971D01*
X158301662Y-67443971D02*
X158282614Y-67367781D01*
X158282614Y-67367781D02*
X158282614Y-67310638D01*
X158282614Y-67310638D02*
X158301662Y-67234447D01*
X158301662Y-67234447D02*
X158320709Y-67196352D01*
X158320709Y-67196352D02*
X158358804Y-67158257D01*
X158358804Y-67158257D02*
X158415947Y-67139209D01*
X158415947Y-67139209D02*
X158454043Y-67139209D01*
X158454043Y-67139209D02*
X158511185Y-67158257D01*
X158511185Y-67158257D02*
X158530233Y-67177304D01*
X158873090Y-67272542D02*
X158873090Y-67539209D01*
X158777852Y-67120162D02*
X158682614Y-67405876D01*
X158682614Y-67405876D02*
X158930233Y-67405876D01*
X179744352Y-49357142D02*
X179763400Y-49376190D01*
X179763400Y-49376190D02*
X179782447Y-49433332D01*
X179782447Y-49433332D02*
X179782447Y-49471428D01*
X179782447Y-49471428D02*
X179763400Y-49528571D01*
X179763400Y-49528571D02*
X179725304Y-49566666D01*
X179725304Y-49566666D02*
X179687209Y-49585713D01*
X179687209Y-49585713D02*
X179611019Y-49604761D01*
X179611019Y-49604761D02*
X179553876Y-49604761D01*
X179553876Y-49604761D02*
X179477685Y-49585713D01*
X179477685Y-49585713D02*
X179439590Y-49566666D01*
X179439590Y-49566666D02*
X179401495Y-49528571D01*
X179401495Y-49528571D02*
X179382447Y-49471428D01*
X179382447Y-49471428D02*
X179382447Y-49433332D01*
X179382447Y-49433332D02*
X179401495Y-49376190D01*
X179401495Y-49376190D02*
X179420542Y-49357142D01*
X179782447Y-48976190D02*
X179782447Y-49204761D01*
X179782447Y-49090475D02*
X179382447Y-49090475D01*
X179382447Y-49090475D02*
X179439590Y-49128571D01*
X179439590Y-49128571D02*
X179477685Y-49166666D01*
X179477685Y-49166666D02*
X179496733Y-49204761D01*
X179382447Y-48842857D02*
X179382447Y-48595238D01*
X179382447Y-48595238D02*
X179534828Y-48728571D01*
X179534828Y-48728571D02*
X179534828Y-48671428D01*
X179534828Y-48671428D02*
X179553876Y-48633333D01*
X179553876Y-48633333D02*
X179572923Y-48614285D01*
X179572923Y-48614285D02*
X179611019Y-48595238D01*
X179611019Y-48595238D02*
X179706257Y-48595238D01*
X179706257Y-48595238D02*
X179744352Y-48614285D01*
X179744352Y-48614285D02*
X179763400Y-48633333D01*
X179763400Y-48633333D02*
X179782447Y-48671428D01*
X179782447Y-48671428D02*
X179782447Y-48785714D01*
X179782447Y-48785714D02*
X179763400Y-48823809D01*
X179763400Y-48823809D02*
X179744352Y-48842857D01*
X177391843Y-65361030D02*
X177368034Y-65408649D01*
X177368034Y-65408649D02*
X177320415Y-65456268D01*
X177320415Y-65456268D02*
X177248986Y-65527696D01*
X177248986Y-65527696D02*
X177225176Y-65575315D01*
X177225176Y-65575315D02*
X177225176Y-65622934D01*
X177344224Y-65599125D02*
X177320415Y-65646744D01*
X177320415Y-65646744D02*
X177272795Y-65694363D01*
X177272795Y-65694363D02*
X177177557Y-65718172D01*
X177177557Y-65718172D02*
X177010891Y-65718172D01*
X177010891Y-65718172D02*
X176915653Y-65694363D01*
X176915653Y-65694363D02*
X176868034Y-65646744D01*
X176868034Y-65646744D02*
X176844224Y-65599125D01*
X176844224Y-65599125D02*
X176844224Y-65503887D01*
X176844224Y-65503887D02*
X176868034Y-65456268D01*
X176868034Y-65456268D02*
X176915653Y-65408649D01*
X176915653Y-65408649D02*
X177010891Y-65384839D01*
X177010891Y-65384839D02*
X177177557Y-65384839D01*
X177177557Y-65384839D02*
X177272795Y-65408649D01*
X177272795Y-65408649D02*
X177320415Y-65456268D01*
X177320415Y-65456268D02*
X177344224Y-65503887D01*
X177344224Y-65503887D02*
X177344224Y-65599125D01*
X177344224Y-64908648D02*
X177344224Y-65194362D01*
X177344224Y-65051505D02*
X176844224Y-65051505D01*
X176844224Y-65051505D02*
X176915653Y-65099124D01*
X176915653Y-65099124D02*
X176963272Y-65146743D01*
X176963272Y-65146743D02*
X176987081Y-65194362D01*
X185361904Y-61620542D02*
X185323809Y-61601495D01*
X185323809Y-61601495D02*
X185285714Y-61563400D01*
X185285714Y-61563400D02*
X185228571Y-61506257D01*
X185228571Y-61506257D02*
X185190476Y-61487209D01*
X185190476Y-61487209D02*
X185152380Y-61487209D01*
X185171428Y-61582447D02*
X185133333Y-61563400D01*
X185133333Y-61563400D02*
X185095238Y-61525304D01*
X185095238Y-61525304D02*
X185076190Y-61449114D01*
X185076190Y-61449114D02*
X185076190Y-61315780D01*
X185076190Y-61315780D02*
X185095238Y-61239590D01*
X185095238Y-61239590D02*
X185133333Y-61201495D01*
X185133333Y-61201495D02*
X185171428Y-61182447D01*
X185171428Y-61182447D02*
X185247619Y-61182447D01*
X185247619Y-61182447D02*
X185285714Y-61201495D01*
X185285714Y-61201495D02*
X185323809Y-61239590D01*
X185323809Y-61239590D02*
X185342857Y-61315780D01*
X185342857Y-61315780D02*
X185342857Y-61449114D01*
X185342857Y-61449114D02*
X185323809Y-61525304D01*
X185323809Y-61525304D02*
X185285714Y-61563400D01*
X185285714Y-61563400D02*
X185247619Y-61582447D01*
X185247619Y-61582447D02*
X185171428Y-61582447D01*
X185495238Y-61220542D02*
X185514286Y-61201495D01*
X185514286Y-61201495D02*
X185552381Y-61182447D01*
X185552381Y-61182447D02*
X185647619Y-61182447D01*
X185647619Y-61182447D02*
X185685714Y-61201495D01*
X185685714Y-61201495D02*
X185704762Y-61220542D01*
X185704762Y-61220542D02*
X185723809Y-61258638D01*
X185723809Y-61258638D02*
X185723809Y-61296733D01*
X185723809Y-61296733D02*
X185704762Y-61353876D01*
X185704762Y-61353876D02*
X185476190Y-61582447D01*
X185476190Y-61582447D02*
X185723809Y-61582447D01*
X193161904Y-70380542D02*
X193123809Y-70361495D01*
X193123809Y-70361495D02*
X193085714Y-70323400D01*
X193085714Y-70323400D02*
X193028571Y-70266257D01*
X193028571Y-70266257D02*
X192990476Y-70247209D01*
X192990476Y-70247209D02*
X192952380Y-70247209D01*
X192971428Y-70342447D02*
X192933333Y-70323400D01*
X192933333Y-70323400D02*
X192895238Y-70285304D01*
X192895238Y-70285304D02*
X192876190Y-70209114D01*
X192876190Y-70209114D02*
X192876190Y-70075780D01*
X192876190Y-70075780D02*
X192895238Y-69999590D01*
X192895238Y-69999590D02*
X192933333Y-69961495D01*
X192933333Y-69961495D02*
X192971428Y-69942447D01*
X192971428Y-69942447D02*
X193047619Y-69942447D01*
X193047619Y-69942447D02*
X193085714Y-69961495D01*
X193085714Y-69961495D02*
X193123809Y-69999590D01*
X193123809Y-69999590D02*
X193142857Y-70075780D01*
X193142857Y-70075780D02*
X193142857Y-70209114D01*
X193142857Y-70209114D02*
X193123809Y-70285304D01*
X193123809Y-70285304D02*
X193085714Y-70323400D01*
X193085714Y-70323400D02*
X193047619Y-70342447D01*
X193047619Y-70342447D02*
X192971428Y-70342447D01*
X193276190Y-69942447D02*
X193523809Y-69942447D01*
X193523809Y-69942447D02*
X193390476Y-70094828D01*
X193390476Y-70094828D02*
X193447619Y-70094828D01*
X193447619Y-70094828D02*
X193485714Y-70113876D01*
X193485714Y-70113876D02*
X193504762Y-70132923D01*
X193504762Y-70132923D02*
X193523809Y-70171019D01*
X193523809Y-70171019D02*
X193523809Y-70266257D01*
X193523809Y-70266257D02*
X193504762Y-70304352D01*
X193504762Y-70304352D02*
X193485714Y-70323400D01*
X193485714Y-70323400D02*
X193447619Y-70342447D01*
X193447619Y-70342447D02*
X193333333Y-70342447D01*
X193333333Y-70342447D02*
X193295238Y-70323400D01*
X193295238Y-70323400D02*
X193276190Y-70304352D01*
X152733333Y-67744352D02*
X152714285Y-67763400D01*
X152714285Y-67763400D02*
X152657143Y-67782447D01*
X152657143Y-67782447D02*
X152619047Y-67782447D01*
X152619047Y-67782447D02*
X152561904Y-67763400D01*
X152561904Y-67763400D02*
X152523809Y-67725304D01*
X152523809Y-67725304D02*
X152504762Y-67687209D01*
X152504762Y-67687209D02*
X152485714Y-67611019D01*
X152485714Y-67611019D02*
X152485714Y-67553876D01*
X152485714Y-67553876D02*
X152504762Y-67477685D01*
X152504762Y-67477685D02*
X152523809Y-67439590D01*
X152523809Y-67439590D02*
X152561904Y-67401495D01*
X152561904Y-67401495D02*
X152619047Y-67382447D01*
X152619047Y-67382447D02*
X152657143Y-67382447D01*
X152657143Y-67382447D02*
X152714285Y-67401495D01*
X152714285Y-67401495D02*
X152733333Y-67420542D01*
X152961904Y-67553876D02*
X152923809Y-67534828D01*
X152923809Y-67534828D02*
X152904762Y-67515780D01*
X152904762Y-67515780D02*
X152885714Y-67477685D01*
X152885714Y-67477685D02*
X152885714Y-67458638D01*
X152885714Y-67458638D02*
X152904762Y-67420542D01*
X152904762Y-67420542D02*
X152923809Y-67401495D01*
X152923809Y-67401495D02*
X152961904Y-67382447D01*
X152961904Y-67382447D02*
X153038095Y-67382447D01*
X153038095Y-67382447D02*
X153076190Y-67401495D01*
X153076190Y-67401495D02*
X153095238Y-67420542D01*
X153095238Y-67420542D02*
X153114285Y-67458638D01*
X153114285Y-67458638D02*
X153114285Y-67477685D01*
X153114285Y-67477685D02*
X153095238Y-67515780D01*
X153095238Y-67515780D02*
X153076190Y-67534828D01*
X153076190Y-67534828D02*
X153038095Y-67553876D01*
X153038095Y-67553876D02*
X152961904Y-67553876D01*
X152961904Y-67553876D02*
X152923809Y-67572923D01*
X152923809Y-67572923D02*
X152904762Y-67591971D01*
X152904762Y-67591971D02*
X152885714Y-67630066D01*
X152885714Y-67630066D02*
X152885714Y-67706257D01*
X152885714Y-67706257D02*
X152904762Y-67744352D01*
X152904762Y-67744352D02*
X152923809Y-67763400D01*
X152923809Y-67763400D02*
X152961904Y-67782447D01*
X152961904Y-67782447D02*
X153038095Y-67782447D01*
X153038095Y-67782447D02*
X153076190Y-67763400D01*
X153076190Y-67763400D02*
X153095238Y-67744352D01*
X153095238Y-67744352D02*
X153114285Y-67706257D01*
X153114285Y-67706257D02*
X153114285Y-67630066D01*
X153114285Y-67630066D02*
X153095238Y-67591971D01*
X153095238Y-67591971D02*
X153076190Y-67572923D01*
X153076190Y-67572923D02*
X153038095Y-67553876D01*
X176590459Y-72457142D02*
X176609507Y-72476190D01*
X176609507Y-72476190D02*
X176628554Y-72533332D01*
X176628554Y-72533332D02*
X176628554Y-72571428D01*
X176628554Y-72571428D02*
X176609507Y-72628571D01*
X176609507Y-72628571D02*
X176571411Y-72666666D01*
X176571411Y-72666666D02*
X176533316Y-72685713D01*
X176533316Y-72685713D02*
X176457126Y-72704761D01*
X176457126Y-72704761D02*
X176399983Y-72704761D01*
X176399983Y-72704761D02*
X176323792Y-72685713D01*
X176323792Y-72685713D02*
X176285697Y-72666666D01*
X176285697Y-72666666D02*
X176247602Y-72628571D01*
X176247602Y-72628571D02*
X176228554Y-72571428D01*
X176228554Y-72571428D02*
X176228554Y-72533332D01*
X176228554Y-72533332D02*
X176247602Y-72476190D01*
X176247602Y-72476190D02*
X176266649Y-72457142D01*
X176628554Y-72076190D02*
X176628554Y-72304761D01*
X176628554Y-72190475D02*
X176228554Y-72190475D01*
X176228554Y-72190475D02*
X176285697Y-72228571D01*
X176285697Y-72228571D02*
X176323792Y-72266666D01*
X176323792Y-72266666D02*
X176342840Y-72304761D01*
X176628554Y-71695238D02*
X176628554Y-71923809D01*
X176628554Y-71809523D02*
X176228554Y-71809523D01*
X176228554Y-71809523D02*
X176285697Y-71847619D01*
X176285697Y-71847619D02*
X176323792Y-71885714D01*
X176323792Y-71885714D02*
X176342840Y-71923809D01*
D13*
X171940692Y-54128059D02*
X171940692Y-54532821D01*
X171940692Y-54532821D02*
X171964502Y-54580440D01*
X171964502Y-54580440D02*
X171988311Y-54604250D01*
X171988311Y-54604250D02*
X172035930Y-54628059D01*
X172035930Y-54628059D02*
X172131168Y-54628059D01*
X172131168Y-54628059D02*
X172178787Y-54604250D01*
X172178787Y-54604250D02*
X172202597Y-54580440D01*
X172202597Y-54580440D02*
X172226406Y-54532821D01*
X172226406Y-54532821D02*
X172226406Y-54128059D01*
X172440693Y-54175678D02*
X172464502Y-54151869D01*
X172464502Y-54151869D02*
X172512121Y-54128059D01*
X172512121Y-54128059D02*
X172631169Y-54128059D01*
X172631169Y-54128059D02*
X172678788Y-54151869D01*
X172678788Y-54151869D02*
X172702597Y-54175678D01*
X172702597Y-54175678D02*
X172726407Y-54223297D01*
X172726407Y-54223297D02*
X172726407Y-54270916D01*
X172726407Y-54270916D02*
X172702597Y-54342345D01*
X172702597Y-54342345D02*
X172416883Y-54628059D01*
X172416883Y-54628059D02*
X172726407Y-54628059D01*
D12*
X174182447Y-66866666D02*
X174182447Y-67057142D01*
X174182447Y-67057142D02*
X173782447Y-67057142D01*
X174182447Y-66523809D02*
X174182447Y-66752380D01*
X174182447Y-66638094D02*
X173782447Y-66638094D01*
X173782447Y-66638094D02*
X173839590Y-66676190D01*
X173839590Y-66676190D02*
X173877685Y-66714285D01*
X173877685Y-66714285D02*
X173896733Y-66752380D01*
X149133333Y-49944352D02*
X149114285Y-49963400D01*
X149114285Y-49963400D02*
X149057143Y-49982447D01*
X149057143Y-49982447D02*
X149019047Y-49982447D01*
X149019047Y-49982447D02*
X148961904Y-49963400D01*
X148961904Y-49963400D02*
X148923809Y-49925304D01*
X148923809Y-49925304D02*
X148904762Y-49887209D01*
X148904762Y-49887209D02*
X148885714Y-49811019D01*
X148885714Y-49811019D02*
X148885714Y-49753876D01*
X148885714Y-49753876D02*
X148904762Y-49677685D01*
X148904762Y-49677685D02*
X148923809Y-49639590D01*
X148923809Y-49639590D02*
X148961904Y-49601495D01*
X148961904Y-49601495D02*
X149019047Y-49582447D01*
X149019047Y-49582447D02*
X149057143Y-49582447D01*
X149057143Y-49582447D02*
X149114285Y-49601495D01*
X149114285Y-49601495D02*
X149133333Y-49620542D01*
X149514285Y-49982447D02*
X149285714Y-49982447D01*
X149400000Y-49982447D02*
X149400000Y-49582447D01*
X149400000Y-49582447D02*
X149361904Y-49639590D01*
X149361904Y-49639590D02*
X149323809Y-49677685D01*
X149323809Y-49677685D02*
X149285714Y-49696733D01*
X151533333Y-49944352D02*
X151514285Y-49963400D01*
X151514285Y-49963400D02*
X151457143Y-49982447D01*
X151457143Y-49982447D02*
X151419047Y-49982447D01*
X151419047Y-49982447D02*
X151361904Y-49963400D01*
X151361904Y-49963400D02*
X151323809Y-49925304D01*
X151323809Y-49925304D02*
X151304762Y-49887209D01*
X151304762Y-49887209D02*
X151285714Y-49811019D01*
X151285714Y-49811019D02*
X151285714Y-49753876D01*
X151285714Y-49753876D02*
X151304762Y-49677685D01*
X151304762Y-49677685D02*
X151323809Y-49639590D01*
X151323809Y-49639590D02*
X151361904Y-49601495D01*
X151361904Y-49601495D02*
X151419047Y-49582447D01*
X151419047Y-49582447D02*
X151457143Y-49582447D01*
X151457143Y-49582447D02*
X151514285Y-49601495D01*
X151514285Y-49601495D02*
X151533333Y-49620542D01*
X151685714Y-49620542D02*
X151704762Y-49601495D01*
X151704762Y-49601495D02*
X151742857Y-49582447D01*
X151742857Y-49582447D02*
X151838095Y-49582447D01*
X151838095Y-49582447D02*
X151876190Y-49601495D01*
X151876190Y-49601495D02*
X151895238Y-49620542D01*
X151895238Y-49620542D02*
X151914285Y-49658638D01*
X151914285Y-49658638D02*
X151914285Y-49696733D01*
X151914285Y-49696733D02*
X151895238Y-49753876D01*
X151895238Y-49753876D02*
X151666666Y-49982447D01*
X151666666Y-49982447D02*
X151914285Y-49982447D01*
D16*
X143466666Y-49654819D02*
X143466666Y-50369104D01*
X143466666Y-50369104D02*
X143419047Y-50511961D01*
X143419047Y-50511961D02*
X143323809Y-50607200D01*
X143323809Y-50607200D02*
X143180952Y-50654819D01*
X143180952Y-50654819D02*
X143085714Y-50654819D01*
X143847619Y-49654819D02*
X144466666Y-49654819D01*
X144466666Y-49654819D02*
X144133333Y-50035771D01*
X144133333Y-50035771D02*
X144276190Y-50035771D01*
X144276190Y-50035771D02*
X144371428Y-50083390D01*
X144371428Y-50083390D02*
X144419047Y-50131009D01*
X144419047Y-50131009D02*
X144466666Y-50226247D01*
X144466666Y-50226247D02*
X144466666Y-50464342D01*
X144466666Y-50464342D02*
X144419047Y-50559580D01*
X144419047Y-50559580D02*
X144371428Y-50607200D01*
X144371428Y-50607200D02*
X144276190Y-50654819D01*
X144276190Y-50654819D02*
X143990476Y-50654819D01*
X143990476Y-50654819D02*
X143895238Y-50607200D01*
X143895238Y-50607200D02*
X143847619Y-50559580D01*
D17*
%TO.C,C7*%
X181800000Y-46050000D02*
X181800000Y-47150000D01*
D18*
%TO.C,R6*%
X187877500Y-71945276D02*
X187877500Y-72454724D01*
X188922500Y-71945276D02*
X188922500Y-72454724D01*
%TO.C,D2*%
X167240000Y-66400000D02*
X167240000Y-68400000D01*
X167240000Y-66400000D02*
X171250000Y-66400000D01*
X167240000Y-68400000D02*
X171250000Y-68400000D01*
%TO.C,R3*%
X162477500Y-69654724D02*
X162477500Y-69145276D01*
X163522500Y-69654724D02*
X163522500Y-69145276D01*
%TO.C,R11*%
X186454724Y-53877500D02*
X185945276Y-53877500D01*
X186454724Y-54922500D02*
X185945276Y-54922500D01*
D17*
%TO.C,C10*%
X150250000Y-69380000D02*
X151350000Y-69380000D01*
D18*
%TO.C,D1*%
X171960000Y-71200000D02*
X167950000Y-71200000D01*
X171960000Y-73200000D02*
X167950000Y-73200000D01*
X171960000Y-73200000D02*
X171960000Y-71200000D01*
D17*
%TO.C,C9*%
X181800000Y-51050000D02*
X181800000Y-52150000D01*
D18*
%TO.C,R10*%
X190140000Y-63704724D02*
X190140000Y-63195276D01*
X191185000Y-63704724D02*
X191185000Y-63195276D01*
%TO.C,R7*%
X189477500Y-71945276D02*
X189477500Y-72454724D01*
X190522500Y-71945276D02*
X190522500Y-72454724D01*
D17*
%TO.C,C12*%
X180050000Y-69000000D02*
X181150000Y-69000000D01*
D18*
%TO.C,D3*%
X167240000Y-68800000D02*
X167240000Y-70800000D01*
X167240000Y-68800000D02*
X171250000Y-68800000D01*
X167240000Y-70800000D02*
X171250000Y-70800000D01*
D19*
%TO.C,U1*%
X184670000Y-52000000D02*
G75*
G02*
X184530000Y-52000000I-70000J0D01*
G01*
X184530000Y-52000000D02*
G75*
G02*
X184670000Y-52000000I70000J0D01*
G01*
D18*
%TO.C,R9*%
X192677500Y-72454724D02*
X192677500Y-71945276D01*
X193722500Y-72454724D02*
X193722500Y-71945276D01*
%TO.C,R8*%
X191077500Y-72454724D02*
X191077500Y-71945276D01*
X192122500Y-72454724D02*
X192122500Y-71945276D01*
%TO.C,R1*%
X171877500Y-63745276D02*
X171877500Y-64254724D01*
X172922500Y-63745276D02*
X172922500Y-64254724D01*
%TO.C,J1*%
X193620000Y-54800000D02*
X198920000Y-54800000D01*
X193620000Y-65180000D02*
X193620000Y-54800000D01*
X198920000Y-54800000D02*
X198920000Y-65180000D01*
X198920000Y-65180000D02*
X193620000Y-65180000D01*
D17*
%TO.C,C5*%
X156050000Y-69380000D02*
X157150000Y-69380000D01*
D18*
%TO.C,J2*%
X111595000Y-44695000D02*
X112925000Y-44695000D01*
X111595000Y-46025000D02*
X111595000Y-44695000D01*
X111595000Y-47295000D02*
X111595000Y-75295000D01*
X111595000Y-47295000D02*
X114195000Y-47295000D01*
X111595000Y-75295000D02*
X116795000Y-75295000D01*
X114195000Y-44695000D02*
X116795000Y-44695000D01*
X114195000Y-47295000D02*
X114195000Y-44695000D01*
X116795000Y-44695000D02*
X116795000Y-75295000D01*
%TO.C,R2*%
X178077500Y-63745276D02*
X178077500Y-64254724D01*
X179122500Y-63745276D02*
X179122500Y-64254724D01*
D17*
%TO.C,C3*%
X160450000Y-69380000D02*
X161550000Y-69380000D01*
%TO.C,C4*%
X158050000Y-69380000D02*
X159150000Y-69380000D01*
%TO.C,C13*%
X181800000Y-48550000D02*
X181800000Y-49650000D01*
D18*
%TO.C,Q1*%
X174290000Y-63270000D02*
X174950000Y-63270000D01*
X174290000Y-64680000D02*
X174290000Y-63270000D01*
X175950000Y-63270000D02*
X176610000Y-63270000D01*
X176610000Y-64680000D02*
X176610000Y-63270000D01*
X174310000Y-65050000D02*
X173980000Y-65290000D01*
X173980000Y-64810000D01*
X174310000Y-65050000D01*
G36*
X174310000Y-65050000D02*
G01*
X173980000Y-65290000D01*
X173980000Y-64810000D01*
X174310000Y-65050000D01*
G37*
%TO.C,Q2*%
X187062500Y-61890000D02*
X186412500Y-61890000D01*
X187062500Y-61890000D02*
X187712500Y-61890000D01*
X187062500Y-65010000D02*
X186412500Y-65010000D01*
X187062500Y-65010000D02*
X187712500Y-65010000D01*
X188465000Y-65290000D02*
X187985000Y-65290000D01*
X188225000Y-64960000D01*
X188465000Y-65290000D01*
G36*
X188465000Y-65290000D02*
G01*
X187985000Y-65290000D01*
X188225000Y-64960000D01*
X188465000Y-65290000D01*
G37*
%TO.C,Q3*%
X188200000Y-70210000D02*
X191800000Y-70210000D01*
X188161522Y-70198478D02*
G75*
G02*
X190000000Y-65759999I1838478J1838478D01*
G01*
X190000000Y-65760000D02*
G75*
G02*
X191838478Y-70198478I0J-2600000D01*
G01*
D17*
%TO.C,C11*%
X174400000Y-71650000D02*
X174400000Y-72750000D01*
D18*
%TO.C,U2*%
X172321645Y-54929551D02*
X170121645Y-54929551D01*
X172321645Y-54929551D02*
X174521645Y-54929551D01*
X172321645Y-61699551D02*
X170121645Y-61699551D01*
X172321645Y-61699551D02*
X174521645Y-61699551D01*
X168461645Y-55389551D02*
X168131645Y-55629551D01*
X168131645Y-55149551D01*
X168461645Y-55389551D01*
G36*
X168461645Y-55389551D02*
G01*
X168131645Y-55629551D01*
X168131645Y-55149551D01*
X168461645Y-55389551D01*
G37*
D20*
%TO.C,L1*%
X176370000Y-66650000D02*
X177230000Y-66650000D01*
X177230000Y-70550000D02*
X176370000Y-70550000D01*
D17*
X179650000Y-68600000D02*
G75*
G02*
X179450000Y-68600000I-100000J0D01*
G01*
X179450000Y-68600000D02*
G75*
G02*
X179650000Y-68600000I100000J0D01*
G01*
%TO.C,C1*%
X150550000Y-47700000D02*
X149450000Y-47700000D01*
%TO.C,C2*%
X152750000Y-47700000D02*
X151650000Y-47700000D01*
D20*
%TO.C,J3*%
X142900000Y-51250000D02*
X142900000Y-68750000D01*
X142900000Y-68750000D02*
X144300000Y-68750000D01*
X144300000Y-51250000D02*
X142900000Y-51250000D01*
X144300000Y-52050000D02*
X144300000Y-51250000D01*
X144300000Y-67950000D02*
X145380000Y-67950000D01*
X144300000Y-68750000D02*
X144300000Y-67950000D01*
X145380000Y-52050000D02*
X144300000Y-52050000D01*
D17*
X148700000Y-54250000D02*
G75*
G02*
X148500000Y-54250000I-100000J0D01*
G01*
X148500000Y-54250000D02*
G75*
G02*
X148700000Y-54250000I100000J0D01*
G01*
%TD*%
%LPC*%
D21*
%TO.C,L1*%
X176150000Y-67470680D02*
X175570000Y-68065681D01*
X175570000Y-69134319D01*
X176150000Y-69729320D01*
X176150000Y-70645000D01*
X175119110Y-70645000D01*
X174500000Y-70036950D01*
X174500000Y-67163050D01*
X175119110Y-66555000D01*
X176150000Y-66555000D01*
X176150000Y-67470680D01*
G36*
X176150000Y-67470680D02*
G01*
X175570000Y-68065681D01*
X175570000Y-69134319D01*
X176150000Y-69729320D01*
X176150000Y-70645000D01*
X175119110Y-70645000D01*
X174500000Y-70036950D01*
X174500000Y-67163050D01*
X175119110Y-66555000D01*
X176150000Y-66555000D01*
X176150000Y-67470680D01*
G37*
X179100000Y-67163050D02*
X179100000Y-70036950D01*
X178480890Y-70645000D01*
X177450000Y-70645000D01*
X177450000Y-69729320D01*
X178030000Y-69134319D01*
X178030000Y-68065681D01*
X177450000Y-67470680D01*
X177450000Y-66555000D01*
X178480890Y-66555000D01*
X179100000Y-67163050D01*
G36*
X179100000Y-67163050D02*
G01*
X179100000Y-70036950D01*
X178480890Y-70645000D01*
X177450000Y-70645000D01*
X177450000Y-69729320D01*
X178030000Y-69134319D01*
X178030000Y-68065681D01*
X177450000Y-67470680D01*
X177450000Y-66555000D01*
X178480890Y-66555000D01*
X179100000Y-67163050D01*
G37*
%TO.C,J3*%
X146900000Y-51750000D02*
X147400000Y-51750000D01*
X147400000Y-53900000D01*
X144900000Y-53900000D01*
X144900000Y-52450000D01*
X145600000Y-52450000D01*
X145600000Y-51050000D01*
X146900000Y-51050000D01*
X146900000Y-51750000D01*
G36*
X146900000Y-51750000D02*
G01*
X147400000Y-51750000D01*
X147400000Y-53900000D01*
X144900000Y-53900000D01*
X144900000Y-52450000D01*
X145600000Y-52450000D01*
X145600000Y-51050000D01*
X146900000Y-51050000D01*
X146900000Y-51750000D01*
G37*
X147400000Y-68250000D02*
X146900000Y-68250000D01*
X146900000Y-68950000D01*
X145600000Y-68950000D01*
X145600000Y-67550000D01*
X144900000Y-67550000D01*
X144900000Y-66100000D01*
X147400000Y-66100000D01*
X147400000Y-68250000D01*
G36*
X147400000Y-68250000D02*
G01*
X146900000Y-68250000D01*
X146900000Y-68950000D01*
X145600000Y-68950000D01*
X145600000Y-67550000D01*
X144900000Y-67550000D01*
X144900000Y-66100000D01*
X147400000Y-66100000D01*
X147400000Y-68250000D01*
G37*
%TD*%
D22*
%TO.C,C7*%
X180900000Y-46600000D03*
X182700000Y-46600000D03*
%TD*%
D23*
%TO.C,R6*%
X188400000Y-71287500D03*
X188400000Y-73112500D03*
%TD*%
D24*
%TO.C,D2*%
X167950000Y-67400000D03*
X171250000Y-67400000D03*
%TD*%
D25*
%TO.C,R3*%
X163000000Y-70312500D03*
X163000000Y-68487500D03*
%TD*%
D26*
%TO.C,R11*%
X187112500Y-54400000D03*
X185287500Y-54400000D03*
%TD*%
D27*
%TO.C,C10*%
X150800000Y-70280000D03*
X150800000Y-68480000D03*
%TD*%
D28*
%TO.C,D1*%
X171250000Y-72200000D03*
X167950000Y-72200000D03*
%TD*%
D22*
%TO.C,C9*%
X180900000Y-51600000D03*
X182700000Y-51600000D03*
%TD*%
D25*
%TO.C,R10*%
X190662500Y-64362500D03*
X190662500Y-62537500D03*
%TD*%
D23*
%TO.C,R7*%
X190000000Y-71287500D03*
X190000000Y-73112500D03*
%TD*%
D27*
%TO.C,C12*%
X180600000Y-69900000D03*
X180600000Y-68100000D03*
%TD*%
D24*
%TO.C,D3*%
X167950000Y-69800000D03*
X171250000Y-69800000D03*
%TD*%
D29*
%TO.C,U1*%
X185260000Y-51820000D03*
X186200000Y-51820000D03*
X187140000Y-51820000D03*
X187140000Y-49380000D03*
X185260000Y-49380000D03*
%TD*%
D25*
%TO.C,R9*%
X193200000Y-73112500D03*
X193200000Y-71287500D03*
%TD*%
D30*
%TO.C,C14*%
X167000000Y-55780000D03*
X167000000Y-54220000D03*
%TD*%
D25*
%TO.C,R8*%
X191600000Y-73112500D03*
X191600000Y-71287500D03*
%TD*%
D30*
%TO.C,C6*%
X154400000Y-70180000D03*
X154400000Y-68620000D03*
%TD*%
D23*
%TO.C,R1*%
X172400000Y-63087500D03*
X172400000Y-64912500D03*
%TD*%
D31*
%TO.C,J1*%
X195000000Y-63800000D03*
D32*
X197540000Y-63800000D03*
X195000000Y-61260000D03*
X197540000Y-61260000D03*
X195000000Y-58720000D03*
X197540000Y-58720000D03*
X195000000Y-56180000D03*
X197540000Y-56180000D03*
%TD*%
D27*
%TO.C,C5*%
X156600000Y-70280000D03*
X156600000Y-68480000D03*
%TD*%
D33*
%TO.C,J2*%
X112925000Y-46025000D03*
D34*
X115465000Y-46025000D03*
X112925000Y-48565000D03*
X115465000Y-48565000D03*
X112925000Y-51105000D03*
X115465000Y-51105000D03*
X112925000Y-53645000D03*
X115465000Y-53645000D03*
X112925000Y-56185000D03*
X115465000Y-56185000D03*
X112925000Y-58725000D03*
X115465000Y-58725000D03*
X112925000Y-61265000D03*
X115465000Y-61265000D03*
X112925000Y-63805000D03*
X115465000Y-63805000D03*
X112925000Y-66345000D03*
X115465000Y-66345000D03*
X112925000Y-68885000D03*
X115465000Y-68885000D03*
X112925000Y-71425000D03*
X115465000Y-71425000D03*
X112925000Y-73965000D03*
X115465000Y-73965000D03*
%TD*%
D23*
%TO.C,R2*%
X178600000Y-63087500D03*
X178600000Y-64912500D03*
%TD*%
D27*
%TO.C,C3*%
X161000000Y-70280000D03*
X161000000Y-68480000D03*
%TD*%
%TO.C,C4*%
X158600000Y-70280000D03*
X158600000Y-68480000D03*
%TD*%
D22*
%TO.C,C13*%
X180900000Y-49100000D03*
X182700000Y-49100000D03*
%TD*%
D35*
%TO.C,Q1*%
X174800000Y-65000000D03*
X176100000Y-65000000D03*
X175450000Y-63000000D03*
%TD*%
D36*
%TO.C,Q2*%
X188000000Y-64400000D03*
X188000000Y-62500000D03*
X186125000Y-63450000D03*
%TD*%
D37*
%TO.C,Q3*%
X188730000Y-68360000D03*
D38*
X190000000Y-68360000D03*
X191270000Y-68360000D03*
%TD*%
D30*
%TO.C,C8*%
X152800000Y-70180000D03*
X152800000Y-68620000D03*
%TD*%
D22*
%TO.C,C11*%
X173500000Y-72200000D03*
X175300000Y-72200000D03*
%TD*%
D39*
%TO.C,U2*%
X169459145Y-55389551D03*
X169459145Y-56039551D03*
X169459145Y-56689551D03*
X169459145Y-57339551D03*
X169459145Y-57989551D03*
X169459145Y-58639551D03*
X169459145Y-59289551D03*
X169459145Y-59939551D03*
X169459145Y-60589551D03*
X169459145Y-61239551D03*
X175184145Y-61239551D03*
X175184145Y-60589551D03*
X175184145Y-59939551D03*
X175184145Y-59289551D03*
X175184145Y-58639551D03*
X175184145Y-57989551D03*
X175184145Y-57339551D03*
X175184145Y-56689551D03*
X175184145Y-56039551D03*
X175184145Y-55389551D03*
%TD*%
D40*
%TO.C,C1*%
X150000000Y-46800000D03*
X150000000Y-48600000D03*
%TD*%
%TO.C,C2*%
X152200000Y-46800000D03*
X152200000Y-48600000D03*
%TD*%
D41*
%TO.C,J3*%
X147400000Y-54250000D03*
X147400000Y-54750000D03*
X147400000Y-55250000D03*
X147400000Y-55750000D03*
X147400000Y-56250000D03*
X147400000Y-56750000D03*
X147400000Y-57250000D03*
X147400000Y-57750000D03*
X147400000Y-58250000D03*
X147400000Y-58750000D03*
X147400000Y-59250000D03*
X147400000Y-59750000D03*
X147400000Y-60250000D03*
X147400000Y-60750000D03*
X147400000Y-61250000D03*
X147400000Y-61750000D03*
X147400000Y-62250000D03*
X147400000Y-62750000D03*
X147400000Y-63250000D03*
X147400000Y-63750000D03*
X147400000Y-64250000D03*
X147400000Y-64750000D03*
X147400000Y-65250000D03*
X147400000Y-65750000D03*
%TD*%
%LPD*%
M02*
