%TF.GenerationSoftware,KiCad,Pcbnew,9.0.0*%
%TF.CreationDate,2025-06-14T01:05:18+10:00*%
%TF.ProjectId,28P-FPC-SPI-Debug,3238502d-4650-4432-9d53-50492d446562,rev?*%
%TF.SameCoordinates,Original*%
%TF.FileFunction,Copper,L1,Top*%
%TF.FilePolarity,Positive*%
%FSLAX46Y46*%
G04 Gerber Fmt 4.6, Leading zero omitted, Abs format (unit mm)*
G04 Created by KiCad (PCBNEW 9.0.0) date 2025-06-14 01:05:18*
%MOMM*%
%LPD*%
G01*
G04 APERTURE LIST*
G04 Aperture macros list*
%AMRoundRect*
0 Rectangle with rounded corners*
0 $1 Rounding radius*
0 $2 $3 $4 $5 $6 $7 $8 $9 X,Y pos of 4 corners*
0 Add a 4 corners polygon primitive as box body*
4,1,4,$2,$3,$4,$5,$6,$7,$8,$9,$2,$3,0*
0 Add four circle primitives for the rounded corners*
1,1,$1+$1,$2,$3*
1,1,$1+$1,$4,$5*
1,1,$1+$1,$6,$7*
1,1,$1+$1,$8,$9*
0 Add four rect primitives between the rounded corners*
20,1,$1+$1,$2,$3,$4,$5,0*
20,1,$1+$1,$4,$5,$6,$7,0*
20,1,$1+$1,$6,$7,$8,$9,0*
20,1,$1+$1,$8,$9,$2,$3,0*%
%AMFreePoly0*
4,1,21,1.018536,1.948536,1.020000,1.945000,1.020000,1.170000,1.018580,1.166510,0.440000,0.572966,0.440000,-0.572966,1.018580,-1.166510,1.020000,-1.170000,1.020000,-1.945000,1.018536,-1.948536,1.015000,-1.950000,0.125000,-1.950000,0.121496,-1.948567,-0.438504,-1.398567,-0.440000,-1.395045,-0.440000,1.395000,-0.438536,1.398536,0.121496,1.948567,0.125000,1.950000,1.015000,1.950000,
1.018536,1.948536,1.018536,1.948536,$1*%
%AMFreePoly1*
4,1,21,-0.121496,1.948567,0.438504,1.398567,0.440000,1.395045,0.440000,-1.395000,0.438536,-1.398536,-0.121496,-1.948567,-0.125000,-1.950000,-1.015000,-1.950000,-1.018536,-1.948536,-1.020000,-1.945000,-1.020000,-1.170000,-1.018580,-1.166510,-0.440000,-0.572966,-0.440000,0.572966,-1.018580,1.166510,-1.020000,1.170000,-1.020000,1.945000,-1.018536,1.948536,-1.015000,1.950000,-0.125000,1.950000,
-0.121496,1.948567,-0.121496,1.948567,$1*%
%AMFreePoly2*
4,1,21,0.978536,0.803536,0.980000,0.800000,0.980000,-1.500000,0.978536,-1.503536,0.975000,-1.505000,-0.275000,-1.505000,-0.278536,-1.503536,-0.280000,-1.500000,-0.280000,-0.805000,-1.675000,-0.805000,-1.678536,-0.803536,-1.680000,-0.800000,-1.680000,0.300000,-1.678536,0.303536,-1.675000,0.305000,-0.980000,0.305000,-0.980000,0.800000,-0.978536,0.803536,-0.975000,0.805000,0.975000,0.805000,
0.978536,0.803536,0.978536,0.803536,$1*%
%AMFreePoly3*
4,1,21,0.978536,0.803536,0.980000,0.800000,0.980000,0.305000,1.675000,0.305000,1.678536,0.303536,1.680000,0.300000,1.680000,-0.800000,1.678536,-0.803536,1.675000,-0.805000,0.280000,-0.805000,0.280000,-1.500000,0.278536,-1.503536,0.275000,-1.505000,-0.975000,-1.505000,-0.978536,-1.503536,-0.980000,-1.500000,-0.980000,0.800000,-0.978536,0.803536,-0.975000,0.805000,0.975000,0.805000,
0.978536,0.803536,0.978536,0.803536,$1*%
G04 Aperture macros list end*
%TA.AperFunction,SMDPad,CuDef*%
%ADD10R,1.150000X1.450000*%
%TD*%
%TA.AperFunction,SMDPad,CuDef*%
%ADD11RoundRect,0.237500X-0.237500X0.250000X-0.237500X-0.250000X0.237500X-0.250000X0.237500X0.250000X0*%
%TD*%
%TA.AperFunction,SMDPad,CuDef*%
%ADD12RoundRect,0.225000X-0.225000X-0.375000X0.225000X-0.375000X0.225000X0.375000X-0.225000X0.375000X0*%
%TD*%
%TA.AperFunction,SMDPad,CuDef*%
%ADD13RoundRect,0.237500X0.237500X-0.250000X0.237500X0.250000X-0.237500X0.250000X-0.237500X-0.250000X0*%
%TD*%
%TA.AperFunction,SMDPad,CuDef*%
%ADD14RoundRect,0.237500X0.250000X0.237500X-0.250000X0.237500X-0.250000X-0.237500X0.250000X-0.237500X0*%
%TD*%
%TA.AperFunction,SMDPad,CuDef*%
%ADD15R,1.450000X1.150000*%
%TD*%
%TA.AperFunction,SMDPad,CuDef*%
%ADD16RoundRect,0.225000X0.225000X0.375000X-0.225000X0.375000X-0.225000X-0.375000X0.225000X-0.375000X0*%
%TD*%
%TA.AperFunction,SMDPad,CuDef*%
%ADD17RoundRect,0.040200X0.294800X-0.544800X0.294800X0.544800X-0.294800X0.544800X-0.294800X-0.544800X0*%
%TD*%
%TA.AperFunction,SMDPad,CuDef*%
%ADD18R,0.930000X0.870000*%
%TD*%
%TA.AperFunction,ComponentPad*%
%ADD19RoundRect,0.250000X0.405000X-0.405000X0.405000X0.405000X-0.405000X0.405000X-0.405000X-0.405000X0*%
%TD*%
%TA.AperFunction,ComponentPad*%
%ADD20C,1.310000*%
%TD*%
%TA.AperFunction,ComponentPad*%
%ADD21R,1.700000X1.700000*%
%TD*%
%TA.AperFunction,ComponentPad*%
%ADD22O,1.700000X1.700000*%
%TD*%
%TA.AperFunction,SMDPad,CuDef*%
%ADD23RoundRect,0.112500X-0.112500X-0.237500X0.112500X-0.237500X0.112500X0.237500X-0.112500X0.237500X0*%
%TD*%
%TA.AperFunction,SMDPad,CuDef*%
%ADD24RoundRect,0.150000X0.587500X0.150000X-0.587500X0.150000X-0.587500X-0.150000X0.587500X-0.150000X0*%
%TD*%
%TA.AperFunction,ComponentPad*%
%ADD25R,1.050000X1.500000*%
%TD*%
%TA.AperFunction,ComponentPad*%
%ADD26O,1.050000X1.500000*%
%TD*%
%TA.AperFunction,SMDPad,CuDef*%
%ADD27RoundRect,0.100000X-0.637500X-0.100000X0.637500X-0.100000X0.637500X0.100000X-0.637500X0.100000X0*%
%TD*%
%TA.AperFunction,SMDPad,CuDef*%
%ADD28FreePoly0,180.000000*%
%TD*%
%TA.AperFunction,SMDPad,CuDef*%
%ADD29FreePoly1,180.000000*%
%TD*%
%TA.AperFunction,SMDPad,CuDef*%
%ADD30R,1.400000X0.300000*%
%TD*%
%TA.AperFunction,SMDPad,CuDef*%
%ADD31FreePoly2,270.000000*%
%TD*%
%TA.AperFunction,SMDPad,CuDef*%
%ADD32FreePoly3,270.000000*%
%TD*%
%TA.AperFunction,ViaPad*%
%ADD33C,0.600000*%
%TD*%
%TA.AperFunction,Conductor*%
%ADD34C,0.200000*%
%TD*%
G04 APERTURE END LIST*
D10*
%TO.P,C7,1*%
%TO.N,GND*%
X180900000Y-46600000D03*
%TO.P,C7,2*%
%TO.N,Net-(U1-BP)*%
X182700000Y-46600000D03*
%TD*%
D11*
%TO.P,R6,1*%
%TO.N,/\u005CRST*%
X188400000Y-71287500D03*
%TO.P,R6,2*%
%TO.N,/VCC_EN*%
X188400000Y-73112500D03*
%TD*%
D12*
%TO.P,D2,1,K*%
%TO.N,/PREVGH*%
X167950000Y-67400000D03*
%TO.P,D2,2,A*%
%TO.N,Net-(D2-A)*%
X171250000Y-67400000D03*
%TD*%
D13*
%TO.P,R3,1*%
%TO.N,GND*%
X163000000Y-70312500D03*
%TO.P,R3,2*%
%TO.N,+3V3*%
X163000000Y-68487500D03*
%TD*%
D14*
%TO.P,R11,1*%
%TO.N,/VCC_EN*%
X187112500Y-54400000D03*
%TO.P,R11,2*%
%TO.N,GND*%
X185287500Y-54400000D03*
%TD*%
D15*
%TO.P,C10,1*%
%TO.N,GND*%
X150800000Y-70280000D03*
%TO.P,C10,2*%
%TO.N,/VCOM*%
X150800000Y-68480000D03*
%TD*%
D16*
%TO.P,D1,1,K*%
%TO.N,Net-(D1-K)*%
X171250000Y-72200000D03*
%TO.P,D1,2,A*%
%TO.N,/PREVGL*%
X167950000Y-72200000D03*
%TD*%
D10*
%TO.P,C9,1*%
%TO.N,GND*%
X180900000Y-51600000D03*
%TO.P,C9,2*%
%TO.N,/Vcc*%
X182700000Y-51600000D03*
%TD*%
D13*
%TO.P,R10,1*%
%TO.N,Net-(Q2-G)*%
X190662500Y-64362500D03*
%TO.P,R10,2*%
%TO.N,/VCC_INT*%
X190662500Y-62537500D03*
%TD*%
D11*
%TO.P,R7,1*%
%TO.N,Net-(Q3-B)*%
X190000000Y-71287500D03*
%TO.P,R7,2*%
%TO.N,/\u005CRST*%
X190000000Y-73112500D03*
%TD*%
D15*
%TO.P,C12,1*%
%TO.N,GND*%
X180600000Y-69900000D03*
%TO.P,C12,2*%
%TO.N,+3V3*%
X180600000Y-68100000D03*
%TD*%
D12*
%TO.P,D3,1,K*%
%TO.N,GND*%
X167950000Y-69800000D03*
%TO.P,D3,2,A*%
%TO.N,Net-(D1-K)*%
X171250000Y-69800000D03*
%TD*%
D17*
%TO.P,U1,1,VIN*%
%TO.N,/Vcc*%
X185260000Y-51820000D03*
%TO.P,U1,2,GND*%
%TO.N,GND*%
X186200000Y-51820000D03*
%TO.P,U1,3,EN*%
%TO.N,/VCC_EN*%
X187140000Y-51820000D03*
%TO.P,U1,4,BP*%
%TO.N,Net-(U1-BP)*%
X187140000Y-49380000D03*
%TO.P,U1,5,VOUT*%
%TO.N,+3V3*%
X185260000Y-49380000D03*
%TD*%
D13*
%TO.P,R9,1*%
%TO.N,/VCC_EN*%
X193200000Y-73112500D03*
%TO.P,R9,2*%
%TO.N,Net-(R8-Pad1)*%
X193200000Y-71287500D03*
%TD*%
D18*
%TO.P,C14,1*%
%TO.N,+3V3*%
X167000000Y-55780000D03*
%TO.P,C14,2*%
%TO.N,GND*%
X167000000Y-54220000D03*
%TD*%
D13*
%TO.P,R8,1*%
%TO.N,Net-(R8-Pad1)*%
X191600000Y-73112500D03*
%TO.P,R8,2*%
%TO.N,Net-(Q3-B)*%
X191600000Y-71287500D03*
%TD*%
D18*
%TO.P,C6,1*%
%TO.N,GND*%
X154400000Y-70180000D03*
%TO.P,C6,2*%
%TO.N,/VSH1*%
X154400000Y-68620000D03*
%TD*%
D11*
%TO.P,R1,1*%
%TO.N,GND*%
X172400000Y-63087500D03*
%TO.P,R1,2*%
%TO.N,/GDR*%
X172400000Y-64912500D03*
%TD*%
D19*
%TO.P,J1,1,Pin_1*%
%TO.N,/VCC_INT*%
X195000000Y-63800000D03*
D20*
%TO.P,J1,2,Pin_2*%
%TO.N,GND*%
X197540000Y-63800000D03*
%TO.P,J1,3,Pin_3*%
%TO.N,/SDI*%
X195000000Y-61260000D03*
%TO.P,J1,4,Pin_4*%
%TO.N,/SCLK*%
X197540000Y-61260000D03*
%TO.P,J1,5,Pin_5*%
%TO.N,/CS*%
X195000000Y-58720000D03*
%TO.P,J1,6,Pin_6*%
%TO.N,/D{slash}C*%
X197540000Y-58720000D03*
%TO.P,J1,7,Pin_7*%
%TO.N,/\u005CRST*%
X195000000Y-56180000D03*
%TO.P,J1,8,Pin_8*%
%TO.N,/BUSY*%
X197540000Y-56180000D03*
%TD*%
D15*
%TO.P,C5,1*%
%TO.N,GND*%
X156600000Y-70280000D03*
%TO.P,C5,2*%
%TO.N,/VPP*%
X156600000Y-68480000D03*
%TD*%
D21*
%TO.P,J2,1,Pin_1*%
%TO.N,/HLT_CTL*%
X112925000Y-46025000D03*
D22*
%TO.P,J2,2,Pin_2*%
%TO.N,/GDR*%
X115465000Y-46025000D03*
%TO.P,J2,3,Pin_3*%
%TO.N,/CURR_SENSE*%
X112925000Y-48565000D03*
%TO.P,J2,4,Pin_4*%
%TO.N,/VGL*%
X115465000Y-48565000D03*
%TO.P,J2,5,Pin_5*%
%TO.N,/VGH*%
X112925000Y-51105000D03*
%TO.P,J2,6,Pin_6*%
%TO.N,/TSCL*%
X115465000Y-51105000D03*
%TO.P,J2,7,Pin_7*%
%TO.N,/TSDA*%
X112925000Y-53645000D03*
%TO.P,J2,8,Pin_8*%
%TO.N,/BS*%
X115465000Y-53645000D03*
%TO.P,J2,9,Pin_9*%
%TO.N,/EPD_BUSY*%
X112925000Y-56185000D03*
%TO.P,J2,10,Pin_10*%
%TO.N,/\u005CEPD_RST*%
X115465000Y-56185000D03*
%TO.P,J2,11,Pin_11*%
%TO.N,/EPD_D{slash}C*%
X112925000Y-58725000D03*
%TO.P,J2,12,Pin_12*%
%TO.N,/EPD_CS*%
X115465000Y-58725000D03*
%TO.P,J2,13,Pin_13*%
%TO.N,/EPD_SCLK*%
X112925000Y-61265000D03*
%TO.P,J2,14,Pin_14*%
%TO.N,/EPD_SDI*%
X115465000Y-61265000D03*
%TO.P,J2,15,Pin_15*%
%TO.N,+3V3*%
X112925000Y-63805000D03*
%TO.P,J2,16,Pin_16*%
%TO.N,unconnected-(J2-Pin_16-Pad16)*%
X115465000Y-63805000D03*
%TO.P,J2,17,Pin_17*%
%TO.N,GND*%
X112925000Y-66345000D03*
%TO.P,J2,18,Pin_18*%
%TO.N,/VDD*%
X115465000Y-66345000D03*
%TO.P,J2,19,Pin_19*%
%TO.N,/VPP*%
X112925000Y-68885000D03*
%TO.P,J2,20,Pin_20*%
%TO.N,/VSH1*%
X115465000Y-68885000D03*
%TO.P,J2,21,Pin_21*%
%TO.N,/PREVGH*%
X112925000Y-71425000D03*
%TO.P,J2,22,Pin_22*%
%TO.N,/VSL*%
X115465000Y-71425000D03*
%TO.P,J2,23,Pin_23*%
%TO.N,/PREVGL*%
X112925000Y-73965000D03*
%TO.P,J2,24,Pin_24*%
%TO.N,/VCOM*%
X115465000Y-73965000D03*
%TD*%
D11*
%TO.P,R2,1*%
%TO.N,/RESE*%
X178600000Y-63087500D03*
%TO.P,R2,2*%
%TO.N,GND*%
X178600000Y-64912500D03*
%TD*%
D15*
%TO.P,C3,1*%
%TO.N,GND*%
X161000000Y-70280000D03*
%TO.P,C3,2*%
%TO.N,+3V3*%
X161000000Y-68480000D03*
%TD*%
%TO.P,C4,1*%
%TO.N,GND*%
X158600000Y-70280000D03*
%TO.P,C4,2*%
%TO.N,/VDD*%
X158600000Y-68480000D03*
%TD*%
D10*
%TO.P,C13,1*%
%TO.N,GND*%
X180900000Y-49100000D03*
%TO.P,C13,2*%
%TO.N,+3V3*%
X182700000Y-49100000D03*
%TD*%
D23*
%TO.P,Q1,1,G*%
%TO.N,/GDR*%
X174800000Y-65000000D03*
%TO.P,Q1,2,S*%
%TO.N,Net-(D2-A)*%
X176100000Y-65000000D03*
%TO.P,Q1,3,D*%
%TO.N,/RESE*%
X175450000Y-63000000D03*
%TD*%
D24*
%TO.P,Q2,1,G*%
%TO.N,Net-(Q2-G)*%
X188000000Y-64400000D03*
%TO.P,Q2,2,S*%
%TO.N,/VCC_INT*%
X188000000Y-62500000D03*
%TO.P,Q2,3,D*%
%TO.N,/Vcc*%
X186125000Y-63450000D03*
%TD*%
D25*
%TO.P,Q3,1,E*%
%TO.N,GND*%
X188730000Y-68360000D03*
D26*
%TO.P,Q3,2,B*%
%TO.N,Net-(Q3-B)*%
X190000000Y-68360000D03*
%TO.P,Q3,3,C*%
%TO.N,Net-(Q2-G)*%
X191270000Y-68360000D03*
%TD*%
D18*
%TO.P,C8,1*%
%TO.N,GND*%
X152800000Y-70180000D03*
%TO.P,C8,2*%
%TO.N,/VSL*%
X152800000Y-68620000D03*
%TD*%
D10*
%TO.P,C11,1*%
%TO.N,Net-(D1-K)*%
X173500000Y-72200000D03*
%TO.P,C11,2*%
%TO.N,Net-(D2-A)*%
X175300000Y-72200000D03*
%TD*%
D27*
%TO.P,U2,1,A1*%
%TO.N,unconnected-(U2-A1-Pad1)*%
X169459145Y-55389551D03*
%TO.P,U2,2,V_{CCA}*%
%TO.N,+3V3*%
X169459145Y-56039551D03*
%TO.P,U2,3,A2*%
%TO.N,/EPD_BUSY*%
X169459145Y-56689551D03*
%TO.P,U2,4,A3*%
%TO.N,/\u005CEPD_RST*%
X169459145Y-57339551D03*
%TO.P,U2,5,A4*%
%TO.N,/EPD_D{slash}C*%
X169459145Y-57989551D03*
%TO.P,U2,6,A5*%
%TO.N,/EPD_CS*%
X169459145Y-58639551D03*
%TO.P,U2,7,A6*%
%TO.N,/EPD_SCLK*%
X169459145Y-59289551D03*
%TO.P,U2,8,A7*%
%TO.N,/EPD_SDI*%
X169459145Y-59939551D03*
%TO.P,U2,9,A8*%
%TO.N,unconnected-(U2-A8-Pad9)*%
X169459145Y-60589551D03*
%TO.P,U2,10,OE*%
%TO.N,+3V3*%
X169459145Y-61239551D03*
%TO.P,U2,11,GND*%
%TO.N,GND*%
X175184145Y-61239551D03*
%TO.P,U2,12,B8*%
%TO.N,unconnected-(U2-B8-Pad12)*%
X175184145Y-60589551D03*
%TO.P,U2,13,B7*%
%TO.N,/SDI*%
X175184145Y-59939551D03*
%TO.P,U2,14,B6*%
%TO.N,/SCLK*%
X175184145Y-59289551D03*
%TO.P,U2,15,B5*%
%TO.N,/CS*%
X175184145Y-58639551D03*
%TO.P,U2,16,B4*%
%TO.N,/D{slash}C*%
X175184145Y-57989551D03*
%TO.P,U2,17,B3*%
%TO.N,/\u005CRST*%
X175184145Y-57339551D03*
%TO.P,U2,18,B2*%
%TO.N,/BUSY*%
X175184145Y-56689551D03*
%TO.P,U2,19,V_{CCB}*%
%TO.N,/Vcc*%
X175184145Y-56039551D03*
%TO.P,U2,20,B1*%
%TO.N,unconnected-(U2-B1-Pad20)*%
X175184145Y-55389551D03*
%TD*%
D28*
%TO.P,L1,1,1*%
%TO.N,+3V3*%
X178565000Y-68600000D03*
D29*
%TO.P,L1,2,2*%
%TO.N,Net-(D2-A)*%
X175035000Y-68600000D03*
%TD*%
D15*
%TO.P,C1,1*%
%TO.N,GND*%
X150000000Y-46800000D03*
%TO.P,C1,2*%
%TO.N,/VGL*%
X150000000Y-48600000D03*
%TD*%
%TO.P,C2,1*%
%TO.N,GND*%
X152200000Y-46800000D03*
%TO.P,C2,2*%
%TO.N,/VGH*%
X152200000Y-48600000D03*
%TD*%
D30*
%TO.P,J3,1,1*%
%TO.N,/HLT_CTL*%
X147400000Y-54250000D03*
%TO.P,J3,2,2*%
%TO.N,/GDR*%
X147400000Y-54750000D03*
%TO.P,J3,3,3*%
%TO.N,/CURR_SENSE*%
X147400000Y-55250000D03*
%TO.P,J3,4,4*%
%TO.N,/VGL*%
X147400000Y-55750000D03*
%TO.P,J3,5,5*%
%TO.N,/VGH*%
X147400000Y-56250000D03*
%TO.P,J3,6,6*%
%TO.N,/TSCL*%
X147400000Y-56750000D03*
%TO.P,J3,7,7*%
%TO.N,/TSDA*%
X147400000Y-57250000D03*
%TO.P,J3,8,8*%
%TO.N,/BS*%
X147400000Y-57750000D03*
%TO.P,J3,9,9*%
%TO.N,/EPD_BUSY*%
X147400000Y-58250000D03*
%TO.P,J3,10,10*%
%TO.N,/\u005CEPD_RST*%
X147400000Y-58750000D03*
%TO.P,J3,11,11*%
%TO.N,/EPD_D{slash}C*%
X147400000Y-59250000D03*
%TO.P,J3,12,12*%
%TO.N,/EPD_CS*%
X147400000Y-59750000D03*
%TO.P,J3,13,13*%
%TO.N,/EPD_SCLK*%
X147400000Y-60250000D03*
%TO.P,J3,14,14*%
%TO.N,/EPD_SDI*%
X147400000Y-60750000D03*
%TO.P,J3,15,15*%
%TO.N,+3V3*%
X147400000Y-61250000D03*
%TO.P,J3,16,16*%
X147400000Y-61750000D03*
%TO.P,J3,17,17*%
%TO.N,GND*%
X147400000Y-62250000D03*
%TO.P,J3,18,18*%
%TO.N,/VDD*%
X147400000Y-62750000D03*
%TO.P,J3,19,19*%
%TO.N,/VPP*%
X147400000Y-63250000D03*
%TO.P,J3,20,20*%
%TO.N,/VSH1*%
X147400000Y-63750000D03*
%TO.P,J3,21,21*%
%TO.N,/PREVGH*%
X147400000Y-64250000D03*
%TO.P,J3,22,22*%
%TO.N,/VSL*%
X147400000Y-64750000D03*
%TO.P,J3,23,23*%
%TO.N,/PREVGL*%
X147400000Y-65250000D03*
%TO.P,J3,24,24*%
%TO.N,/VCOM*%
X147400000Y-65750000D03*
D31*
%TO.P,J3,SH1*%
%TO.N,N/C*%
X146500000Y-52825000D03*
D32*
%TO.P,J3,SH2*%
X146500000Y-67175000D03*
%TD*%
D33*
%TO.N,/GDR*%
X159400000Y-65000000D03*
X149800000Y-54200000D03*
%TO.N,/D{slash}C*%
X191600000Y-58200000D03*
%TO.N,/BUSY*%
X197200000Y-53400000D03*
%TO.N,/PREVGH*%
X162400000Y-67400000D03*
X150200000Y-64400000D03*
%TO.N,/PREVGL*%
X150400000Y-72000000D03*
X150500707Y-66699294D03*
%TO.N,+3V3*%
X161000000Y-66800000D03*
X164600000Y-55400000D03*
X165400000Y-62000000D03*
X164600000Y-50200000D03*
X161200000Y-62200000D03*
X180600000Y-66200000D03*
X184800000Y-47400000D03*
X178600000Y-47400000D03*
%TO.N,GND*%
X197600000Y-66400000D03*
X178800000Y-52200000D03*
X149200000Y-68400000D03*
X149200000Y-62000000D03*
X182400000Y-61600000D03*
X178400000Y-61200000D03*
X182400000Y-68600000D03*
X148000000Y-47600000D03*
X182400000Y-64800000D03*
%TO.N,/SCLK*%
X188200000Y-59600000D03*
%TO.N,/Vcc*%
X182600000Y-53200000D03*
X184200000Y-62800000D03*
X182556058Y-55974695D03*
%TO.N,/\u005CRST*%
X183800000Y-70800000D03*
X182600000Y-57339551D03*
%TO.N,/VCC_EN*%
X187200000Y-56000000D03*
X187200000Y-72400000D03*
%TD*%
D34*
%TO.N,/VGH*%
X152200000Y-55283550D02*
X152200000Y-48600000D01*
X151233550Y-56250000D02*
X152200000Y-55283550D01*
X147400000Y-56250000D02*
X151233550Y-56250000D01*
%TO.N,/TSDA*%
X120697760Y-57250000D02*
X147400000Y-57250000D01*
X112925000Y-53645000D02*
X114076000Y-52494000D01*
X115941760Y-52494000D02*
X120697760Y-57250000D01*
X114076000Y-52494000D02*
X115941760Y-52494000D01*
%TO.N,/GDR*%
X159487500Y-64912500D02*
X159400000Y-65000000D01*
X172400000Y-64912500D02*
X159487500Y-64912500D01*
X174712500Y-64912500D02*
X174800000Y-65000000D01*
X149800000Y-54200000D02*
X149250000Y-54750000D01*
X149250000Y-54750000D02*
X147400000Y-54750000D01*
X124190000Y-54750000D02*
X147400000Y-54750000D01*
X115465000Y-46025000D02*
X124190000Y-54750000D01*
X172400000Y-64912500D02*
X174712500Y-64912500D01*
%TO.N,/D{slash}C*%
X175921644Y-57989551D02*
X175184145Y-57989551D01*
X176132093Y-58200000D02*
X175921644Y-57989551D01*
X191600000Y-58200000D02*
X176132093Y-58200000D01*
%TO.N,/BUSY*%
X191800000Y-54000000D02*
X191800000Y-56400000D01*
X192400000Y-53400000D02*
X191800000Y-54000000D01*
X191510449Y-56689551D02*
X175184145Y-56689551D01*
X191800000Y-56400000D02*
X191510449Y-56689551D01*
X197200000Y-53400000D02*
X192400000Y-53400000D01*
%TO.N,/VSH1*%
X154400000Y-68400000D02*
X154400000Y-67750057D01*
X120600000Y-63750000D02*
X147400000Y-63750000D01*
X115465000Y-68885000D02*
X120600000Y-63750000D01*
X154400000Y-67750057D02*
X150399943Y-63750000D01*
X150399943Y-63750000D02*
X147400000Y-63750000D01*
%TO.N,/VDD*%
X119060000Y-62750000D02*
X147400000Y-62750000D01*
X158600000Y-68480000D02*
X152870000Y-62750000D01*
X152870000Y-62750000D02*
X147400000Y-62750000D01*
X115465000Y-66345000D02*
X119060000Y-62750000D01*
%TO.N,/VGL*%
X147400000Y-55750000D02*
X149650000Y-55750000D01*
X150600000Y-49200000D02*
X150000000Y-48600000D01*
X149650000Y-55750000D02*
X150600000Y-54800000D01*
X122650000Y-55750000D02*
X147400000Y-55750000D01*
X115465000Y-48565000D02*
X122650000Y-55750000D01*
X150600000Y-54800000D02*
X150600000Y-49200000D01*
%TO.N,/VGH*%
X122237760Y-56250000D02*
X147400000Y-56250000D01*
X114076000Y-49954000D02*
X115941760Y-49954000D01*
X112925000Y-51105000D02*
X114076000Y-49954000D01*
X115941760Y-49954000D02*
X122237760Y-56250000D01*
%TO.N,/VSL*%
X152800000Y-68150057D02*
X149399943Y-64750000D01*
X152800000Y-68400000D02*
X152800000Y-68150057D01*
X149399943Y-64750000D02*
X147400000Y-64750000D01*
X122140000Y-64750000D02*
X147400000Y-64750000D01*
X115465000Y-71425000D02*
X122140000Y-64750000D01*
%TO.N,/TSCL*%
X115465000Y-51105000D02*
X121110000Y-56750000D01*
X121110000Y-56750000D02*
X147400000Y-56750000D01*
%TO.N,/CURR_SENSE*%
X112925000Y-48565000D02*
X114314000Y-47176000D01*
X124015760Y-55250000D02*
X147400000Y-55250000D01*
X115941760Y-47176000D02*
X124015760Y-55250000D01*
X114314000Y-47176000D02*
X115941760Y-47176000D01*
%TO.N,/VCOM*%
X147400000Y-65750000D02*
X148070000Y-65750000D01*
X123680000Y-65750000D02*
X147400000Y-65750000D01*
X115465000Y-73965000D02*
X123680000Y-65750000D01*
X148070000Y-65750000D02*
X150800000Y-68480000D01*
%TO.N,/VPP*%
X114076000Y-67734000D02*
X115941760Y-67734000D01*
X156600000Y-68480000D02*
X151370000Y-63250000D01*
X112925000Y-68885000D02*
X114076000Y-67734000D01*
X120425760Y-63250000D02*
X147400000Y-63250000D01*
X151370000Y-63250000D02*
X147400000Y-63250000D01*
X115941760Y-67734000D02*
X120425760Y-63250000D01*
%TO.N,/SDI*%
X194060000Y-61260000D02*
X195000000Y-61260000D01*
X175184145Y-59939551D02*
X182339551Y-59939551D01*
X182339551Y-59939551D02*
X183600000Y-61200000D01*
X194000000Y-61200000D02*
X194060000Y-61260000D01*
X183600000Y-61200000D02*
X194000000Y-61200000D01*
%TO.N,/CS*%
X176083093Y-58801000D02*
X175921644Y-58639551D01*
X194959000Y-58801000D02*
X176083093Y-58801000D01*
X175921644Y-58639551D02*
X175184145Y-58639551D01*
X195000000Y-58760000D02*
X194959000Y-58801000D01*
%TO.N,/PREVGH*%
X115941760Y-70274000D02*
X121965760Y-64250000D01*
X162400000Y-67400000D02*
X167950000Y-67400000D01*
X112925000Y-71425000D02*
X114076000Y-70274000D01*
X150200000Y-64400000D02*
X150050000Y-64250000D01*
X150050000Y-64250000D02*
X147400000Y-64250000D01*
X121965760Y-64250000D02*
X147400000Y-64250000D01*
X114076000Y-70274000D02*
X115941760Y-70274000D01*
%TO.N,/PREVGL*%
X112925000Y-73965000D02*
X114076000Y-72814000D01*
X150499294Y-66699294D02*
X149050000Y-65250000D01*
X123505760Y-65250000D02*
X147400000Y-65250000D01*
X150500707Y-66699294D02*
X150499294Y-66699294D01*
X114076000Y-72814000D02*
X115941760Y-72814000D01*
X115941760Y-72814000D02*
X123505760Y-65250000D01*
X150600000Y-72200000D02*
X150400000Y-72000000D01*
X167950000Y-72200000D02*
X150600000Y-72200000D01*
X149050000Y-65250000D02*
X147400000Y-65250000D01*
%TO.N,/HLT_CTL*%
X115941760Y-44874000D02*
X125317760Y-54250000D01*
X112925000Y-46025000D02*
X114076000Y-44874000D01*
X114076000Y-44874000D02*
X115941760Y-44874000D01*
X125317760Y-54250000D02*
X147400000Y-54250000D01*
%TO.N,+3V3*%
X185260000Y-49380000D02*
X185260000Y-47860000D01*
X178600000Y-47400000D02*
X176200000Y-49800000D01*
X180600000Y-66800000D02*
X180600000Y-66200000D01*
X165400000Y-62000000D02*
X166400000Y-62000000D01*
X147400000Y-61250000D02*
X147400000Y-61750000D01*
X116845760Y-61750000D02*
X147400000Y-61750000D01*
X179065000Y-68100000D02*
X180600000Y-68100000D01*
X164600000Y-55400000D02*
X164980000Y-55780000D01*
X147403109Y-61253109D02*
X147400000Y-61250000D01*
X161400000Y-62000000D02*
X165400000Y-62000000D01*
X180600000Y-68100000D02*
X180600000Y-66800000D01*
X184980000Y-49100000D02*
X185260000Y-49380000D01*
X161200000Y-62144252D02*
X160308857Y-61253109D01*
X182700000Y-49100000D02*
X184980000Y-49100000D01*
X164800000Y-49800000D02*
X164600000Y-50000000D01*
X167259551Y-56039551D02*
X167000000Y-55780000D01*
X161200000Y-62200000D02*
X161200000Y-62144252D01*
X114076000Y-62654000D02*
X115941760Y-62654000D01*
X167160449Y-61239551D02*
X169459145Y-61239551D01*
X160308857Y-61253109D02*
X147403109Y-61253109D01*
X164980000Y-55780000D02*
X167000000Y-55780000D01*
X115941760Y-62654000D02*
X116845760Y-61750000D01*
X161007500Y-68487500D02*
X161000000Y-68480000D01*
X178565000Y-68600000D02*
X179065000Y-68100000D01*
X112925000Y-63805000D02*
X114076000Y-62654000D01*
X176200000Y-49800000D02*
X164800000Y-49800000D01*
X169459145Y-56039551D02*
X167259551Y-56039551D01*
X161000000Y-68480000D02*
X161000000Y-66800000D01*
X161200000Y-62200000D02*
X161400000Y-62000000D01*
X166400000Y-62000000D02*
X167160449Y-61239551D01*
X185260000Y-47860000D02*
X184800000Y-47400000D01*
X163000000Y-68487500D02*
X161007500Y-68487500D01*
%TO.N,/BS*%
X119570000Y-57750000D02*
X147400000Y-57750000D01*
X115465000Y-53645000D02*
X119570000Y-57750000D01*
%TO.N,GND*%
X162712500Y-70312500D02*
X162680000Y-70280000D01*
X182000000Y-61200000D02*
X178400000Y-61200000D01*
X162680000Y-70280000D02*
X161000000Y-70280000D01*
X158600000Y-70280000D02*
X161000000Y-70280000D01*
X197540000Y-63840000D02*
X197540000Y-66340000D01*
X167950000Y-69800000D02*
X165600000Y-69800000D01*
X171600000Y-62800000D02*
X171887500Y-63087500D01*
X153150057Y-62000000D02*
X153951057Y-62801000D01*
X149200000Y-62000000D02*
X153150057Y-62000000D01*
X152200000Y-46800000D02*
X159580000Y-46800000D01*
X153951057Y-62801000D02*
X167386500Y-62801000D01*
X154680000Y-70280000D02*
X156600000Y-70280000D01*
X179400000Y-51600000D02*
X178800000Y-52200000D01*
X178600000Y-64912500D02*
X182287500Y-64912500D01*
X181100000Y-69900000D02*
X182400000Y-68600000D01*
X152200000Y-46800000D02*
X150000000Y-46800000D01*
X152800000Y-70180000D02*
X154400000Y-70180000D01*
X114076000Y-65194000D02*
X115941760Y-65194000D01*
X186200000Y-53487500D02*
X185287500Y-54400000D01*
X159580000Y-46800000D02*
X167000000Y-54220000D01*
X165600000Y-69800000D02*
X165087500Y-70312500D01*
X150800000Y-70280000D02*
X152700000Y-70280000D01*
X181200000Y-54400000D02*
X180900000Y-54100000D01*
X148950000Y-62250000D02*
X149200000Y-62000000D01*
X115941760Y-65194000D02*
X118885760Y-62250000D01*
X148000000Y-47600000D02*
X148800000Y-46800000D01*
X188730000Y-68360000D02*
X182640000Y-68360000D01*
X180600000Y-69900000D02*
X181100000Y-69900000D01*
X171200000Y-62800000D02*
X171600000Y-62800000D01*
X149142768Y-70142768D02*
X149280000Y-70280000D01*
X163000000Y-70312500D02*
X162712500Y-70312500D01*
X182400000Y-61600000D02*
X182000000Y-61200000D01*
X112925000Y-66345000D02*
X114076000Y-65194000D01*
X165087500Y-70312500D02*
X163000000Y-70312500D01*
X185287500Y-54400000D02*
X181200000Y-54400000D01*
X154400000Y-70180000D02*
X154580000Y-70180000D01*
X176780000Y-54220000D02*
X167000000Y-54220000D01*
X167386500Y-62801000D02*
X171199000Y-62801000D01*
X149280000Y-70280000D02*
X150800000Y-70280000D01*
X152700000Y-70280000D02*
X152800000Y-70180000D01*
X118885760Y-62250000D02*
X147400000Y-62250000D01*
X148800000Y-46800000D02*
X150000000Y-46800000D01*
X180900000Y-54100000D02*
X180900000Y-51600000D01*
X186200000Y-51820000D02*
X186200000Y-53487500D01*
X171887500Y-63087500D02*
X172400000Y-63087500D01*
X178800000Y-52200000D02*
X176780000Y-54220000D01*
X180900000Y-46600000D02*
X180900000Y-51600000D01*
X154580000Y-70180000D02*
X154680000Y-70280000D01*
X149200000Y-68400000D02*
X149142768Y-68457232D01*
X147400000Y-62250000D02*
X148950000Y-62250000D01*
X180900000Y-51600000D02*
X179400000Y-51600000D01*
X178360449Y-61239551D02*
X175184145Y-61239551D01*
X182287500Y-64912500D02*
X182400000Y-64800000D01*
X158600000Y-70280000D02*
X156600000Y-70280000D01*
X171199000Y-62801000D02*
X171200000Y-62800000D01*
X197540000Y-66340000D02*
X197600000Y-66400000D01*
X149142768Y-68457232D02*
X149142768Y-70142768D01*
X182640000Y-68360000D02*
X182400000Y-68600000D01*
X178400000Y-61200000D02*
X178360449Y-61239551D01*
%TO.N,/SCLK*%
X187889551Y-59289551D02*
X188200000Y-59600000D01*
X175184145Y-59289551D02*
X187889551Y-59289551D01*
%TO.N,Net-(D1-K)*%
X173500000Y-72200000D02*
X171250000Y-72200000D01*
X171250000Y-69800000D02*
X171250000Y-72200000D01*
%TO.N,Net-(D2-A)*%
X176100000Y-65000000D02*
X176100000Y-67535000D01*
X175035000Y-68600000D02*
X173835000Y-67400000D01*
X173835000Y-67400000D02*
X171250000Y-67400000D01*
X176100000Y-67535000D02*
X175035000Y-68600000D01*
X175300000Y-72200000D02*
X175300000Y-68865000D01*
X175300000Y-68865000D02*
X175035000Y-68600000D01*
%TO.N,/RESE*%
X175450000Y-63000000D02*
X178512500Y-63000000D01*
X178512500Y-63000000D02*
X178600000Y-63087500D01*
%TO.N,Net-(U1-BP)*%
X187140000Y-47340000D02*
X187140000Y-49380000D01*
X182700000Y-46600000D02*
X186400000Y-46600000D01*
X186400000Y-46600000D02*
X187140000Y-47340000D01*
%TO.N,/Vcc*%
X184600000Y-63400000D02*
X184200000Y-63000000D01*
X182700000Y-51600000D02*
X185040000Y-51600000D01*
X175184145Y-56039551D02*
X182491202Y-56039551D01*
X185040000Y-51600000D02*
X185260000Y-51820000D01*
X184200000Y-63000000D02*
X184200000Y-62800000D01*
X182491202Y-56039551D02*
X182556058Y-55974695D01*
X184650000Y-63450000D02*
X184600000Y-63400000D01*
X182600000Y-51700000D02*
X182700000Y-51600000D01*
X182600000Y-53200000D02*
X182600000Y-51700000D01*
X186125000Y-63450000D02*
X184650000Y-63450000D01*
%TO.N,Net-(Q2-G)*%
X188000000Y-64400000D02*
X190625000Y-64400000D01*
X190625000Y-64400000D02*
X190662500Y-64362500D01*
X191600000Y-65300000D02*
X190662500Y-64362500D01*
X191600000Y-68360000D02*
X191600000Y-65300000D01*
%TO.N,/VCC_INT*%
X190625000Y-62500000D02*
X190662500Y-62537500D01*
X193697500Y-62537500D02*
X195000000Y-63840000D01*
X188000000Y-62500000D02*
X190625000Y-62500000D01*
X190662500Y-62537500D02*
X193697500Y-62537500D01*
%TO.N,Net-(Q3-B)*%
X191600000Y-71287500D02*
X190000000Y-71287500D01*
X190000000Y-71287500D02*
X190000000Y-68360000D01*
%TO.N,/\u005CRST*%
X182660449Y-57400000D02*
X194200000Y-57400000D01*
X183825000Y-70800000D02*
X184312500Y-71287500D01*
X194200000Y-57400000D02*
X195000000Y-56600000D01*
X183800000Y-70800000D02*
X183825000Y-70800000D01*
X188400000Y-71512500D02*
X190000000Y-73112500D01*
X182600000Y-57339551D02*
X175184145Y-57339551D01*
X184312500Y-71287500D02*
X188400000Y-71287500D01*
X182600000Y-57339551D02*
X182660449Y-57400000D01*
X195000000Y-56600000D02*
X195000000Y-56220000D01*
X188400000Y-71287500D02*
X188400000Y-71512500D01*
%TO.N,Net-(R8-Pad1)*%
X191600000Y-73512500D02*
X191600000Y-73287500D01*
X193200000Y-71287500D02*
X193200000Y-71512500D01*
X193200000Y-71512500D02*
X191600000Y-73112500D01*
%TO.N,/VCC_EN*%
X189487500Y-74200000D02*
X192112500Y-74200000D01*
X187712500Y-73112500D02*
X188400000Y-73112500D01*
X187140000Y-53940000D02*
X187140000Y-51820000D01*
X187200000Y-72400000D02*
X187200000Y-72600000D01*
X187280000Y-72320000D02*
X187200000Y-72400000D01*
X187112500Y-55912500D02*
X187200000Y-56000000D01*
X192112500Y-74200000D02*
X193200000Y-73112500D01*
X188400000Y-73112500D02*
X189487500Y-74200000D01*
X187112500Y-54400000D02*
X187112500Y-55912500D01*
X187200000Y-72600000D02*
X187712500Y-73112500D01*
%TO.N,/EPD_SDI*%
X115465000Y-61265000D02*
X115980000Y-60750000D01*
X164862602Y-60750000D02*
X147400000Y-60750000D01*
X169459145Y-59939551D02*
X165673051Y-59939551D01*
X115980000Y-60750000D02*
X147400000Y-60750000D01*
X165673051Y-59939551D02*
X164862602Y-60750000D01*
%TO.N,/EPD_CS*%
X115465000Y-58725000D02*
X116490000Y-59750000D01*
X164728402Y-59750000D02*
X147400000Y-59750000D01*
X169459145Y-58639551D02*
X165838851Y-58639551D01*
X116490000Y-59750000D02*
X147400000Y-59750000D01*
X165838851Y-58639551D02*
X164728402Y-59750000D01*
%TO.N,/EPD_D{slash}C*%
X115941760Y-57336000D02*
X117855760Y-59250000D01*
X117855760Y-59250000D02*
X147400000Y-59250000D01*
X112925000Y-58725000D02*
X114314000Y-57336000D01*
X114314000Y-57336000D02*
X115941760Y-57336000D01*
X165921751Y-57989551D02*
X164661302Y-59250000D01*
X164661302Y-59250000D02*
X147400000Y-59250000D01*
X169459145Y-57989551D02*
X165921751Y-57989551D01*
%TO.N,/\u005CEPD_RST*%
X166004651Y-57339551D02*
X164594202Y-58750000D01*
X115465000Y-56185000D02*
X118030000Y-58750000D01*
X169459145Y-57339551D02*
X166004651Y-57339551D01*
X164594202Y-58750000D02*
X147400000Y-58750000D01*
X118030000Y-58750000D02*
X147400000Y-58750000D01*
%TO.N,/EPD_BUSY*%
X169459145Y-56689551D02*
X166087551Y-56689551D01*
X164527102Y-58250000D02*
X147400000Y-58250000D01*
X119157760Y-58250000D02*
X147400000Y-58250000D01*
X115941760Y-55034000D02*
X119157760Y-58250000D01*
X114076000Y-55034000D02*
X115941760Y-55034000D01*
X112925000Y-56185000D02*
X114076000Y-55034000D01*
X166087551Y-56689551D02*
X164527102Y-58250000D01*
%TO.N,/EPD_SCLK*%
X164795502Y-60250000D02*
X147400000Y-60250000D01*
X114190000Y-60000000D02*
X112925000Y-61265000D01*
X116250000Y-60250000D02*
X116000000Y-60000000D01*
X116000000Y-60000000D02*
X114190000Y-60000000D01*
X165755951Y-59289551D02*
X164795502Y-60250000D01*
X169459145Y-59289551D02*
X165755951Y-59289551D01*
X147400000Y-60250000D02*
X116250000Y-60250000D01*
%TD*%
M02*
