M48
; DRILL file {KiCad 9.0.0} date 2025-06-14T01:11:07+1000
; FORMAT={-:-/ absolute / metric / decimal}
; #@! TF.CreationDate,2025-06-14T01:11:07+10:00
; #@! TF.GenerationSoftware,Kicad,Pcbnew,9.0.0
; #@! TF.FileFunction,Plated,1,2,PTH
FMAT,2
METRIC
; #@! TA.AperFunction,Plated,PTH,ViaDrill
T1C0.300
; #@! TA.AperFunction,Plated,PTH,ComponentDrill
T2C0.710
; #@! TA.AperFunction,Plated,PTH,ComponentDrill
T3C0.750
; #@! TA.AperFunction,Plated,PTH,ComponentDrill
T4C1.000
%
G90
G05
T1
X148.0Y-47.6
X149.2Y-62.0
X149.2Y-68.4
X149.8Y-54.2
X150.2Y-64.4
X150.4Y-72.0
X150.501Y-66.699
X159.4Y-65.0
X161.0Y-66.8
X161.2Y-62.2
X162.4Y-67.4
X164.6Y-50.2
X164.6Y-55.4
X165.4Y-62.0
X178.4Y-61.2
X178.6Y-47.4
X178.8Y-52.2
X180.6Y-66.2
X182.4Y-61.6
X182.4Y-64.8
X182.4Y-68.6
X182.556Y-55.975
X182.6Y-53.2
X182.6Y-57.34
X183.8Y-70.8
X184.2Y-62.8
X184.8Y-47.4
X187.2Y-56.0
X187.2Y-72.4
X188.2Y-59.6
X191.6Y-58.2
X197.2Y-53.4
X197.6Y-66.4
T2
X195.0Y-56.18
X195.0Y-58.72
X195.0Y-61.26
X195.0Y-63.8
X197.54Y-56.18
X197.54Y-58.72
X197.54Y-61.26
X197.54Y-63.8
T3
X188.73Y-68.36
X190.0Y-68.36
X191.27Y-68.36
T4
X112.925Y-46.025
X112.925Y-48.565
X112.925Y-51.105
X112.925Y-53.645
X112.925Y-56.185
X112.925Y-58.725
X112.925Y-61.265
X112.925Y-63.805
X112.925Y-66.345
X112.925Y-68.885
X112.925Y-71.425
X112.925Y-73.965
X115.465Y-46.025
X115.465Y-48.565
X115.465Y-51.105
X115.465Y-53.645
X115.465Y-56.185
X115.465Y-58.725
X115.465Y-61.265
X115.465Y-63.805
X115.465Y-66.345
X115.465Y-68.885
X115.465Y-71.425
X115.465Y-73.965
M30
